<svg width="32" height="32" viewBox="0 0 32 32" fill="none" xmlns="http://www.w3.org/2000/svg">
<path d="M5.11111 20.6667H2V26.8889C2 27.714 2.32778 28.5053 2.91122 29.0888C3.49467 29.6722 4.28599 30 5.11111 30H11.3333V26.8889H5.11111M5.11111 5.11111H11.3333V2H5.11111C4.28599 2 3.49467 2.32778 2.91122 2.91122C2.32778 3.49467 2 4.28599 2 5.11111V11.3333H5.11111M26.8889 2H20.6667V5.11111H26.8889V11.3333H30V5.11111C30 4.28599 29.6722 3.49467 29.0888 2.91122C28.5053 2.32778 27.714 2 26.8889 2ZM26.8889 26.8889H20.6667V30H26.8889C27.714 30 28.5053 29.6722 29.0888 29.0888C29.6722 28.5053 30 27.714 30 26.8889V20.6667H26.8889M16 9.77778C14.3498 9.77778 12.7671 10.4333 11.6002 11.6002C10.4333 12.7671 9.77778 14.3498 9.77778 16C9.77778 17.6502 10.4333 19.2329 11.6002 20.3998C12.7671 21.5667 14.3498 22.2222 16 22.2222C17.6502 22.2222 19.2329 21.5667 20.3998 20.3998C21.5667 19.2329 22.2222 17.6502 22.2222 16C22.2222 14.3498 21.5667 12.7671 20.3998 11.6002C19.2329 10.4333 17.6502 9.77778 16 9.77778ZM16 19.1111C15.1749 19.1111 14.3836 18.7833 13.8001 18.1999C13.2167 17.6164 12.8889 16.8251 12.8889 16C12.8889 15.1749 13.2167 14.3836 13.8001 13.8001C14.3836 13.2167 15.1749 12.8889 16 12.8889C16.8251 12.8889 17.6164 13.2167 18.1999 13.8001C18.7833 14.3836 19.1111 15.1749 19.1111 16C19.1111 16.8251 18.7833 17.6164 18.1999 18.1999C17.6164 18.7833 16.8251 19.1111 16 19.1111Z" fill="#F4C10B"/>
</svg>
