<svg width="32" height="32" viewBox="0 0 32 32" fill="none" xmlns="http://www.w3.org/2000/svg">
<path d="M5.99717 6.66797C4.25984 6.63864 3.4265 6.97997 2.96384 8.19064C2.68384 8.9253 2.6665 9.7293 2.6665 10.516V24.0013C2.8105 24.8466 3.0505 25.408 3.65584 25.868C4.64384 26.6146 5.95584 26.7173 7.17584 26.9386C9.84784 27.4226 12.1718 28.2426 15.9918 29.3346M15.9918 29.3346C19.5292 28.24 22.0585 27.4813 24.4292 27.044C26.3238 26.6933 28.7358 26.4573 29.1625 24.5773C29.2745 24.0826 29.3252 23.464 29.3158 22.668V12.356C29.3158 10.3506 29.6198 7.6613 27.7905 6.8413C27.3318 6.6373 26.7545 6.6013 25.9852 6.66797M15.9918 29.3346V20.0013M15.9905 16.0013C17.7579 16.0002 19.4526 15.2974 20.702 14.0473C21.9513 12.7971 22.6532 11.1021 22.6532 9.33464C22.6532 5.65197 19.6705 2.66797 15.9905 2.66797M15.9905 16.0013C14.2231 16.0002 12.5284 15.2974 11.279 14.0473C10.0297 12.7971 9.32784 11.1021 9.32784 9.33464C9.32784 5.65197 12.3105 2.66797 15.9905 2.66797M15.9905 16.0013C17.4625 16.0013 18.6558 13.0146 18.6558 9.33464C18.6558 5.65197 17.4625 2.66797 15.9892 2.66797M15.9905 2.66797C14.5185 2.66797 13.3252 5.65197 13.3252 9.33464C13.3252 13.0146 14.5185 16.0013 15.9892 16.0013" stroke="#F4C10B" stroke-width="2.1" stroke-linecap="round" stroke-linejoin="round"/>
</svg>
