<svg width="32" height="32" viewBox="0 0 32 32" fill="none" xmlns="http://www.w3.org/2000/svg">
<path d="M14.9801 3.16372C14.4895 3.36639 14.0508 3.80639 13.1721 4.68372C12.2935 5.56372 11.8535 6.00239 11.6521 6.49172C11.5181 6.81531 11.4491 7.16213 11.4491 7.51239C11.4491 7.86265 11.5181 8.20947 11.6521 8.53306C11.8535 9.02372 12.2921 9.46239 13.1721 10.3411C14.0495 11.2197 14.4895 11.6597 14.9801 11.8611C15.6333 12.1314 16.367 12.1314 17.0201 11.8611C17.5108 11.6597 17.9495 11.2211 18.8281 10.3411C19.7081 9.46239 20.1455 9.02372 20.3481 8.53306C20.6185 7.87993 20.6185 7.14618 20.3481 6.49306C20.1455 6.00239 19.7081 5.56372 18.8281 4.68506C17.9495 3.80506 17.5108 3.36639 17.0201 3.16372C16.367 2.89334 15.6333 2.89334 14.9801 3.16372ZM6.49346 11.6491C6.00413 11.8517 5.56413 12.2904 4.6868 13.1691C3.8068 14.0491 3.36813 14.4877 3.16546 14.9771C3.0314 15.3006 2.9624 15.6475 2.9624 15.9977C2.9624 16.348 3.0314 16.6948 3.16546 17.0184C3.36813 17.5091 3.80813 17.9477 4.68546 18.8264C5.56546 19.7051 6.00413 20.1437 6.49346 20.3464C6.81705 20.4804 7.16387 20.5495 7.51413 20.5495C7.86439 20.5495 8.21121 20.4804 8.5348 20.3464C9.02546 20.1437 9.46413 19.7051 10.3428 18.8264C11.2228 17.9477 11.6601 17.5091 11.8628 17.0184C12.1332 16.3653 12.1332 15.6315 11.8628 14.9784C11.6601 14.4877 11.2228 14.0477 10.3428 13.1691C9.46413 12.2904 9.02546 11.8517 8.5348 11.6491C7.88167 11.3787 7.14659 11.3787 6.49346 11.6491ZM21.6575 13.1691C20.7788 14.0491 20.3401 14.4877 20.1375 14.9771C20.0034 15.3006 19.9344 15.6475 19.9344 15.9977C19.9344 16.348 20.0034 16.6948 20.1375 17.0184C20.3401 17.5091 20.7788 17.9477 21.6575 18.8264C22.5361 19.7051 22.9761 20.1437 23.4655 20.3464C24.1186 20.6168 24.8523 20.6168 25.5055 20.3464C25.9961 20.1437 26.4361 19.7051 27.3148 18.8264C28.1935 17.9477 28.6308 17.5091 28.8348 17.0184C29.1052 16.3653 29.1052 15.6315 28.8348 14.9784C28.6308 14.4877 28.1935 14.0477 27.3148 13.1691C26.4348 12.2904 25.9961 11.8517 25.5068 11.6491C25.1832 11.515 24.8364 11.446 24.4861 11.446C24.1359 11.446 23.789 11.515 23.4655 11.6491C22.9761 11.8517 22.5361 12.2904 21.6575 13.1691ZM14.9801 20.1344C14.4895 20.3371 14.0508 20.7771 13.1721 21.6544C12.2935 22.5344 11.8535 22.9731 11.6521 23.4637C11.3818 24.1168 11.3818 24.8506 11.6521 25.5037C11.8535 25.9944 12.2921 26.4331 13.1721 27.3117C14.0495 28.1904 14.4895 28.6304 14.9801 28.8317C15.6333 29.1021 16.367 29.1021 17.0201 28.8317C17.5108 28.6304 17.9495 28.1917 18.8281 27.3117C19.7081 26.4331 20.1455 25.9944 20.3481 25.5037C20.6188 24.8504 20.6188 24.1171 20.3481 23.4637C20.1455 22.9731 19.7081 22.5331 18.8281 21.6557C17.9495 20.7757 17.5108 20.3371 17.0201 20.1344C16.367 19.864 15.6333 19.864 14.9801 20.1344Z" stroke="#F4C10B" stroke-width="2" stroke-linecap="round" stroke-linejoin="round"/>
</svg>
