<svg width="55" height="55" viewBox="0 0 55 55" fill="none" xmlns="http://www.w3.org/2000/svg">
<g clip-path="url(#clip0_722_505)">
<path fill-rule="evenodd" clip-rule="evenodd" d="M5.62787 13.4965C5.36637 16.3227 5.30858 16.6195 6.35322 16.2462C7.23397 15.9289 7.73537 15.661 8.40106 15.4811C8.63769 15.4178 8.90179 15.5156 9.02496 15.7293C9.18676 15.9899 9.42167 16.3873 9.68958 16.8888C10.5104 18.366 10.6875 18.4697 11.2195 17.8879C11.8484 17.2003 11.854 16.5528 11.234 15.5272C10.601 14.4861 10.5996 14.5003 11.5587 14.1187C12.5462 13.7398 13.1069 13.1608 13.1737 12.476C13.3673 10.4929 12.29 11.4967 6.94606 6.33731C5.69516 5.13498 4.95264 4.18392 4.94869 6.14232C4.92811 7.0909 5.05989 9.13457 5.62787 13.4965ZM12.5374 22.0926C13.6588 24.6217 14.7465 25.5777 15.3333 24.5835C15.849 23.7265 15.7658 23.5456 14.0946 21.3372C12.6037 19.3481 11.5594 19.8655 12.5374 22.0926ZM16.5787 28.3491C17.4959 29.5764 20.0663 32.0166 20.4943 32.0584C21.5215 32.1586 21.8153 30.3294 20.8751 29.6327C20.2321 29.1378 17.9645 26.8424 17.6252 26.334C17.2115 25.7031 16.5194 26.154 16.2281 27.2202C16.115 27.6413 16.1723 27.7909 16.5787 28.3491ZM21.6623 28.3556C21.8394 29.6404 22.8736 28.4883 23.0181 26.8605C23.1609 25.1028 23.5604 24.5513 25.1719 23.8301C26.3916 23.2866 26.6857 22.1919 25.6018 22.2301C23.5651 22.2905 21.3211 25.8018 21.6623 28.3556ZM23.7502 33.6725C24.696 34.3121 28.0125 33.8293 28.7764 32.9389C29.5232 32.0756 29.3813 31.1688 28.542 31.5045C27.8522 31.7829 26.4704 31.9216 25.4004 31.8172C24.0165 31.6821 22.8044 33.0328 23.7502 33.6725ZM25.2573 38.8894C26.0913 40.5263 28.978 42.8245 29.8702 42.5371C30.9834 42.1993 30.8436 40.9758 29.5662 40.0445C29.109 39.7118 28.2544 39.0235 27.6685 38.5343C25.3803 36.597 25.476 36.6495 25.1635 37.1951C24.8509 37.7407 24.8704 38.1315 25.2573 38.8894ZM28.7226 24.6376C29.9098 26.0497 30.6846 28.5883 30.364 29.9541C30.0999 31.0373 31.0627 30.4688 31.5434 29.2338C32.4806 26.8624 30.1102 21.4892 28.6538 22.6865C28.0274 23.2015 28.0532 23.8233 28.7226 24.6376ZM33.2597 45.1437C34.4639 46.5287 37.7261 47.7833 38.3393 47.1086C39.1801 46.1681 38.9633 45.5852 37.5857 45.0907C36.0139 44.5196 34.1572 43.4741 33.7292 43.4324C32.9873 43.3599 32.6904 44.4832 33.2597 45.1437ZM41.787 48.3814C44.0265 49.637 49.173 49.7362 49.7365 48.5381C50.1168 47.7399 49.9912 47.6988 46.3201 47.2396C44.4839 47.0171 42.7659 46.763 42.5004 46.6795C41.4242 46.344 40.7901 47.8232 41.787 48.3814Z" fill="#747474" fill-opacity="0.64"/>
</g>
<defs>
<clipPath id="clip0_722_505">
<rect width="50.1715" height="50.1715" fill="white" transform="translate(0 49.9342) rotate(-84.4244)"/>
</clipPath>
</defs>
</svg>
