<svg width="59" height="58" viewBox="0 0 59 58" fill="none" xmlns="http://www.w3.org/2000/svg">
<path d="M46.8186 12.8808C43.6045 11.3824 40.1245 10.2949 36.4995 9.66662C36.4677 9.6656 36.4361 9.67156 36.4068 9.68409C36.3776 9.69662 36.3515 9.7154 36.3303 9.73912C35.8953 10.5366 35.3878 11.5758 35.0495 12.3733C31.2046 11.7933 27.2944 11.7933 23.4495 12.3733C23.1111 11.5516 22.6036 10.5366 22.1445 9.73912C22.1203 9.69078 22.0478 9.66662 21.9753 9.66662C18.3503 10.2949 14.8945 11.3824 11.6561 12.8808C11.632 12.8808 11.6078 12.9049 11.5836 12.9291C5.0103 22.7649 3.1978 32.3349 4.09197 41.8083C4.09197 41.8566 4.11614 41.9049 4.16447 41.9291C8.51447 45.1191 12.6953 47.0524 16.8278 48.3333C16.9003 48.3574 16.9728 48.3333 16.997 48.2849C17.9636 46.9558 18.8336 45.5541 19.5828 44.0799C19.6311 43.9833 19.5828 43.8866 19.4861 43.8624C18.1086 43.3308 16.8036 42.7024 15.5228 41.9775C15.4261 41.9291 15.4261 41.7841 15.4986 41.7116C15.7645 41.5183 16.0303 41.3008 16.2961 41.1074C16.3445 41.0591 16.417 41.0591 16.4653 41.0833C24.7786 44.8774 33.7445 44.8774 41.9611 41.0833C42.0095 41.0591 42.082 41.0591 42.1303 41.1074C42.3961 41.3249 42.662 41.5183 42.9278 41.7358C43.0245 41.8083 43.0245 41.9533 42.9036 42.0016C41.647 42.7508 40.3178 43.3549 38.9403 43.8866C38.8436 43.9108 38.8195 44.0316 38.8436 44.1041C39.617 45.5783 40.487 46.9799 41.4295 48.3091C41.502 48.3333 41.5745 48.3574 41.647 48.3333C45.8036 47.0524 49.9845 45.1191 54.3345 41.9291C54.3828 41.9049 54.407 41.8566 54.407 41.8083C55.4703 30.8608 52.6428 21.3633 46.9153 12.9291C46.8911 12.9049 46.867 12.8808 46.8186 12.8808ZM20.8395 36.0324C18.3503 36.0324 16.272 33.7366 16.272 30.9091C16.272 28.0816 18.302 25.7858 20.8395 25.7858C23.4011 25.7858 25.4311 28.1058 25.407 30.9091C25.407 33.7366 23.377 36.0324 20.8395 36.0324ZM37.6836 36.0324C35.1945 36.0324 33.1161 33.7366 33.1161 30.9091C33.1161 28.0816 35.1461 25.7858 37.6836 25.7858C40.2453 25.7858 42.2753 28.1058 42.2511 30.9091C42.2511 33.7366 40.2453 36.0324 37.6836 36.0324Z" fill="white"/>
</svg>
