<svg width="59" height="58" viewBox="0 0 59 58" fill="none" xmlns="http://www.w3.org/2000/svg">
<path d="M15.2012 9.02173H43.2989V48.9773H39.1745V30.675H39.1341C38.6782 25.6167 34.427 21.6528 29.25 21.6528C24.0731 21.6528 19.8219 25.6167 19.366 30.675H19.3256V48.9773H15.2012V9.02173Z" fill="white"/>
<path d="M7.72461 14.6935L9.40017 20.3646H10.8179V43.3069C10.1061 43.3069 9.52905 43.8839 9.52905 44.5957V46.1424H9.27129C8.55946 46.1424 7.98236 46.7195 7.98236 47.4313V48.978H22.4179V47.4313C22.4179 46.7195 21.8409 46.1424 21.129 46.1424H20.8713V44.5957C20.8713 43.8839 20.2942 43.3069 19.5824 43.3069H18.0357V14.6935H7.72461Z" fill="white"/>
<path d="M39.4313 43.3067C38.7194 43.3067 38.1423 43.8838 38.1423 44.5956V46.1423H37.8846C37.1727 46.1423 36.5957 46.7193 36.5957 47.4312V48.9779H51.0313V47.4312C51.0313 46.7193 50.4542 46.1423 49.7423 46.1423H49.4846V44.5956C49.4846 43.8838 48.9075 43.3067 48.1957 43.3067V20.3645H49.6135L51.289 14.6934H40.9779V43.3067H39.4313Z" fill="white"/>
</svg>
