<svg width="25" height="34" viewBox="0 0 25 34" fill="none" xmlns="http://www.w3.org/2000/svg">
<path fill-rule="evenodd" clip-rule="evenodd" d="M21.3437 8.98289C20.6797 12.0306 20.6418 12.3607 19.6712 11.623C18.8538 10.9983 18.4174 10.5512 17.7797 10.1419C17.5528 9.997 17.2437 10.0118 17.0437 10.1948C16.7877 10.4142 16.4097 10.7526 15.9626 11.189C14.6125 12.4642 14.3926 12.5141 14.0282 11.728C13.5976 10.799 13.8066 10.1187 14.7965 9.25008C15.8051 8.3693 15.8018 8.38472 14.9237 7.66661C14.0148 6.94194 13.6196 6.1493 13.7768 5.40967C14.2321 3.26781 15.0277 4.67702 22.3384 1.04509C24.0479 0.20056 25.1414 -0.549424 24.4957 1.50362C24.2024 2.50424 23.3862 4.60158 21.3437 8.98289ZM11.2522 15.6957C9.23812 17.9733 7.78132 18.6139 7.49651 17.3777C7.24058 16.3086 7.3878 16.1467 9.87147 14.3876C12.0936 12.7985 13.0159 13.6871 11.2522 15.6957ZM4.9421 20.9093C3.5739 21.8908 0.0712949 23.5943 -0.390976 23.496C-1.50043 23.2602 -1.20118 21.2462 0.0150098 20.8283C0.852902 20.5233 3.9903 18.871 4.51443 18.4509C5.15722 17.9273 5.73267 18.6294 5.68406 19.843C5.66285 20.3217 5.5531 20.4594 4.9421 20.9093ZM-0.385931 19.2292C-0.997746 20.5164 -1.69897 18.9662 -1.31018 17.2129C-0.8765 15.3241 -1.11203 14.6137 -2.561 13.3233C-3.65847 12.3492 -3.60332 11.1047 -2.48039 11.5045C-0.366676 12.2437 0.819015 16.6669 -0.385931 19.2292ZM-4.33769 24.1066C-5.54078 24.4629 -8.85522 22.8565 -9.36 21.6701C-9.85592 20.5179 -9.40631 19.6149 -8.63838 20.2452C-8.00818 20.7657 -6.60655 21.3696 -5.45087 21.6153C-3.9562 21.933 -3.1346 23.7503 -4.33769 24.1066ZM-7.64786 29.072C-9.06481 30.5102 -12.8517 31.96 -13.6911 31.3628C-14.7452 30.6395 -14.1927 29.4041 -12.5455 28.8523C-11.956 28.6555 -10.8323 28.218 -10.0561 27.8998C-7.01595 26.6295 -7.13364 26.6528 -6.98729 27.3281C-6.84093 28.0035 -6.991 28.4064 -7.64786 29.072ZM-6.54889 12.9911C-8.2613 14.0765 -9.91541 16.4789 -10.0328 18.0162C-10.1155 19.2387 -10.9356 18.3236 -11.0293 16.8703C-11.2243 14.0748 -6.9578 9.23215 -5.82936 10.9698C-5.34401 11.7172 -5.5773 12.3601 -6.54889 12.9911ZM-18.1071 32.9689C-19.8283 34.0202 -23.6623 34.2521 -24.0808 33.3418C-24.6496 32.0774 -24.2291 31.5387 -22.6217 31.4777C-20.7855 31.401 -18.4933 30.9219 -18.0311 31.0201C-17.2298 31.1905 -17.2915 32.4658 -18.1071 32.9689ZM-28.1152 33.5311C-30.8781 34.1034 -36.3028 32.4994 -36.4955 31.0573C-36.6292 30.0948 -36.4839 30.0934 -32.4855 30.8306C-30.4879 31.2069 -28.6037 31.5108 -28.2979 31.5113C-27.059 31.517 -26.8855 33.2771 -28.1152 33.5311Z" fill="#BABABA" fill-opacity="0.39"/>
</svg>
