<svg width="102" height="101" viewBox="0 0 102 101" fill="none" xmlns="http://www.w3.org/2000/svg">
<path d="M75.1315 50.8268C75.4684 49.9341 74.4912 49.4456 71.7456 49.1424C70.4485 48.9908 68.2421 48.6876 66.844 48.4518C63.3909 47.8622 62.4139 48.0475 63.3403 49.075C64.4015 50.2373 74.7609 51.787 75.1315 50.8268Z" fill="#BFBFBF"/>
<path d="M60.3943 49.1762C61.9103 49.3784 62.2809 47.5086 55.4252 46.6327C50.9277 46.06 49.4284 46.1105 49.4284 46.8685C49.4284 48.3003 56.419 48.6372 60.3943 49.1762Z" fill="#BFBFBF"/>
<path d="M91.2843 48.6207C91.4695 48.5533 90.6273 49.5135 89.4145 50.76C86.8036 53.4551 86.1635 54.2973 86.5004 54.7016C86.9047 55.1901 88.067 55.5101 88.5891 55.2911C88.7744 55.2069 89.6503 54.3984 90.5431 53.4888C92.4297 51.5348 95.5796 48.6039 97.0114 47.4584C98.999 45.8751 99.3529 45.4876 99.1676 45.2013C98.7297 44.4938 98.3086 44.4433 92.2109 44.4938C87.5786 44.5275 85.9784 44.477 84.3782 44.258C80.6385 43.7527 80.3018 43.719 79.847 43.8032C76.9498 44.3591 83.6202 45.9928 89.061 46.0602C90.1558 46.077 90.9812 46.1446 90.9138 46.2119C90.6612 46.4478 85.0688 48.0985 81.8347 48.9071C78.2468 49.8167 77.8929 49.9346 77.8929 50.4062C77.8929 52.2928 83.6706 51.518 91.2843 48.6207Z" fill="#BFBFBF"/>
<path d="M2.04492 57.0096C2.51657 57.4138 2.80293 57.4475 3.67884 57.1949C5.06009 56.7906 9.84375 53.6744 9.84375 53.1859C9.84375 51.5183 5.00955 52.9837 2.73555 55.342C1.67435 56.42 1.60697 56.6222 2.04492 57.0096Z" fill="#BFBFBF"/>
<path d="M16.8342 51.4512C22.6623 49.3119 22.3423 49.4972 21.7191 48.7561C20.8095 47.678 15.4362 48.7392 13.4486 50.39C11.9326 51.6196 14.3075 52.3776 16.8342 51.4512Z" fill="#BFBFBF"/>
<path d="M44.3264 47.5441C46.8025 47.4262 46.9204 47.3755 46.5498 46.7354C45.8255 45.4215 38.4308 44.9838 37.2348 46.1797C36.0052 47.4094 38.2287 47.8473 44.3264 47.5441Z" fill="#BFBFBF"/>
<path d="M27.9512 48.4525C28.0354 48.4188 29.5179 48.1156 31.2192 47.7955C34.8239 47.1218 35.1271 46.9365 33.7459 46.229C32.1962 45.4373 24.4981 46.7343 24.4981 47.7955C24.4981 48.4019 26.9405 48.8736 27.9512 48.4525Z" fill="#BFBFBF"/>
</svg>
