<svg width="77" height="78" viewBox="0 0 77 78" fill="none" xmlns="http://www.w3.org/2000/svg">
<g clip-path="url(#clip0_300_132)">
<path fill-rule="evenodd" clip-rule="evenodd" d="M13.2344 26.304C15.7736 24.4925 16.0235 24.2735 16.2468 25.472C16.4326 26.4839 16.4555 27.1082 16.6529 27.8398C16.7236 28.0996 16.9626 28.2963 17.2336 28.2951C17.5706 28.3046 18.0779 28.3078 18.7023 28.2849C20.5591 28.2473 20.7555 28.3581 20.4973 29.1852C20.1922 30.1626 19.5803 30.5261 18.2635 30.5046C16.9247 30.4794 16.9375 30.4702 17.1055 31.592C17.2919 32.7394 17.0521 33.592 16.4388 34.0343C14.6627 35.3149 15.0201 33.7366 7.16486 31.5155C5.33123 30.9926 4.01739 30.8135 5.87497 29.7266C6.76438 29.1824 8.77801 28.1772 13.2344 26.304ZM25.2191 28.1111C28.2411 27.7772 29.7505 28.2814 29.131 29.3884C28.6024 30.3522 28.3845 30.3733 25.3631 30.0077C22.6495 29.692 22.5632 28.4142 25.2191 28.1111ZM33.3957 28.4885C35.0685 28.6807 38.8074 29.7719 39.0838 30.1552C39.7472 31.0753 38.1725 32.366 36.9909 31.8585C36.1653 31.5216 32.7313 30.6378 32.0609 30.5968C31.233 30.5529 31.2784 29.6462 32.1297 28.7799C32.467 28.4396 32.6408 28.4113 33.3957 28.4885ZM36.2136 33.3124C37.5315 32.7699 37.0095 34.3893 35.5436 35.4269C33.9535 36.5346 33.6507 37.219 33.8571 39.1483C34.0156 40.6071 33.1387 41.4919 32.5755 40.4414C31.5064 38.4739 33.5997 34.4009 36.2136 33.3124ZM42.4174 32.3544C43.5479 32.8988 44.9238 36.3153 44.5007 37.5332C44.094 38.7199 43.1543 39.0866 43.0089 38.1039C42.8918 37.295 42.2593 35.906 41.5683 34.9477C40.6746 33.7082 41.2869 31.8101 42.4174 32.3544ZM48.2052 30.9002C50.2209 30.7868 53.9999 32.257 54.2205 33.2632C54.5154 34.5072 53.2762 35.0511 51.6853 34.3532C51.1165 34.103 49.9902 33.6721 49.2015 33.3863C46.0962 32.2849 46.199 32.3467 46.5443 31.7482C46.8896 31.1496 47.2714 30.952 48.2052 30.9002ZM36.5878 42.0735C38.5855 42.4199 41.4247 41.7516 42.5444 40.6918C43.4269 39.8418 43.4196 41.0706 42.5127 42.21C40.7791 44.4117 34.3654 45.1325 34.6969 43.0873C34.8395 42.2077 35.4443 41.8881 36.5878 42.0735ZM58.5705 35.0403C60.5518 35.4178 63.5475 37.8218 63.2459 38.7773C62.8178 40.0959 62.1444 40.2124 60.9128 39.1778C59.5011 38.001 57.4814 36.816 57.205 36.4327C56.7259 35.7682 57.6284 34.865 58.5705 35.0403ZM66.3615 41.3473C68.7925 42.7796 71.7332 47.612 70.9071 48.8097C70.3595 49.6124 70.251 49.5159 67.7844 46.2837C66.5575 44.6629 65.3661 43.1721 65.1399 42.9661C64.226 42.1297 65.28 40.7094 66.3615 41.3473Z" fill="#48B17D" fill-opacity="0.66"/>
</g>
<defs>
<clipPath id="clip0_300_132">
<rect width="55.1365" height="55.1365" fill="white" transform="matrix(-0.811132 0.584863 0.584863 0.811132 44.7227 0.804688)"/>
</clipPath>
</defs>
</svg>
