<svg width="78" height="78" viewBox="0 0 78 78" fill="none" xmlns="http://www.w3.org/2000/svg">
<g clip-path="url(#clip0_1_2389)">
<path fill-rule="evenodd" clip-rule="evenodd" d="M13.7485 26.304C16.2878 24.4925 16.5377 24.2735 16.7609 25.472C16.9468 26.4839 16.9697 27.1082 17.167 27.8398C17.2378 28.0996 17.4767 28.2963 17.7478 28.2951C18.0848 28.3046 18.5921 28.3078 19.2165 28.2849C21.0732 28.2473 21.2696 28.3581 21.0115 29.1852C20.7063 30.1626 20.0945 30.5261 18.7777 30.5046C17.4389 30.4794 17.4516 30.4702 17.6196 31.592C17.806 32.7394 17.5663 33.592 16.953 34.0343C15.1768 35.3149 15.5342 33.7366 7.67902 31.5155C5.84539 30.9926 4.53155 30.8135 6.38913 29.7266C7.27855 29.1824 9.29217 28.1772 13.7485 26.304ZM25.7333 28.1111C28.7552 27.7772 30.2647 28.2814 29.6451 29.3884C29.1165 30.3522 28.8987 30.3733 25.8772 30.0077C23.1637 29.692 23.0774 28.4142 25.7333 28.1111ZM33.9098 28.4885C35.5827 28.6807 39.3216 29.7719 39.598 30.1552C40.2613 31.0753 38.6867 32.366 37.5051 31.8585C36.6795 31.5216 33.2455 30.6378 32.5751 30.5968C31.7471 30.5529 31.7926 29.6462 32.6439 28.7799C32.9812 28.4396 33.155 28.4113 33.9098 28.4885ZM36.7278 33.3124C38.0457 32.7699 37.5237 34.3893 36.0578 35.4269C34.4677 36.5346 34.1649 37.219 34.3713 39.1483C34.5298 40.6071 33.6529 41.4919 33.0896 40.4414C32.0205 38.4739 34.1139 34.4009 36.7278 33.3124ZM42.9316 32.3544C44.0621 32.8988 45.438 36.3153 45.0149 37.5332C44.6082 38.7199 43.6685 39.0866 43.5231 38.1039C43.406 37.295 42.7735 35.906 42.0824 34.9477C41.1887 33.7082 41.8011 31.8101 42.9316 32.3544ZM48.7193 30.9002C50.7351 30.7868 54.5141 32.257 54.7347 33.2632C55.0296 34.5072 53.7903 35.0511 52.1995 34.3532C51.6307 34.103 50.5044 33.6721 49.7156 33.3863C46.6104 32.2849 46.7132 32.3467 47.0585 31.7482C47.4037 31.1496 47.7856 30.952 48.7193 30.9002ZM37.102 42.0735C39.0996 42.4199 41.9388 41.7516 43.0585 40.6918C43.9411 39.8418 43.9337 41.0706 43.0268 42.21C41.2933 44.4117 34.8796 45.1325 35.2111 43.0873C35.3537 42.2077 35.9584 41.8881 37.102 42.0735ZM59.0846 35.0403C61.066 35.4178 64.0617 37.8218 63.7601 38.7773C63.332 40.0959 62.6586 40.2124 61.427 39.1778C60.0153 38.001 57.9956 36.816 57.7192 36.4327C57.2401 35.7682 58.1426 34.865 59.0846 35.0403ZM66.8756 41.3473C69.3066 42.7796 72.2473 47.612 71.4213 48.8097C70.8736 49.6124 70.7651 49.5159 68.2986 46.2837C67.0717 44.6629 65.8802 43.1721 65.6541 42.9661C64.7402 42.1297 65.7941 40.7094 66.8756 41.3473Z" fill="#F5DA7F" fill-opacity="0.39"/>
</g>
<defs>
<clipPath id="clip0_1_2389">
<rect width="55.1365" height="55.1365" fill="white" transform="matrix(-0.811132 0.584863 0.584863 0.811132 45.2378 0.804688)"/>
</clipPath>
</defs>
</svg>
