<svg width="47" height="72" viewBox="0 0 47 72" fill="none" xmlns="http://www.w3.org/2000/svg">
<g clip-path="url(#clip0_472_12174)">
<path fill-rule="evenodd" clip-rule="evenodd" d="M62.1212 44.7078C63.461 42.4159 59.1682 31.2147 57.5904 32.8269C56.4309 34.0009 56.8376 35.6986 60.2548 44.0967C61.0258 46.0613 61.279 46.1485 62.1212 44.7078ZM56.3071 30.3398C57.5307 28.3854 51.5333 19.2562 49.6424 20.1784C48.3755 20.7963 49.2106 22.9403 52.5801 27.5933C55.4207 31.4977 55.5327 31.5835 56.3071 30.3398ZM26.8864 34.086C28.5573 32.5689 24.8205 31.7699 21.1219 32.8248C20.2442 33.089 19.4899 33.2697 19.4148 33.2595C19.2741 33.2111 22.116 30.3036 25.4888 26.9967C30.8755 21.7245 29.755 19.9069 24.5089 25.2276C20.4508 29.3369 17.8375 31.9456 17.6862 32.0194C17.5916 32.0655 17.6329 31.7177 17.7316 31.2483C19.2843 24.5457 19.4719 22.6753 18.6077 22.535C17.3211 22.2965 16.2972 24.0365 15.4982 27.7733C14.2951 33.3691 13.8004 34.8977 12.1626 37.8265C11.521 38.9587 12.5481 38.8088 15.1026 37.3757C18.9816 35.2029 21.3396 34.6146 24.2713 35.0104C25.2388 35.1705 25.9751 34.905 26.8864 34.086ZM35.5912 16.7561C33.6058 17.7245 33.5159 18.2599 32.9463 19.7314L33.5002 19.8592C33.8192 19.9376 34.9315 19.7228 36.1394 19.3678C38.876 18.548 41.3119 18.6473 44.2181 19.7109C44.5838 19.8368 44.9218 19.906 44.9882 19.8502C49.8962 16.3798 41.207 14.0171 35.5912 16.7561Z" fill="black"/>
</g>
<defs>
<clipPath id="clip0_472_12174">
<rect width="52.5942" height="52.5942" fill="white" transform="translate(70.8203 48.1929) rotate(154)"/>
</clipPath>
</defs>
</svg>
