<svg width="69" height="70" viewBox="0 0 69 70" fill="none" xmlns="http://www.w3.org/2000/svg">
<path fill-rule="evenodd" clip-rule="evenodd" d="M9.23631 22.304C11.7756 20.4925 12.0255 20.2735 12.2487 21.472C12.4346 22.4839 12.4574 23.1082 12.6548 23.8398C12.7256 24.0996 12.9645 24.2963 13.2356 24.2951C13.5726 24.3046 14.0799 24.3078 14.7042 24.2849C16.561 24.2473 16.7574 24.3581 16.4993 25.1852C16.1941 26.1626 15.5823 26.5261 14.2655 26.5046C12.9267 26.4794 12.9394 26.4702 13.1074 27.592C13.2938 28.7394 13.0541 29.592 12.4407 30.0343C10.6646 31.3149 11.022 29.7366 3.16681 27.5155C1.33318 26.9926 0.0193402 26.8135 1.87692 25.7266C2.76634 25.1824 4.77996 24.1772 9.23631 22.304ZM21.221 24.1111C24.243 23.7772 25.7524 24.2814 25.1329 25.3884C24.6043 26.3522 24.3864 26.3733 21.365 26.0077C18.6514 25.692 18.5652 24.4142 21.221 24.1111ZM29.3976 24.4885C31.0705 24.6807 34.8094 25.7719 35.0858 26.1552C35.7491 27.0753 34.1745 28.366 32.9929 27.8585C32.1673 27.5216 28.7333 26.6378 28.0629 26.5968C27.2349 26.5529 27.2803 25.6462 28.1317 24.7799C28.469 24.4396 28.6428 24.4113 29.3976 24.4885ZM32.2155 29.3124C33.5335 28.7699 33.0115 30.3893 31.5456 31.4269C29.9555 32.5346 29.6527 33.219 29.8591 35.1483C30.0176 36.6071 29.1407 37.4919 28.5774 36.4414C27.5083 34.4739 29.6016 30.4009 32.2155 29.3124ZM38.4194 28.3544C39.5499 28.8988 40.9258 32.3153 40.5027 33.5332C40.0959 34.7199 39.1563 35.0866 39.0109 34.1039C38.8938 33.295 38.2612 31.906 37.5702 30.9477C36.6765 29.7082 37.2889 27.8101 38.4194 28.3544ZM44.2071 26.9002C46.2229 26.7868 50.0019 28.257 50.2225 29.2632C50.5173 30.5072 49.2781 31.0511 47.6873 30.3532C47.1185 30.103 45.9922 29.6721 45.2034 29.3863C42.0981 28.2849 42.201 28.3467 42.5463 27.7482C42.8915 27.1496 43.2734 26.952 44.2071 26.9002ZM32.5898 38.0735C34.5874 38.4199 37.4266 37.7516 38.5463 36.6918C39.4289 35.8418 39.4215 37.0706 38.5146 38.21C36.7811 40.4117 30.3674 41.1325 30.6989 39.0873C30.8415 38.2077 31.4462 37.8881 32.5898 38.0735ZM54.5724 31.0403C56.5537 31.4178 59.5495 33.8218 59.2479 34.7773C58.8198 36.0959 58.1464 36.2124 56.9148 35.1778C55.5031 34.001 53.4834 32.816 53.207 32.4327C52.7279 31.7682 53.6304 30.865 54.5724 31.0403ZM62.3634 37.3473C64.7944 38.7796 67.7351 43.612 66.909 44.8097C66.3614 45.6124 66.2529 45.5159 63.7864 42.2837C62.5595 40.6629 61.368 39.1721 61.1419 38.9661C60.228 38.1297 61.2819 36.7094 62.3634 37.3473Z" fill="white" fill-opacity="0.66"/>
</svg>
