<svg width="72" height="92" viewBox="0 0 72 92" fill="none" xmlns="http://www.w3.org/2000/svg">
<g clip-path="url(#clip0_472_12171)">
<path fill-rule="evenodd" clip-rule="evenodd" d="M-15.1223 29.1396C-17.3945 33.7693 -8.12395 69.4391 11.2085 76.1227C18.6854 78.7146 33.3901 72.1675 48.6236 59.5138C51.1353 57.4268 52.845 55.9746 55.5606 54.319C55.7295 54.2075 55.0535 55.5595 54.0274 57.3368C51.598 61.5446 51.007 63.9564 52.0617 65.4191C52.5808 66.1196 52.9132 65.8759 53.5958 64.3011C55.5438 59.7804 58.5356 55.7753 63.6915 50.859C65.714 48.9252 66.6471 45.3171 59.8243 47.1453C54.0528 48.6917 50.4477 49.1717 44.7058 49.0974C40.9833 49.0565 39.5616 51.0061 42.2465 52.4517C43.1764 52.9537 47.1176 53.0686 51.2218 52.72L53.3151 52.5347C47.1121 57.6653 46.7399 58.0081 41.5031 61.7973C29.0446 70.7912 18.7711 74.5823 12.4673 72.4936C-3.46676 67.197 -10.2958 43.1122 -14.2786 28.8252C-14.3835 28.4335 -14.8673 28.6073 -15.1223 29.1396Z" fill="black"/>
</g>
<defs>
<clipPath id="clip0_472_12171">
<rect width="74.6894" height="74.6894" fill="white" transform="translate(-19.6914 19.603) rotate(-15)"/>
</clipPath>
</defs>
</svg>
