<svg width="77" height="44" viewBox="0 0 77 44" fill="none" xmlns="http://www.w3.org/2000/svg">
<g clip-path="url(#clip0_1_2348)">
<path d="M56.4852 14.5014H55.7624C52.8018 14.5014 50.3804 16.9237 50.3804 19.8833V24.1049C50.3804 27.0654 52.8027 29.4869 55.7624 29.4869H56.4852C59.4457 29.4869 61.867 27.0646 61.867 24.1049V19.8833C61.867 16.9227 59.4449 14.5014 56.4852 14.5014ZM59.2331 23.6428C59.2331 25.3529 57.8337 26.7522 56.1237 26.7522C54.4138 26.7522 53.0145 25.3529 53.0145 23.6428V20.3463C53.0145 18.6364 54.4138 17.237 56.1237 17.237C57.8337 17.237 59.2331 18.6364 59.2331 20.3463V23.6428ZM59.2333 6.01953V7.66817C59.2333 9.37984 57.835 10.7782 56.1233 10.7782C54.4117 10.7782 53.0172 9.37984 53.0172 7.66817V6.01953H50.3804V8.13302C50.3804 11.0915 52.8025 13.5137 55.7611 13.5137H56.4847C59.4432 13.5137 61.8653 11.0915 61.8653 8.13302V6.01953H59.2333ZM59.2333 37.9726V36.3239C59.2333 34.6124 57.835 33.2141 56.1233 33.2141C54.4117 33.2141 53.0172 34.6124 53.0172 36.3239V37.9726H50.3804V35.8591C50.3804 32.9007 52.8025 30.4786 55.7611 30.4786H56.4847C59.4432 30.4786 61.8653 32.9007 61.8653 35.8591V37.9726H59.2333Z" fill="white" stroke="black" stroke-width="0.396461" stroke-linecap="round" stroke-linejoin="round"/>
<path d="M57.6351 10.9985C57.6351 10.1633 56.9583 9.4863 56.1235 9.4863C55.2886 9.4863 54.6118 10.1633 54.6118 10.9985V17.0011C54.6118 17.8363 55.2886 18.5133 56.1235 18.5133C56.9583 18.5133 57.6351 17.8363 57.6351 17.0011V10.9985ZM57.6351 26.9733C57.6351 26.138 56.9583 25.461 56.1235 25.461C55.2886 25.461 54.6118 26.138 54.6118 26.9733V32.9759C54.6118 33.8111 55.2886 34.4881 56.1235 34.4881C56.9583 34.4881 57.6351 33.8111 57.6351 32.9759V26.9733ZM70.6733 6.82422H69.9505C66.99 6.82422 64.5687 9.24651 64.5687 12.2062V16.4278C64.5687 19.3884 66.991 21.8098 69.9505 21.8098H70.6733C73.6341 21.8098 76.0553 19.3874 76.0553 16.4278V12.2062C76.0553 9.24556 73.633 6.82422 70.6733 6.82422ZM73.4212 15.9657C73.4212 17.6756 72.0218 19.075 70.312 19.075C68.602 19.075 67.2026 17.6756 67.2026 15.9657V12.6692C67.2026 10.9593 68.602 9.55988 70.312 9.55988C72.0218 9.55988 73.4212 10.9593 73.4212 12.6692V15.9657ZM70.6733 22.1833H69.9505C66.99 22.1833 64.5687 24.6056 64.5687 27.5653V31.7869C64.5687 34.7474 66.991 37.1687 69.9505 37.1687H70.6733C73.6341 37.1687 76.0553 34.7466 76.0553 31.7869V27.5653C76.0553 24.6045 73.633 22.1833 70.6733 22.1833ZM73.4212 31.3248C73.4212 33.0346 72.0218 34.434 70.312 34.434C68.602 34.434 67.2026 33.0346 67.2026 31.3248V28.0282C67.2026 26.3183 68.602 24.919 70.312 24.919C72.0218 24.919 73.4212 26.3183 73.4212 28.0282V31.3248Z" fill="white" stroke="black" stroke-width="0.396461" stroke-linecap="round" stroke-linejoin="round"/>
<path d="M71.8233 18.8113C71.8233 17.9762 71.1465 17.2991 70.3117 17.2991C69.4766 17.2991 68.7998 17.9762 68.7998 18.8113V24.8141C68.7998 25.6491 69.4766 26.3261 70.3117 26.3261C71.1465 26.3261 71.8233 25.6491 71.8233 24.8141V18.8113ZM71.8233 34.637C71.8233 33.8019 71.1465 33.1249 70.3117 33.1249C69.4766 33.1249 68.7998 33.8019 68.7998 34.637V36.4617C68.7998 37.2967 69.4766 37.9738 70.3117 37.9738C71.1465 37.9738 71.8233 37.2967 71.8233 36.4617V34.637ZM71.8233 7.52735C71.8233 6.69219 71.1465 6.01516 70.3117 6.01516C69.4766 6.01516 68.7998 6.69219 68.7998 7.52735V9.35194C68.7998 10.1871 69.4766 10.8641 70.3117 10.8641C71.1465 10.8641 71.8233 10.1871 71.8233 9.35194V7.52735ZM40.0192 18.3221C42.133 16.4154 43.4626 13.6553 43.4626 10.5846C43.4626 4.83188 38.7988 0.167969 33.046 0.167969C29.0728 0.167969 25.62 2.39171 23.8631 5.66285H19.7675C18.0106 2.39171 14.5578 0.167969 10.5846 0.167969C4.83188 0.167969 0.167969 4.83188 0.167969 10.5846C0.167969 13.6553 1.49674 16.4154 3.61133 18.3221C2.71543 21.805 1.81954 25.2868 0.924576 28.7699H5.84917C6.87495 31.3435 8.80977 33.4562 11.2584 34.7107C11.537 36.303 12.5082 37.6553 13.852 38.4459C14.8185 41.5626 17.7235 43.8258 21.1584 43.8258H22.474C25.908 43.8258 28.8139 41.5626 29.7804 38.4459C31.1244 37.6553 32.0965 36.303 32.374 34.7107C34.8218 33.4572 36.7575 31.3435 37.7834 28.7699H42.708C41.812 25.2868 40.916 21.805 40.0211 18.3221H40.0192Z" fill="white" stroke="black" stroke-width="0.396461" stroke-linecap="round" stroke-linejoin="round"/>
</g>
<defs>
<clipPath id="clip0_1_2348">
<rect width="76.2233" height="44" fill="white"/>
</clipPath>
</defs>
</svg>
