<svg width="18" height="18" viewBox="0 0 18 18" fill="none" xmlns="http://www.w3.org/2000/svg">
<g clip-path="url(#clip0_470_12053)">
<path d="M16.716 8.35882H11.5731C11.4026 8.35882 11.2391 8.42655 11.1185 8.54711C10.998 8.66766 10.9302 8.83118 10.9302 9.00167V16.716C10.9302 16.8865 10.998 17.05 11.1185 17.1705C11.2391 17.2911 11.4026 17.3588 11.5731 17.3588H16.716C16.8865 17.3588 17.05 17.2911 17.1705 17.1705C17.2911 17.05 17.3588 16.8865 17.3588 16.716V9.00167C17.3588 8.83118 17.2911 8.66766 17.1705 8.54711C17.05 8.42655 16.8865 8.35882 16.716 8.35882ZM16.716 0.644531H11.5731C11.4026 0.644531 11.2391 0.712261 11.1185 0.83282C10.998 0.953379 10.9302 1.11689 10.9302 1.28739V3.87167C10.9302 4.04217 10.998 4.20568 11.1185 4.32624C11.2391 4.4468 11.4026 4.51453 11.5731 4.51453H16.716C16.8865 4.51453 17.05 4.4468 17.1705 4.32624C17.2911 4.20568 17.3588 4.04217 17.3588 3.87167V1.28739C17.3588 1.11689 17.2911 0.953379 17.1705 0.83282C17.05 0.712261 16.8865 0.644531 16.716 0.644531ZM6.43025 0.644531H1.28739C1.11689 0.644531 0.953379 0.712261 0.83282 0.83282C0.712261 0.953379 0.644531 1.11689 0.644531 1.28739V9.00167C0.644531 9.17217 0.712261 9.33568 0.83282 9.45624C0.953379 9.5768 1.11689 9.64453 1.28739 9.64453H6.43025C6.60074 9.64453 6.76425 9.5768 6.88481 9.45624C7.00537 9.33568 7.0731 9.17217 7.0731 9.00167V1.28739C7.0731 1.11689 7.00537 0.953379 6.88481 0.83282C6.76425 0.712261 6.60074 0.644531 6.43025 0.644531ZM6.43025 13.4888H1.28739C1.11689 13.4888 0.953379 13.5565 0.83282 13.6771C0.712261 13.7977 0.644531 13.9612 0.644531 14.1317V16.716C0.644531 16.8865 0.712261 17.05 0.83282 17.1705C0.953379 17.2911 1.11689 17.3588 1.28739 17.3588H6.43025C6.60074 17.3588 6.76425 17.2911 6.88481 17.1705C7.00537 17.05 7.0731 16.8865 7.0731 16.716V14.1317C7.0731 13.9612 7.00537 13.7977 6.88481 13.6771C6.76425 13.5565 6.60074 13.4888 6.43025 13.4888Z" stroke="black" stroke-width="2" stroke-linecap="round" stroke-linejoin="round"/>
</g>
<defs>
<clipPath id="clip0_470_12053">
<rect width="18" height="18" fill="white"/>
</clipPath>
</defs>
</svg>
