<svg width="24" height="24" viewBox="0 0 24 24" fill="none" xmlns="http://www.w3.org/2000/svg">
<path fill-rule="evenodd" clip-rule="evenodd" d="M9.00021 17C9.00026 17.1977 9.05893 17.391 9.16881 17.5554C9.2787 17.7198 9.43486 17.848 9.61756 17.9236C9.80026 17.9993 10.0013 18.0191 10.1952 17.9806C10.3892 17.942 10.5674 17.8468 10.7072 17.707L15.7072 12.707C15.8947 12.5194 16 12.2651 16 12C16 11.7348 15.8947 11.4805 15.7072 11.293L10.7072 6.29297C10.5674 6.15316 10.3892 6.05795 10.1952 6.01939C10.0013 5.98082 9.80026 6.00062 9.61756 6.07629C9.43486 6.15196 9.2787 6.2801 9.16881 6.44451C9.05893 6.60892 9.00026 6.80222 9.00021 6.99997L9.00021 17Z" fill="#C4C4C4"/>
</svg>
