<svg width="26" height="26" viewBox="0 0 26 26" fill="none" xmlns="http://www.w3.org/2000/svg">
<path fill-rule="evenodd" clip-rule="evenodd" d="M12.0625 5.96375C12.0625 4.91563 11.1525 4.0625 10.0312 4.0625C8.91 4.0625 8 4.91563 8 5.96375C8 7.0135 8.91 7.865 10.0312 7.865C11.1525 7.865 12.0625 7.0135 12.0625 5.96375ZM12.0625 20.0363C12.0625 18.9865 11.1525 18.135 10.0312 18.135C8.91 18.135 8 18.9865 8 20.0363C8 21.0844 8.91 21.9375 10.0312 21.9375C11.1525 21.9375 12.0625 21.0844 12.0625 20.0363ZM10.0312 11.0988C11.1525 11.0988 12.0625 11.9519 12.0625 13C12.0625 14.0481 11.1525 14.9012 10.0312 14.9012C8.91 14.9012 8 14.0481 8 13C8 11.9519 8.91 11.0988 10.0312 11.0988ZM18.1562 5.96375C18.1562 4.91563 17.2463 4.0625 16.125 4.0625C15.0037 4.0625 14.0938 4.91563 14.0938 5.96375C14.0938 7.0135 15.0037 7.865 16.125 7.865C17.2463 7.865 18.1562 7.0135 18.1562 5.96375ZM16.125 18.135C17.2463 18.135 18.1562 18.9865 18.1562 20.0363C18.1562 21.0844 17.2463 21.9375 16.125 21.9375C15.0037 21.9375 14.0938 21.0844 14.0938 20.0363C14.0938 18.9865 15.0037 18.135 16.125 18.135ZM18.1562 13C18.1562 11.9519 17.2463 11.0988 16.125 11.0988C15.0037 11.0988 14.0938 11.9519 14.0938 13C14.0938 14.0481 15.0037 14.9012 16.125 14.9012C17.2463 14.9012 18.1562 14.0481 18.1562 13Z" fill="#6E6E6E"/>
</svg>
