<svg width="24" height="24" viewBox="0 0 24 24" fill="none" xmlns="http://www.w3.org/2000/svg">
<path d="M5.83484 2.46834L3.48984 4.81284C3.33496 4.9666 3.21197 5.14944 3.12791 5.35085C3.04385 5.55226 3.00038 5.76829 3 5.98653C2.99962 6.20478 3.04233 6.42096 3.12569 6.62266C3.20904 6.82437 3.3314 7.00763 3.48574 7.16194C3.64008 7.31624 3.82337 7.43856 4.02509 7.52187C4.22681 7.60519 4.443 7.64785 4.66125 7.64742C4.87949 7.647 5.09551 7.60348 5.2969 7.51938C5.4983 7.43528 5.6811 7.31225 5.83484 7.15734L8.17934 4.81234C8.48248 4.49979 8.65051 4.08055 8.64713 3.64516C8.64376 3.20977 8.46926 2.79318 8.16132 2.48537C7.85337 2.17756 7.43671 2.00323 7.00132 2.00004C6.56593 1.99686 6.14726 2.16507 5.83484 2.46834ZM10.9148 6.76684L7.78884 9.89284C7.63487 10.0468 7.51273 10.2296 7.4294 10.4308C7.34607 10.632 7.30317 10.8476 7.30317 11.0653C7.30317 11.2831 7.34607 11.4987 7.4294 11.6999C7.51273 11.9011 7.63487 12.0839 7.78884 12.2378C7.94282 12.3918 8.12561 12.514 8.32679 12.5973C8.52797 12.6806 8.74359 12.7235 8.96134 12.7235C9.17909 12.7235 9.39472 12.6806 9.59589 12.5973C9.79707 12.514 9.97987 12.3918 10.1338 12.2378L13.2598 9.11134C13.5708 8.80037 13.7455 8.37861 13.7455 7.93884C13.7455 7.49906 13.5708 7.0773 13.2598 6.76634C12.9489 6.45537 12.5271 6.28067 12.0873 6.28067C11.6476 6.28067 11.2258 6.45587 10.9148 6.76684Z" stroke="white" stroke-width="1.6"/>
<path d="M12.8673 9.50211L19.7523 16.3871C20.2663 16.9011 20.1578 17.8421 19.5108 18.4901C18.8633 19.1376 17.9218 19.2456 17.4078 18.7321L10.5228 11.8471M9.74132 3.25011L4.27082 8.72061C3.95986 9.03157 3.78516 9.45333 3.78516 9.89311C3.78516 10.3329 3.95986 10.7546 4.27082 11.0656C4.58179 11.3766 5.00355 11.5513 5.44332 11.5513C5.88309 11.5513 6.30486 11.3766 6.61582 11.0656L12.0858 5.59461C12.2407 5.44087 12.3638 5.25806 12.4479 5.05667C12.532 4.85528 12.5755 4.63926 12.5759 4.42101C12.5763 4.20276 12.5337 3.98658 12.4504 3.78486C12.367 3.58314 12.2447 3.39985 12.0904 3.24551C11.9361 3.09117 11.7529 2.96881 11.5511 2.88545C11.3494 2.8021 11.1333 2.75939 10.915 2.75977C10.6968 2.76015 10.4807 2.80362 10.2793 2.88767C10.0779 2.97173 9.89509 3.09523 9.74132 3.25011Z" stroke="white" stroke-width="1.6"/>
<path d="M5.4571 11.6172C6.1691 13.8357 6.0506 15.4747 5.1021 16.5342C3.6786 18.1237 3.8996 22.1172 7.1151 22.1172C10.3306 22.1172 11.2751 18.1237 8.5511 16.7222" stroke="white" stroke-width="1.6" stroke-linecap="round"/>
</svg>
