<svg width="16" height="16" viewBox="0 0 16 16" fill="none" xmlns="http://www.w3.org/2000/svg">
<path d="M3.06827 6.7877V7.74503M12.9423 7.21503V8.17236M10.1213 7.86036V10.286M8.7106 8.71503V11.7187M7.29994 7.5307V10.3534M5.88927 6.7877V9.13003M4.47894 5.70803V7.95603M11.5316 7.21503V9.1937M11.6906 14.1654H4.3146C3.65722 14.1654 3.02676 13.9042 2.56192 13.4394C2.09708 12.9745 1.83594 12.3441 1.83594 11.6867V4.3107C1.83594 3.65331 2.09708 3.02286 2.56192 2.55802C3.02676 2.09318 3.65722 1.83203 4.3146 1.83203H11.6906C12.348 1.83203 12.9784 2.09318 13.4433 2.55802C13.9081 3.02286 14.1693 3.65331 14.1693 4.3107V11.6867C14.1693 12.3441 13.9081 12.9745 13.4433 13.4394C12.9784 13.9042 12.348 14.1654 11.6906 14.1654Z" stroke="white" stroke-linecap="round" stroke-linejoin="round"/>
<path d="M8.70703 12C8.8451 12 8.95703 11.8881 8.95703 11.75C8.95703 11.6119 8.8451 11.5 8.70703 11.5C8.56896 11.5 8.45703 11.6119 8.45703 11.75C8.45703 11.8881 8.56896 12 8.70703 12Z" fill="#F5D011"/>
</svg>
