<svg width="16" height="16" viewBox="0 0 16 16" fill="none" xmlns="http://www.w3.org/2000/svg">
<path d="M8.70703 12C8.8451 12 8.95703 11.8881 8.95703 11.75C8.95703 11.6119 8.8451 11.5 8.70703 11.5C8.56896 11.5 8.45703 11.6119 8.45703 11.75C8.45703 11.8881 8.56896 12 8.70703 12Z" fill="#F5D011"/>
<path fill-rule="evenodd" clip-rule="evenodd" d="M4.35749 2.16797C4.16539 2.16803 3.97627 2.21553 3.80694 2.30624C3.63761 2.39696 3.4933 2.52808 3.38682 2.68797L0.994154 6.27597C0.848154 6.49597 0.83082 6.7773 0.94882 7.0133C2.25821 9.63201 4.07786 11.9626 6.30082 13.868L7.46749 14.8686C7.61611 14.996 7.8054 15.0661 8.00115 15.0661C8.1969 15.0661 8.3862 14.996 8.53482 14.8686L9.70149 13.8686C11.9248 11.9631 13.7447 9.63232 15.0542 7.0133C15.1722 6.7773 15.1542 6.49597 15.0082 6.27597L12.6142 2.68797C12.5077 2.5283 12.3634 2.39736 12.1942 2.30677C12.025 2.21618 11.8361 2.16873 11.6442 2.16864L4.35749 2.16797ZM4.21882 3.24197C4.23406 3.21918 4.25469 3.2005 4.27888 3.1876C4.30307 3.17469 4.33007 3.16795 4.35749 3.16797H5.91749L4.64082 6.23197C4.61158 6.30207 4.58925 6.37486 4.57415 6.4493C4.10465 6.41425 3.6357 6.37202 3.16749 6.32264L2.23082 6.22464L4.21882 3.24197ZM2.18749 7.2253C3.38376 9.42001 4.96283 11.3831 6.85015 13.022L4.76682 7.46597C4.19842 7.42692 3.63077 7.37758 3.06415 7.31797L2.18749 7.2253ZM5.85815 7.52797L8.00082 13.244L10.1442 7.52797C8.716 7.59289 7.28564 7.59289 5.85749 7.52797M11.2355 7.46597L9.15215 13.022C11.0395 11.3831 12.6186 9.42001 13.8148 7.2253L12.9382 7.31797C12.3715 7.3773 11.8042 7.42663 11.2355 7.46597ZM13.7708 6.22464L12.8335 6.3233C12.3653 6.37269 11.8963 6.41492 11.4268 6.44997C11.412 6.37532 11.3899 6.3023 11.3608 6.23197L10.0842 3.16797H11.6442C11.6716 3.16795 11.6986 3.17469 11.7228 3.1876C11.7469 3.2005 11.7676 3.21918 11.7828 3.24197L13.7708 6.22464ZM10.3955 6.51464C8.80015 6.5973 7.20215 6.5973 5.60615 6.51464L7.00082 3.16797H9.00082L10.3955 6.51464Z" fill="white"/>
</svg>
