<svg width="31" height="28" viewBox="0 0 31 28" fill="none" xmlns="http://www.w3.org/2000/svg">
<path fill-rule="evenodd" clip-rule="evenodd" d="M13.8326 0.000596346C13.9328 -0.00264883 13.9813 0.0070869 13.9813 0.0362935C13.9813 0.0590097 13.8972 0.0914613 13.768 0.114178C13.6517 0.133649 13.5063 0.143384 13.4449 0.130403C13.3835 0.117423 13.3286 0.0882163 13.3221 0.0687452C13.3156 0.0395387 13.3673 0.0233126 13.4966 0.0168222C13.6 0.0103319 13.7518 0.00384152 13.8326 0.000596346ZM13.0765 0.0979516C13.0991 0.0947064 13.1185 0.107687 13.1185 0.123913C13.1185 0.143384 13.1218 0.166101 13.125 0.175836C13.1315 0.185572 12.7922 0.279682 12.3754 0.386773C11.9585 0.490618 11.587 0.578238 11.5514 0.578238C11.5159 0.578238 11.4092 0.545786 11.3155 0.503599C11.2218 0.464657 11.1475 0.425714 11.1475 0.415979C11.1475 0.406243 11.3188 0.351076 11.5256 0.292663C11.7356 0.237495 12.0522 0.172591 12.23 0.156365C12.4077 0.136894 12.6629 0.120668 12.7954 0.114178C12.9279 0.107687 13.0571 0.101197 13.0765 0.0979516ZM15.361 0.127159C15.6001 0.137976 15.8219 0.172591 16.0266 0.231004C16.1946 0.276437 16.4499 0.357565 16.592 0.409488C16.7342 0.461411 16.9992 0.571747 17.1801 0.656122C17.3643 0.737251 17.584 0.844342 17.6745 0.896265C17.7617 0.944942 17.8393 0.996866 17.849 1.01634C17.8554 1.03581 17.7262 1.05852 17.5161 1.0715C17.3287 1.08449 17.0121 1.11694 16.8182 1.1429C16.6243 1.1721 16.4046 1.20131 16.3335 1.2078C16.2625 1.21754 16.1397 1.23376 16.0589 1.2435C15.9199 1.26297 15.9006 1.25323 15.655 1.07799C15.5128 0.974149 15.3093 0.841097 15.2026 0.779439C15.096 0.717781 14.8698 0.597709 14.7018 0.513334C14.5338 0.42896 14.3399 0.344586 14.2721 0.325114C14.2074 0.302398 14.1493 0.266701 14.146 0.24074C14.1428 0.208288 14.2365 0.185571 14.5273 0.156365C14.7373 0.136894 14.9312 0.117423 14.9571 0.114178C14.9797 0.110932 15.1639 0.117423 15.361 0.127159ZM16.8861 0.269946C17.0089 0.292662 17.1736 0.328359 17.2544 0.351075C17.3352 0.373792 17.4224 0.393263 17.4483 0.399753C17.4741 0.406243 17.626 0.448431 17.7876 0.497108C17.9491 0.542541 18.2173 0.626916 18.3853 0.682084C18.5533 0.737252 18.7505 0.8054 18.8215 0.837852C18.8926 0.870304 19.0768 0.948188 19.2319 1.01309C19.3902 1.07799 19.5162 1.1429 19.5162 1.16237C19.5162 1.18184 19.4678 1.18833 19.4096 1.18184C19.3547 1.17211 19.1091 1.14939 18.87 1.12992C18.6309 1.1072 18.4112 1.08124 18.3853 1.06826C18.3595 1.05528 18.2561 0.996865 18.1591 0.944942C18.0622 0.889774 17.8651 0.785929 17.7229 0.714536C17.5808 0.643142 17.3707 0.549032 17.2544 0.503599C17.1381 0.458167 16.9604 0.393262 16.8602 0.360811C16.7568 0.328359 16.6728 0.286172 16.6696 0.266701C16.6663 0.237494 16.7245 0.240739 16.8861 0.269946ZM13.545 0.321869C13.5774 0.318624 13.6808 0.34783 13.7712 0.383527C13.8649 0.415979 14.0588 0.503598 14.201 0.571747C14.3431 0.643141 14.5467 0.753477 14.6533 0.821626C14.76 0.889775 14.9603 1.02607 15.0992 1.12667C15.2382 1.22727 15.3513 1.32138 15.3513 1.34085C15.3513 1.36033 15.2931 1.38953 15.2285 1.41225C15.1606 1.43172 15.012 1.46742 14.8957 1.49013C14.7793 1.51285 14.5176 1.57126 14.3141 1.61994C14.1105 1.66862 13.7809 1.75624 13.587 1.8114C13.3932 1.86657 13.1864 1.92499 13.1347 1.94121C13.0798 1.95744 13.0087 1.98015 12.9731 1.98989C12.9214 2.00612 12.8794 1.97366 12.7631 1.80491C12.6823 1.69458 12.44 1.41874 12.2235 1.19482C12.0038 0.970904 11.8261 0.779438 11.8261 0.766458C11.8261 0.750232 11.8745 0.727516 11.9295 0.71129C11.9876 0.691819 12.1524 0.646387 12.2946 0.61069C12.4368 0.571747 12.5822 0.532805 12.6177 0.526315C12.6532 0.519824 12.776 0.493863 12.8923 0.464657C13.0087 0.43545 13.1896 0.393263 13.2962 0.370547C13.4029 0.344585 13.516 0.325114 13.545 0.321869ZM10.7501 0.549031C10.8082 0.545786 10.9084 0.571747 10.9698 0.604199C11.0344 0.633405 11.0829 0.678838 11.0829 0.701554C11.0829 0.721025 11.0506 0.753477 11.0086 0.769703C10.9698 0.785929 10.763 0.860568 10.5498 0.935207C10.3365 1.00985 10.0586 1.11045 9.93583 1.15588C9.80982 1.20131 9.69673 1.24999 9.67734 1.26622C9.66118 1.2792 9.61918 1.29218 9.5804 1.29218C9.52224 1.29218 9.51901 1.2792 9.5384 1.15588C9.55132 1.07799 9.5901 0.990376 9.61918 0.957924C9.65149 0.925472 9.85182 0.837852 10.0651 0.763213C10.2783 0.685329 10.4948 0.607444 10.5498 0.587973C10.6015 0.568502 10.6952 0.552277 10.7501 0.549031ZM11.3575 0.876794L11.6096 1.1429C11.7485 1.28569 11.9779 1.56477 12.1169 1.76273C12.259 1.96068 12.3721 2.12943 12.3754 2.14566C12.3754 2.15864 12.2558 2.20732 12.1072 2.25275C11.9618 2.30143 11.5934 2.43123 11.2929 2.54157C10.9892 2.65515 10.5594 2.82065 10.33 2.91152C10.1039 3.00238 9.90998 3.07702 9.89383 3.07702C9.8809 3.07702 9.8389 2.93424 9.79689 2.76224C9.75489 2.587 9.68703 2.27546 9.6418 2.07102C9.59979 1.86657 9.56425 1.66537 9.56425 1.62643C9.56425 1.57126 9.59979 1.53556 9.69996 1.49013C9.7775 1.45768 10.1135 1.32787 10.4528 1.20456C10.7921 1.07799 11.1314 0.954678 11.2121 0.928716L11.3575 0.876794ZM9.19589 1.16237C9.22174 1.15912 9.22821 1.2078 9.21851 1.29867C9.20882 1.37331 9.1862 1.45444 9.16358 1.47715C9.1442 1.49987 9.11189 1.51934 9.09573 1.51934C9.07957 1.51609 8.79846 1.64915 8.47211 1.80816C8.149 1.97042 7.87758 2.10023 7.86789 2.10023C7.85819 2.10023 7.85173 2.084 7.85173 2.06128C7.85496 2.03857 7.9002 1.96717 7.95836 1.90227C8.01652 1.83412 8.149 1.72703 8.25563 1.65888C8.36225 1.59073 8.61105 1.45119 8.80492 1.34734C8.99879 1.24674 9.17651 1.16237 9.19589 1.16237ZM18.1268 1.42198C18.5178 1.41874 18.534 1.42198 18.6664 1.5096C18.7375 1.55828 18.9055 1.67835 19.038 1.77895C19.1673 1.87631 19.4548 2.12943 19.6778 2.33388C19.9007 2.54157 20.1786 2.81092 20.2949 2.93424C20.4113 3.05431 20.5664 3.22955 20.6439 3.31717C20.7182 3.40803 20.7796 3.48592 20.7764 3.49565C20.7764 3.50539 20.4824 3.53135 20.1237 3.55406C19.7618 3.57678 19.3159 3.61897 19.1285 3.64493C18.9411 3.67089 18.7375 3.69685 18.6761 3.70334C18.6147 3.70983 18.4823 3.72606 18.2076 3.75851L17.9491 3.40803C17.8102 3.21657 17.5194 2.85635 17.3029 2.60647C17.0896 2.35984 16.7891 2.03208 16.6308 1.88604C16.4757 1.73677 16.3594 1.60696 16.3723 1.60047C16.3885 1.59398 16.4919 1.57775 16.6082 1.56802C16.7245 1.55504 17.0218 1.51934 17.2706 1.48689C17.5194 1.45119 17.9039 1.42523 18.1268 1.42198ZM19.3676 1.43172C19.513 1.44145 19.7747 1.47715 19.9524 1.5096C20.1302 1.54206 20.3563 1.60696 20.4533 1.65564C20.5502 1.70107 20.7473 1.8179 20.8895 1.91201C21.0317 2.00936 21.2998 2.20083 21.4872 2.34361C21.6747 2.48316 21.833 2.60647 21.8427 2.61945C21.8524 2.62919 21.959 2.7233 22.085 2.83039C22.211 2.93748 22.4372 3.14193 22.5955 3.28471C22.7506 3.4275 22.909 3.58652 23.022 3.73579L22.8605 3.71308C22.77 3.70334 22.5988 3.67089 22.4728 3.64493C22.3467 3.61897 22.043 3.58976 21.3418 3.56055L21.1512 3.33988C21.0446 3.21981 20.7893 2.95371 20.5858 2.74602C20.379 2.54157 20.0429 2.23328 19.8394 2.06453C19.6358 1.89578 19.3773 1.69458 19.2642 1.61994C19.1414 1.53556 19.0736 1.47066 19.0865 1.44794C19.1026 1.42198 19.1899 1.41549 19.3676 1.43172ZM15.7842 1.71405C15.8004 1.7108 15.949 1.8471 16.1106 2.01261C16.2754 2.17811 16.5597 2.49289 16.7407 2.71681C16.9248 2.94073 17.1898 3.28471 17.3287 3.47942C17.4677 3.67738 17.5808 3.85262 17.584 3.86885C17.584 3.88832 17.5388 3.91103 17.4774 3.92077C17.416 3.9305 17.1866 3.97918 16.9636 4.02462C16.7407 4.07329 16.3045 4.17714 15.9943 4.25502C15.6841 4.33615 15.319 4.43026 15.1865 4.46596C15.054 4.5049 14.8472 4.56331 14.5079 4.66391L14.3884 4.44649C14.3238 4.32642 14.1945 4.08627 14.0976 3.91752C14.0039 3.74877 13.9263 3.60599 13.9263 3.60274C13.9263 3.59625 13.8585 3.47943 13.7745 3.34313C13.6937 3.20359 13.5903 3.03159 13.545 2.9602C13.4998 2.8888 13.3964 2.73303 13.3156 2.60972C13.2187 2.47018 13.1799 2.37931 13.1993 2.35984C13.2155 2.34686 13.3189 2.31116 13.4255 2.28196C13.5321 2.25599 13.7648 2.19434 13.9425 2.14566C14.1202 2.09698 14.6016 1.9834 15.0088 1.88929C15.4159 1.79193 15.7681 1.71405 15.7842 1.71405ZM9.1345 1.7465C9.16251 1.74434 9.18082 1.82222 9.18943 1.98015C9.19913 2.10996 9.23467 2.38256 9.27021 2.587C9.30576 2.79145 9.3413 3.04133 9.37684 3.31717L9.07311 3.44697C8.90832 3.51837 8.40426 3.76176 7.95836 3.98892C7.39937 4.27449 7.13441 4.39132 7.12472 4.36536C7.11503 4.34264 7.13764 4.11872 7.17319 3.86885C7.20873 3.61897 7.26366 3.33339 7.29274 3.23604C7.32182 3.13868 7.38644 2.94073 7.52861 2.53832L7.90989 2.33063C8.11669 2.21705 8.46888 2.03857 8.69183 1.93472C8.91478 1.83412 9.11512 1.7465 9.1345 1.7465ZM7.44137 2.19758C7.4543 2.19758 7.46399 2.21705 7.46399 2.23977C7.46399 2.26248 7.43168 2.31116 7.3929 2.34686C7.3509 2.3858 7.24104 2.46044 7.15057 2.51885C7.05686 2.57402 6.97285 2.60972 6.96316 2.59674C6.9567 2.58376 7.05363 2.4864 7.18288 2.3858C7.30889 2.28196 7.42522 2.20083 7.44137 2.19758ZM12.5531 2.5578C12.5951 2.55455 12.6468 2.60323 12.7017 2.69409C12.7502 2.76873 12.902 3.03484 13.041 3.28471C13.1767 3.53459 13.4126 3.97918 13.5612 4.27449C13.7098 4.5698 13.8326 4.82617 13.8294 4.8424C13.8294 4.86187 13.7421 4.90081 13.6355 4.93326C13.5289 4.96247 13.377 4.98843 13.2962 4.98843C13.2155 4.98843 13.0604 5.01115 12.9505 5.03711C12.8374 5.06307 12.6888 5.1085 12.6177 5.13771C12.5466 5.16692 12.4464 5.22208 12.3915 5.25778C12.2946 5.32269 12.2946 5.32269 12.2138 5.25778C12.1686 5.22208 12.0813 5.16692 12.0199 5.13446C11.9585 5.10201 11.8261 5.05658 11.7291 5.03386C11.6193 5.0079 11.3382 4.99168 10.4367 4.98843L10.3365 4.65742C10.2848 4.47245 10.2105 4.23555 10.1749 4.12846C10.1394 4.02137 10.0845 3.84613 10.0522 3.73904C10.0069 3.59301 10.0005 3.53459 10.0295 3.50863C10.0489 3.49241 10.1879 3.42426 10.3397 3.35935C10.4916 3.29445 10.7759 3.18087 10.9698 3.10298C11.1637 3.02835 11.587 2.87582 11.9068 2.76224C12.2267 2.6519 12.5175 2.5578 12.5531 2.5578ZM7.09564 2.81741C7.09887 2.81416 7.09564 2.84662 7.08918 2.8888C7.08271 2.92775 7.06333 2.9894 7.04717 3.0251C7.03101 3.0608 6.97932 3.20034 6.93731 3.33339C6.89531 3.46644 6.82745 3.71632 6.78868 3.88507C6.7499 4.05382 6.7079 4.3037 6.67236 4.67689L6.02612 5.06632L5.84841 5.02737C5.75147 5.0079 5.5576 4.98843 5.42189 4.98843C5.24095 4.98843 5.16986 4.9787 5.16986 4.94949C5.16986 4.92677 5.20218 4.8424 5.23772 4.76127C5.27326 4.68014 5.33142 4.56331 5.36373 4.50166C5.39605 4.44 5.46713 4.30045 5.52529 4.19336C5.58345 4.08627 5.68685 3.91103 5.75794 3.80394C5.83872 3.68712 5.96473 3.55406 6.08751 3.46644C6.19414 3.38532 6.43002 3.21981 6.60773 3.09974C6.78868 2.97642 6.96962 2.86284 7.01163 2.84662C7.05686 2.83039 7.09564 2.81741 7.09564 2.81741ZM22.6537 3.01861C22.6828 3.04133 22.8508 3.17762 23.0253 3.32366C23.203 3.46969 23.4259 3.66765 23.5229 3.765C23.6392 3.88183 23.6877 3.94998 23.6618 3.96296C23.6392 3.97269 23.581 3.9662 23.5326 3.94349C23.4873 3.92077 23.245 3.7001 22.9994 3.45671C22.7539 3.21008 22.5632 3.00238 22.5761 2.99265C22.5858 2.98291 22.6214 2.99589 22.6537 3.01861ZM9.46408 3.73579C9.47378 3.74228 9.49639 3.80394 9.50932 3.87209C9.52547 3.94349 9.58687 4.18038 9.64503 4.4043C9.70319 4.62822 9.76135 4.85538 9.77104 4.9073C9.79366 5.00466 9.79043 5.00466 9.5901 5.06307C9.47701 5.09552 9.32837 5.15394 9.12804 5.27401L8.98264 5.1799C8.90186 5.12797 8.7403 5.06307 8.62075 5.03711C8.46565 5.00466 8.21039 4.98843 7.7548 4.98843C7.34444 4.98843 7.10856 4.9787 7.10856 4.95598C7.10856 4.93975 7.15703 4.89432 7.21519 4.85862C7.27012 4.82293 7.54477 4.67365 7.81942 4.52762C8.09407 4.38158 8.56582 4.14793 8.86955 4.00839C9.17328 3.86885 9.42531 3.74877 9.43177 3.73904C9.43823 3.73255 9.45116 3.7293 9.46408 3.73579ZM22.0753 4.0668C22.2401 4.07654 22.476 4.09925 22.602 4.11548C22.728 4.13171 22.98 4.17714 23.1675 4.21608C23.4841 4.28098 23.5164 4.29396 23.6327 4.41728C23.7038 4.49192 23.8589 4.68338 23.9752 4.8424C24.0948 5.00466 24.2984 5.30321 24.4341 5.50766C24.5665 5.71211 24.7669 6.04311 24.88 6.23782C24.9931 6.43578 25.1772 6.77652 25.2871 7.00044C25.4002 7.22436 25.481 7.41907 25.468 7.43205C25.4551 7.44828 25.2483 7.42231 25.0092 7.37688C24.7701 7.33469 24.5148 7.28926 24.4438 7.27953C24.3727 7.26979 24.2564 7.26005 24.1853 7.25681C24.1142 7.25681 23.9429 7.25032 23.5552 7.2276L23.4841 7.05885C23.4453 6.96474 23.329 6.71811 23.2288 6.51366C23.1287 6.30922 22.938 5.95225 22.8056 5.7186C22.6731 5.48819 22.4501 5.12148 22.3112 4.9073C22.1723 4.69312 21.9945 4.43026 21.917 4.32317C21.8394 4.21608 21.7748 4.11224 21.7748 4.08952C21.7748 4.06356 21.8556 4.05707 22.0753 4.0668ZM5.37989 4.10899C5.40251 4.13171 5.36373 4.22257 5.26357 4.39456C5.17956 4.53411 5.07616 4.72557 4.94368 4.98843H4.78212C4.69488 4.98843 4.62057 4.97545 4.62057 4.95598C4.62057 4.93975 4.6658 4.85538 4.72396 4.77101C4.78212 4.68663 4.94368 4.49517 5.08585 4.34589C5.26034 4.1674 5.35404 4.08952 5.37989 4.10899ZM20.8249 4.08627C21.1867 4.08303 21.2514 4.08952 21.2837 4.1382C21.3063 4.1674 21.3806 4.27449 21.4452 4.37185C21.5099 4.4692 21.5745 4.55682 21.5874 4.56656C21.6003 4.57629 21.6843 4.69961 21.7716 4.8424C21.8621 4.98519 22.0236 5.24805 22.127 5.42653C22.2336 5.60502 22.4049 5.90357 22.5051 6.09179C22.6052 6.28001 22.7636 6.60128 22.8605 6.80573C22.9704 7.04587 23.0188 7.19191 22.9994 7.21138C22.9833 7.23085 22.6989 7.25356 22.3661 7.26655C22.0333 7.27953 21.5454 7.31847 21.2772 7.35416C21.0123 7.39311 20.6827 7.43854 20.5502 7.45801C20.4177 7.47748 20.2885 7.5002 20.2691 7.50669C20.2465 7.51642 20.2012 7.45801 20.1657 7.38337C20.1334 7.30549 20.0526 7.12051 19.9848 6.96799C19.9169 6.81547 19.7489 6.46499 19.6099 6.18915C19.471 5.91331 19.2901 5.56283 19.206 5.4103C19.1253 5.25778 18.9831 5.01115 18.8959 4.85862C18.8054 4.7061 18.6955 4.53411 18.6471 4.47569C18.576 4.38158 18.5695 4.36211 18.6115 4.3394C18.6374 4.32317 18.7763 4.29396 18.9185 4.27449C19.0606 4.25502 19.2351 4.22906 19.3062 4.22257C19.3773 4.21608 19.6552 4.18038 19.9201 4.14793C20.1883 4.11548 20.5954 4.08627 20.8249 4.08627ZM17.9168 4.44C17.9653 4.43675 18.0267 4.50815 18.1624 4.73531C18.2625 4.90081 18.4629 5.25778 18.605 5.52389C18.7472 5.79324 18.9605 6.20862 19.0736 6.44876C19.1899 6.6889 19.3514 7.03938 19.4355 7.2276C19.5162 7.41582 19.5809 7.58457 19.5712 7.6008C19.5647 7.62027 19.3999 7.6657 19.206 7.70464C19.0122 7.74359 18.7149 7.80524 18.5469 7.84419C18.3789 7.87988 18.0751 7.95128 17.5129 8.08757L17.4063 7.92856C17.3514 7.84419 17.2835 7.76306 17.2609 7.75008C17.2253 7.73385 17.2286 7.70789 17.2673 7.6008C17.2932 7.5294 17.3287 7.39635 17.3481 7.30224C17.3837 7.13025 17.3837 7.13025 17.5549 7.08482C17.6454 7.05885 17.7811 6.99395 17.8522 6.94203C17.9233 6.89011 18.0202 6.7895 18.0687 6.72136C18.1171 6.65321 18.185 6.52989 18.2205 6.44876C18.2529 6.36763 18.2981 6.21511 18.3207 6.10802C18.3498 5.95549 18.3498 5.87112 18.3175 5.70237C18.2895 5.56175 18.2421 5.44816 18.1753 5.36163C18.1204 5.29023 18.017 5.19612 17.9459 5.15394C17.878 5.1085 17.7488 5.05658 17.6583 5.03062C17.5452 5.00141 17.2415 4.98843 16.676 4.98843C16.0298 4.98843 15.8553 4.9787 15.8682 4.94949C15.8779 4.92677 16.046 4.86836 16.2398 4.81968C16.4337 4.77101 16.7956 4.68663 17.0444 4.63146C17.2932 4.57629 17.5775 4.51139 17.6745 4.48867C17.7714 4.46271 17.8813 4.44324 17.9168 4.44ZM24.1627 4.57954C24.2111 4.6055 24.3339 4.69637 24.4341 4.78074C24.5342 4.86836 24.7023 5.0436 24.8057 5.16692C24.9123 5.29348 25.1643 5.63422 25.3711 5.92953C25.5747 6.22484 25.8364 6.61102 25.9527 6.7895C26.069 6.96799 26.2274 7.23734 26.3114 7.38986C26.3922 7.54239 26.4956 7.74034 26.5376 7.82796C26.5828 7.91883 26.6151 8.0032 26.6054 8.01618C26.5989 8.02916 26.5085 7.98373 26.4083 7.91558C26.3049 7.84743 26.1401 7.75332 26.0432 7.70789C25.8752 7.63325 25.859 7.61378 25.7524 7.38662C25.691 7.25681 25.5327 6.94203 25.4002 6.69215C25.2677 6.44227 25.0351 6.03987 24.88 5.79973C24.7281 5.55958 24.4761 5.18963 24.321 4.98194C24.1659 4.77101 24.0463 4.58603 24.0593 4.56656C24.0689 4.54709 24.1077 4.55033 24.1627 4.57954ZM3.44765 5.77701C5.72562 5.7835 5.74824 5.7835 5.83872 5.85165C5.88718 5.89059 5.94211 5.96847 5.95827 6.03013C5.98412 6.121 5.97119 6.19564 5.89041 6.43253C5.83548 6.59479 5.71593 6.92905 5.62546 7.17893C5.53499 7.4288 5.4219 7.69166 5.3702 7.76306C5.32173 7.83445 5.21833 7.9383 5.00184 8.08757L3.82893 8.10705L3.57367 8.81125C3.4315 9.20067 3.26025 9.66798 3.18593 9.8562C3.08253 10.132 3.0276 10.2261 2.90805 10.343C2.81434 10.4371 2.70772 10.5052 2.61724 10.5312C2.51062 10.5636 2.24889 10.5701 0.749631 10.5539L0.66562 10.4728C0.597766 10.4079 0.58161 10.3624 0.58161 10.2456C0.58161 10.1418 0.675313 9.83997 0.901495 9.22339C1.07598 8.7431 1.23754 8.30825 1.25692 8.25957C1.27631 8.21089 1.29247 8.15572 1.29247 8.13625C1.29247 8.11678 1.07598 8.10056 0.155096 8.08757L0.0775478 7.99996C0.0258491 7.94154 0 7.87015 0 7.79551C0 7.73385 0.0516984 7.53914 0.109859 7.36715C0.171252 7.19191 0.287573 6.86739 0.368353 6.64347C0.449132 6.41955 0.562223 6.17941 0.613921 6.11126C0.668851 6.03987 0.759323 5.95225 0.817484 5.91655C0.872414 5.88086 0.972581 5.83218 1.03397 5.80946C1.12121 5.78026 1.67698 5.77052 3.44765 5.77701ZM7.60293 5.77052C8.2007 5.76727 8.42688 5.78025 8.50766 5.81271C8.56259 5.83542 8.63367 5.88086 8.65952 5.91331C8.6886 5.949 8.70476 6.03013 8.70476 6.121C8.70153 6.21835 8.60459 6.52665 8.42365 7.01667C8.27178 7.4288 8.1393 7.78902 8.12961 7.82147C8.11345 7.87339 8.1393 7.87664 8.70799 7.87664L8.77584 7.67544C8.81462 7.56186 8.92771 7.24383 9.02787 6.96799C9.12804 6.69215 9.25082 6.38061 9.29929 6.27352C9.35099 6.16319 9.43823 6.03987 9.51578 5.97497C9.58687 5.91331 9.70965 5.84191 9.79043 5.81595C9.90352 5.77701 10.1103 5.76727 10.721 5.76727C11.3446 5.76727 11.5256 5.77701 11.616 5.81595C11.6774 5.84191 11.755 5.90682 11.7841 5.95549C11.8196 6.01391 11.8325 6.08206 11.8196 6.15669C11.8099 6.21835 11.6613 6.66619 11.4868 7.14647C11.3155 7.63 11.0991 8.22063 11.0118 8.46077C10.9246 8.70091 10.7727 9.11954 10.6758 9.38565C10.5788 9.655 10.4754 9.93733 10.4464 10.0185C10.414 10.1093 10.33 10.2294 10.2234 10.3365C10.1135 10.4403 10.0037 10.5182 9.92937 10.5377C9.86152 10.5572 9.43177 10.5701 8.97618 10.5701C8.32994 10.5701 8.12315 10.5604 8.05529 10.5247C8.00359 10.502 7.94543 10.4436 7.92605 10.3949C7.90343 10.3495 7.88404 10.2781 7.88404 10.2391C7.88404 10.1969 7.9422 10.0055 8.01006 9.80752C8.07791 9.61281 8.20716 9.24286 8.30086 8.98973C8.39134 8.73337 8.46565 8.51918 8.46565 8.50945C8.46565 8.49971 8.3364 8.49322 7.88404 8.49322L7.7548 8.85993C7.68694 9.06113 7.56416 9.39863 7.48661 9.61281C7.40906 9.82699 7.31859 10.0606 7.28305 10.1288C7.25073 10.2002 7.15703 10.3138 7.07625 10.3819C6.99547 10.4533 6.87269 10.5247 6.8016 10.5409C6.72405 10.5636 6.32662 10.5701 4.93722 10.5539L4.85967 10.4663C4.80797 10.4046 4.78212 10.3365 4.78212 10.2554C4.78212 10.184 4.87906 9.86269 5.01154 9.49923C5.13432 9.15199 5.3088 8.66846 5.39605 8.42832C5.48329 8.18818 5.65777 7.70464 5.78378 7.35741C5.9098 7.01018 6.05197 6.61426 6.10044 6.48121C6.14568 6.34816 6.22969 6.18266 6.28462 6.11126C6.33631 6.04311 6.41709 5.95874 6.46233 5.92304C6.50757 5.89059 6.60127 5.84191 6.67236 5.81595C6.77252 5.78025 6.99224 5.77052 7.60293 5.77052ZM15.3157 5.77052C17.0347 5.76727 17.5065 5.77701 17.5388 5.80946C17.5614 5.82893 17.5775 5.87761 17.5775 5.91331C17.5775 5.949 17.542 6.05285 17.5032 6.14047C17.4451 6.26703 17.4031 6.31246 17.3158 6.34492C17.235 6.37412 16.9184 6.38386 15.0088 6.38386L14.9183 6.61751C14.8666 6.74732 14.8214 6.88037 14.8117 6.91282C14.7987 6.96474 14.8537 6.96799 15.6388 6.96799C16.1332 6.96799 16.5048 6.98097 16.5436 7.00044C16.5791 7.01991 16.6082 7.0621 16.6082 7.0978C16.6082 7.13349 16.5823 7.22436 16.5468 7.30224C16.5145 7.37688 16.4563 7.46775 16.4143 7.50344C16.3465 7.5651 16.2915 7.56835 14.5564 7.58782L14.4498 7.88637C14.3948 8.05188 14.3464 8.19791 14.3464 8.21089C14.3464 8.22387 14.8601 8.23685 16.634 8.24983L16.718 8.33096C16.7665 8.3764 16.8118 8.45753 16.8214 8.50945C16.8376 8.58084 16.7827 8.77555 16.6147 9.25584C16.4886 9.61281 16.3626 9.96329 16.3335 10.0347C16.3012 10.1061 16.2366 10.2164 16.1881 10.2781C16.1429 10.3397 16.0233 10.4338 15.7519 10.5701H13.5644C11.7679 10.5701 11.3575 10.5636 11.2865 10.5247C11.2348 10.502 11.1766 10.4436 11.1572 10.3949C11.1346 10.3495 11.1152 10.2846 11.1152 10.2554C11.1152 10.2229 11.1508 10.0866 11.1928 9.95355C11.238 9.8205 11.3769 9.42459 11.5029 9.07735C11.6322 8.73012 11.8034 8.24659 11.8907 8.00644C11.9779 7.7663 12.1524 7.28277 12.2784 6.93554C12.4044 6.5883 12.5434 6.24107 12.5854 6.16643C12.6306 6.08855 12.7146 5.99119 12.7728 5.949C12.8277 5.90357 12.9344 5.8484 13.0054 5.8192C13.1153 5.78025 13.474 5.77052 15.3157 5.77052ZM23.3452 7.90909L23.3839 8.03241C23.4033 8.09731 23.5067 8.40236 23.6134 8.70416C23.72 9.00921 23.8654 9.46678 23.9365 9.72639C24.0076 9.986 24.1045 10.3365 24.1497 10.5052C24.1917 10.674 24.237 10.8752 24.2467 10.9531C24.2628 11.0699 24.2564 11.0926 24.2014 11.1056C24.1659 11.1153 24.0883 11.0959 24.0334 11.0602C23.9752 11.0277 23.8492 10.9823 23.7588 10.9628C23.6521 10.9401 23.1739 10.9271 21.4065 10.9303L21.3386 10.6935C21.2998 10.5636 21.2158 10.2878 21.1544 10.0834C21.0898 9.87891 20.967 9.49923 20.8798 9.23961C20.7925 8.98 20.673 8.64899 20.6181 8.50296C20.5437 8.305 20.5276 8.23036 20.5599 8.21738C20.5793 8.21089 20.7893 8.17195 21.0187 8.13625C21.2514 8.10056 21.5196 8.06161 21.6165 8.05512C21.7134 8.04863 21.9267 8.02592 22.085 8.00644C22.2466 7.98697 22.5148 7.95777 22.6828 7.94479C22.8508 7.93181 23.0705 7.91558 23.3452 7.90909ZM24.1206 7.92532C24.2628 7.93505 24.5407 7.9675 24.7346 7.99346C24.9317 8.02267 25.1352 8.05188 25.1869 8.05837C25.2419 8.0681 25.3711 8.09731 25.4777 8.12652C25.5844 8.15572 25.7071 8.18493 25.7524 8.19142C25.8138 8.2044 25.8461 8.2401 25.8849 8.36017C25.9139 8.4413 26.0173 8.75933 26.1143 9.06113C26.2144 9.36618 26.3178 9.70043 26.3437 9.80752C26.3728 9.91461 26.4309 10.1483 26.4762 10.3267C26.5182 10.5052 26.5666 10.7227 26.6086 10.9628L26.4956 10.9466C26.4342 10.9368 26.0076 10.9271 24.7184 10.9271L24.6215 10.515C24.5698 10.2878 24.489 9.96004 24.4405 9.79129C24.3953 9.62254 24.2564 9.17796 24.1303 8.80151C24.0076 8.42832 23.8848 8.08433 23.8589 8.0389C23.8363 7.99346 23.8266 7.94479 23.8395 7.93181C23.8525 7.91558 23.9785 7.91234 24.1206 7.92532ZM19.849 8.3407C19.8652 8.34394 19.9137 8.4413 19.9589 8.55813C20.0009 8.67495 20.1495 9.10656 20.2885 9.51545C20.4274 9.92759 20.5793 10.3852 20.6278 10.5377C20.673 10.6902 20.7118 10.8395 20.7118 10.8719C20.7118 10.9239 20.6536 10.9271 19.9783 10.9303C19.471 10.9303 19.1867 10.9433 19.0639 10.9725C18.9669 10.9985 18.8442 11.0342 18.7892 11.0569C18.7375 11.0764 18.6244 11.1445 18.5404 11.2062C18.4532 11.2678 18.3756 11.3165 18.3627 11.3165C18.3466 11.3165 18.2722 11.2743 18.1915 11.2224C18.1107 11.1705 17.9524 11.0991 17.836 11.0634C17.7197 11.0245 17.5097 10.9758 17.109 10.9076L17.0476 10.7324C16.9959 10.5864 16.9895 10.5344 17.0185 10.4403C17.0379 10.3787 17.109 10.1807 17.1736 10.0022C17.2415 9.82375 17.3546 9.49598 17.5678 8.86642L18.1785 8.71389C18.5146 8.62952 18.8991 8.53541 19.0316 8.5062C19.164 8.48024 19.3967 8.42832 19.5485 8.39587C19.7004 8.36341 19.8361 8.33745 19.849 8.3407ZM26.1951 8.36341C26.2015 8.36341 26.2661 8.39587 26.3437 8.43481C26.418 8.47051 26.5602 8.55813 26.6571 8.62303C26.754 8.68793 26.8994 8.81449 26.9802 8.90536C27.0998 9.03517 27.1547 9.1455 27.2807 9.48625C27.3647 9.71665 27.4326 9.92759 27.4326 9.95355C27.4326 9.97951 27.4455 10.0185 27.4584 10.0347C27.4746 10.0542 27.5263 10.2132 27.5748 10.3917C27.6232 10.5701 27.6782 10.7519 27.6975 10.7973C27.7169 10.8427 27.7202 10.9044 27.7105 10.9368C27.7008 10.966 27.6652 10.992 27.6362 10.992C27.6038 10.992 27.5198 11.0147 27.4487 11.0439C27.3777 11.0731 27.2807 11.1251 27.2323 11.1575C27.1418 11.2192 27.1418 11.2192 27.0545 11.1543C26.977 11.1023 26.9511 11.0342 26.8736 10.7097C26.8219 10.4987 26.7379 10.1677 26.683 9.96978C26.6313 9.77507 26.4988 9.33372 26.3857 8.98973C26.2758 8.64575 26.1918 8.36341 26.1951 8.36341ZM1.64789 11.7157C2.46538 11.7222 2.51062 11.7254 2.61724 11.7936C2.67864 11.8325 2.75941 11.9136 2.79496 11.9721C2.85312 12.0727 2.85958 12.144 2.87574 13.8153H3.45735V12.9813C3.45735 12.1635 3.45735 12.1408 3.53166 11.998C3.57367 11.9169 3.65768 11.8228 3.71907 11.7871C3.81924 11.7287 3.89678 11.7222 4.68519 11.7124C5.52206 11.7027 5.54468 11.7059 5.68685 11.7773C5.79348 11.8325 5.85164 11.8909 5.97765 12.144L5.97119 14.1625C5.9615 16.1616 5.9615 16.181 5.89364 16.2719C5.85487 16.3206 5.78379 16.392 5.73855 16.4277C5.65454 16.4893 5.59961 16.4926 4.7175 16.4926C3.82893 16.4926 3.78046 16.4893 3.69322 16.4277C3.64475 16.3887 3.57044 16.2946 3.52843 16.2167C3.46058 16.0772 3.45735 16.0383 3.45735 14.4319H2.87574L2.86927 15.2854C2.85958 16.0707 2.85312 16.1453 2.79496 16.2459C2.75941 16.3076 2.68833 16.3887 2.63986 16.4244C2.55262 16.4893 2.51385 16.4926 1.61558 16.4926C0.733474 16.4926 0.678544 16.4893 0.594534 16.4277C0.549298 16.392 0.478213 16.3206 0.439439 16.2719C0.371584 16.181 0.371584 16.1681 0.371584 12.0467L0.4459 11.9396C0.487906 11.8779 0.58484 11.8001 0.655926 11.7676C0.77871 11.7124 0.865952 11.7059 1.64789 11.7157ZM9.28314 11.7092C10.3236 11.7059 10.6144 11.7157 10.8179 11.7579C10.9536 11.7838 11.1572 11.852 11.2703 11.9039C11.3802 11.9558 11.5385 12.0629 11.6257 12.1408C11.7097 12.2187 11.8325 12.3809 11.8971 12.5043C11.965 12.6276 12.0393 12.832 12.0652 12.9553C12.1039 13.1306 12.1169 13.4032 12.1169 14.1074C12.1169 14.7986 12.1039 15.0907 12.0684 15.2594C12.0426 15.386 11.9779 15.5742 11.9262 15.6813C11.8745 15.7884 11.7614 15.9506 11.6742 16.0383C11.587 16.1291 11.4416 16.2395 11.3543 16.2881C11.2671 16.3368 11.0797 16.4082 10.9375 16.4439C10.6952 16.5056 10.5885 16.5088 9.30575 16.5088C8.50119 16.5088 7.87112 16.4926 7.78711 16.4764C7.70633 16.4569 7.54154 16.4017 7.41875 16.353C7.27335 16.2979 7.13441 16.207 7.01486 16.0999C6.91469 16.0091 6.78868 15.8533 6.73052 15.7429C6.67559 15.6391 6.60127 15.4639 6.56896 15.3568C6.51726 15.1848 6.5108 15.042 6.5108 13.0527L6.59804 12.7931C6.64651 12.6503 6.74021 12.4556 6.80806 12.3582C6.87592 12.2609 7.00517 12.1246 7.09241 12.0564C7.18288 11.9883 7.33474 11.9039 7.43168 11.865C7.52861 11.8293 7.69663 11.7773 7.80326 11.7546C7.94543 11.7222 8.34287 11.7124 9.28314 11.7092ZM9.01172 14.1074C9.01495 15.5125 9.02141 15.7559 9.06342 15.8208C9.08927 15.8598 9.15066 15.902 9.20236 15.9117C9.25082 15.9214 9.33807 15.9214 9.39623 15.9117C9.45116 15.902 9.52224 15.8695 9.54809 15.8435C9.5901 15.8014 9.59656 15.5645 9.59656 14.1171C9.59979 12.5464 9.59333 12.4329 9.54163 12.3809C9.49962 12.342 9.42854 12.3258 9.29929 12.3225C9.14743 12.3225 9.10542 12.3355 9.06342 12.3939C9.01495 12.4588 9.00849 12.6341 9.01172 14.1074ZM15.4288 11.7092C16.8796 11.7092 17.3061 11.7157 17.4321 11.7514C17.5226 11.7741 17.6454 11.8163 17.7068 11.8422C17.7682 11.8714 17.878 11.9493 17.9459 12.0175C18.017 12.0889 18.1107 12.2252 18.2399 12.501V14.341C18.2399 16.1648 18.2399 16.181 18.1721 16.2719C18.1333 16.3206 18.0622 16.392 18.017 16.4277C17.933 16.4893 17.878 16.4926 16.9959 16.4926C16.0977 16.4926 16.0589 16.4893 15.9716 16.4244C15.9232 16.3887 15.8521 16.3076 15.8166 16.2459C15.7552 16.1389 15.7519 16.0707 15.7422 14.2859C15.7358 12.5886 15.7293 12.4329 15.6776 12.3777C15.6388 12.3388 15.5742 12.3193 15.445 12.3193C15.319 12.3193 15.2543 12.3355 15.2188 12.3745C15.1768 12.4231 15.1671 12.7022 15.1542 14.3053C15.138 16.1518 15.138 16.181 15.0702 16.2719C15.0314 16.3206 14.9603 16.392 14.9151 16.4277C14.831 16.4893 14.7761 16.4926 13.894 16.4926C13.0054 16.4926 12.957 16.4893 12.8697 16.4277C12.8213 16.3887 12.7469 16.2946 12.6306 16.0707L12.6403 14.3183C12.65 12.66 12.6532 12.5562 12.7146 12.3907C12.7502 12.2966 12.8374 12.1505 12.9117 12.0662C12.9828 11.985 13.0991 11.8909 13.1702 11.8552C13.2381 11.8195 13.3609 11.7741 13.4416 11.7514C13.5483 11.7222 14.0653 11.7124 15.4288 11.7092ZM21.4388 11.7092C23.5681 11.7059 23.6037 11.7059 23.678 11.7709C23.7329 11.8228 23.7491 11.8715 23.7491 12.0077C23.7491 12.1019 23.7361 12.1927 23.7232 12.2122C23.7103 12.2317 23.6683 12.2641 23.6295 12.2868C23.5778 12.3128 23.2159 12.3225 21.3257 12.3225V12.9067H22.1916C22.9057 12.9067 23.0673 12.9164 23.1287 12.9553C23.1868 12.9975 23.1998 13.0332 23.1998 13.1922C23.1998 13.3026 23.1836 13.4032 23.1545 13.4421C23.1093 13.5038 23.0673 13.507 21.3257 13.5232V14.1723L23.6392 14.1885L23.7588 14.2696C23.8234 14.3151 23.8977 14.4027 23.9268 14.4643C23.9688 14.5617 23.9752 14.7045 23.9688 15.3892C23.9591 16.1518 23.9559 16.207 23.8912 16.2979C23.8525 16.353 23.7717 16.4212 23.7038 16.4536C23.5972 16.5056 23.4259 16.5088 21.3612 16.5023C19.1543 16.4926 19.1317 16.4926 19.0413 16.4244C18.9928 16.3887 18.9217 16.3076 18.8862 16.2459C18.8248 16.1389 18.8215 16.0707 18.8118 14.221C18.8054 13.004 18.8151 12.2446 18.8377 12.1376C18.8603 12.024 18.8991 11.9364 18.9605 11.8779C19.0089 11.8293 19.1026 11.7709 19.164 11.7514C19.2416 11.7254 19.904 11.7124 21.4388 11.7092ZM25.607 11.7092C26.3825 11.7059 26.4212 11.7092 26.5602 11.7806C26.6474 11.8228 26.7314 11.8974 26.7702 11.9656C26.8316 12.0727 26.8348 12.144 26.8445 13.2312C26.8477 13.864 26.8574 14.4124 26.8639 14.4481C26.8736 14.4838 26.9253 14.5357 26.9867 14.5585C27.0545 14.5877 27.1418 14.5974 27.2226 14.5844C27.2936 14.5747 27.368 14.5487 27.3841 14.5293C27.4035 14.5065 27.4229 14.023 27.4326 13.2863C27.4487 12.1181 27.452 12.0759 27.5198 11.9656C27.5586 11.9039 27.6394 11.8228 27.6975 11.7871C27.7945 11.7287 27.872 11.7222 28.6604 11.7124C29.4973 11.7027 29.5199 11.7059 29.6621 11.7773C29.7687 11.8325 29.8269 11.8909 29.8818 11.998C29.9497 12.1376 29.9529 12.1797 29.9529 12.9002C29.9529 13.4324 29.94 13.7277 29.9044 13.9062C29.8786 14.0425 29.8107 14.2502 29.7526 14.367C29.6944 14.4871 29.5813 14.6493 29.4844 14.7402C29.3939 14.8311 29.242 14.9414 29.1451 14.9901C29.0482 15.0387 28.8802 15.1004 28.7735 15.1296C28.6669 15.1556 28.5247 15.1783 28.3373 15.1783L28.3309 15.678C28.3212 16.1226 28.3147 16.1908 28.2565 16.2687C28.221 16.3173 28.1499 16.3855 28.1014 16.4244C28.0142 16.4893 27.9754 16.4926 27.1418 16.4926C26.3243 16.4926 26.2694 16.4893 26.1854 16.4277C26.1401 16.392 26.069 16.3206 26.0303 16.2719C25.9689 16.1875 25.9624 16.1324 25.9463 15.1783H25.8267C25.7588 15.1783 25.6199 15.1588 25.5197 15.1296C25.4163 15.1036 25.2419 15.0355 25.132 14.9803C25.0189 14.9219 24.8606 14.8018 24.7733 14.711C24.6861 14.6201 24.5762 14.4579 24.5245 14.3508C24.4728 14.2437 24.4082 14.0425 24.3791 13.9062C24.3436 13.7212 24.3307 13.4519 24.3307 12.9002C24.3307 12.2382 24.3404 12.1278 24.3921 12.0142C24.4244 11.9428 24.4761 11.8617 24.5084 11.8358C24.5439 11.8098 24.6215 11.7709 24.6861 11.7481C24.7604 11.7222 25.0641 11.7092 25.607 11.7092ZM12.0619 16.7425L12.259 16.9209C12.3657 17.0215 12.4917 17.1221 12.5369 17.1449C12.5822 17.1676 12.7146 17.2098 12.8374 17.2357C12.999 17.2747 13.2252 17.2876 13.7486 17.2876C14.369 17.2876 14.4498 17.2941 14.495 17.3461C14.5241 17.3753 14.5402 17.4239 14.5305 17.4499C14.5209 17.4759 14.453 17.6608 14.3819 17.8556C14.3076 18.0535 14.1977 18.3521 14.1331 18.5208C14.0717 18.6896 14.0136 18.8356 14.0039 18.8453C13.9942 18.8551 13.9134 18.8421 13.8197 18.8161C13.7001 18.7804 13.3932 18.761 11.8454 18.7318L11.6839 18.4721C11.5967 18.3294 11.4125 18.0146 11.2735 17.7744C11.1346 17.5343 11.015 17.3136 11.0021 17.2876C10.9892 17.252 11.0312 17.226 11.196 17.1838C11.3123 17.1514 11.4965 17.0832 11.6096 17.0313C11.7194 16.9826 11.8648 16.895 11.9359 16.8398L12.0619 16.7425ZM6.89854 16.9956C6.90823 16.9956 6.9987 17.0313 7.1021 17.0735C7.20227 17.1157 7.39614 17.1741 7.52861 17.2065C7.66109 17.239 7.90989 17.2714 8.07791 17.2844C8.25239 17.2974 8.38487 17.3201 8.38164 17.3363C8.38164 17.3558 8.16839 17.5213 7.91312 17.703C7.46399 18.0243 7.44783 18.034 7.39937 17.9724C7.37352 17.9367 7.32182 17.8523 7.28628 17.7842C7.25073 17.716 7.14734 17.531 7.05363 17.3688C6.95993 17.2098 6.88238 17.0605 6.88238 17.0378C6.88238 17.0151 6.88884 16.9956 6.89854 16.9956ZM6.2523 17.0345C6.27169 17.0313 6.37186 17.1935 6.47849 17.3947C6.58511 17.5927 6.7499 17.888 6.84361 18.0503C6.93731 18.2125 7.01486 18.3586 7.01163 18.3748C7.01163 18.3943 6.86299 18.5338 6.68528 18.6831C6.50757 18.8356 6.21999 19.1082 6.04874 19.2867C5.87749 19.4652 5.67069 19.6956 5.58992 19.7962C5.50914 19.8968 5.43482 19.9811 5.42189 19.9811C5.40897 19.9811 5.32819 19.8773 5.24741 19.7475C5.1634 19.6177 5.07293 19.4749 5.04385 19.4295C5.01154 19.3873 4.87906 19.1601 4.74335 18.9265C4.61087 18.6961 4.47839 18.4624 4.45254 18.4072C4.4267 18.3553 4.3653 18.2385 4.32007 18.1476C4.27483 18.06 4.17143 17.8491 4.09065 17.6771C4.00988 17.5083 3.94202 17.3526 3.94202 17.3298C3.94202 17.2974 4.1262 17.2876 4.74981 17.2876C5.34435 17.2876 5.61576 17.2779 5.77732 17.2422C5.89688 17.213 6.04551 17.1578 6.1069 17.1124C6.16829 17.0702 6.23615 17.0345 6.2523 17.0345ZM3.21824 17.0605C3.22793 17.0605 3.28933 17.0962 3.35718 17.1351C3.46058 17.1935 3.50581 17.252 3.59306 17.4499C3.65122 17.5862 3.80308 17.9075 3.9291 18.1638C4.05511 18.4235 4.25544 18.8031 4.36854 19.0076C4.48163 19.2153 4.71104 19.5917 5.16986 20.3057L5.10847 20.4128C5.07293 20.4712 4.97923 20.6497 4.89845 20.8087C4.8209 20.9709 4.73042 21.1981 4.69811 21.3117C4.66903 21.4285 4.63026 21.5388 4.61733 21.5551C4.59795 21.5778 4.5721 21.5648 4.53979 21.5226C4.51394 21.4869 4.38469 21.2987 4.25544 21.1007C4.12297 20.906 3.90002 20.5393 3.75784 20.2894C3.61567 20.0396 3.44765 19.7345 3.38626 19.608C3.32164 19.4846 3.20208 19.2218 3.11807 19.0238C3.03406 18.8291 2.9339 18.6019 2.89836 18.5208C2.85958 18.4397 2.82727 18.2969 2.82404 18.1963C2.82081 18.0892 2.84666 17.9269 2.89189 17.7744C2.9339 17.6414 3.00498 17.4434 3.05345 17.3363C3.10192 17.2292 3.15362 17.1254 3.173 17.1027C3.19239 17.08 3.21178 17.0605 3.21824 17.0605ZM10.0974 17.3006C10.288 17.3039 10.3268 17.3169 10.3559 17.372C10.3753 17.4077 10.4948 17.6219 10.6241 17.8426C10.7565 18.0632 10.8793 18.2742 10.8987 18.3099C10.9213 18.3456 10.9924 18.4592 11.0603 18.563C11.1249 18.6636 11.1798 18.761 11.1798 18.7739C11.1798 18.7869 11.2024 18.8194 11.2283 18.8453C11.2574 18.8745 11.28 18.9102 11.2768 18.9265C11.2768 18.9459 11.2024 19.0108 11.1152 19.0725C11.0247 19.1374 10.8987 19.2607 10.8309 19.3483C10.7598 19.4392 10.6693 19.5852 10.6241 19.6729C10.5821 19.7637 10.4625 20.0688 10.3623 20.3543C10.2622 20.6399 10.1588 20.9774 10.1329 21.1007C10.1071 21.2273 10.0812 21.3701 10.0748 21.4188C10.0715 21.4707 10.0522 21.5129 10.036 21.5161C10.0166 21.5194 9.83243 21.3182 9.61918 21.0683C9.40915 20.8184 9.03111 20.3381 8.77584 19.9974C8.52381 19.6599 8.27178 19.3159 8.22008 19.2348C8.16515 19.1569 8.05853 18.9979 7.98098 18.8875C7.8905 18.7577 7.8485 18.6733 7.86789 18.6571C7.88727 18.6409 8.02298 18.537 8.17485 18.4235C8.32671 18.3131 8.71768 18.0438 9.04726 17.8263C9.37684 17.6089 9.69673 17.4012 9.75812 17.3623C9.84859 17.3071 9.91644 17.2941 10.0974 17.3006ZM16.6179 17.3882C17.1187 17.3882 17.5161 17.4012 17.5614 17.4175C17.6066 17.4369 17.6648 17.4953 17.6906 17.5473C17.7165 17.6024 17.7391 17.6836 17.7391 17.7257C17.7391 17.7712 17.6906 17.9432 17.6325 18.1087C17.5711 18.2742 17.3675 18.8388 17.1769 19.3646C16.9862 19.8935 16.7794 20.4614 16.718 20.6302C16.6567 20.8022 16.5694 21.0261 16.5242 21.1332C16.4822 21.2403 16.3755 21.4252 16.2915 21.5388C16.1914 21.6784 16.0654 21.8017 15.9296 21.8926C15.8133 21.9672 15.6195 22.0645 15.4934 22.1035C15.2737 22.1716 15.2317 22.1716 11.3899 22.1716L11.1992 22.0743C11.0441 21.9964 10.9892 21.9477 10.9278 21.8309C10.8632 21.7043 10.8535 21.6557 10.8664 21.4415C10.8793 21.2533 10.9246 21.0845 11.0764 20.6626C11.1831 20.3706 11.2994 20.0688 11.3349 19.9974C11.3705 19.926 11.4416 19.8286 11.4933 19.7767C11.5417 19.7248 11.6419 19.6534 11.713 19.6144C11.8325 19.5495 11.9004 19.543 12.6177 19.5333C13.0442 19.5268 13.4513 19.5301 13.5224 19.5398C13.6032 19.5528 13.6904 19.595 13.7486 19.6501C13.8358 19.7345 13.8423 19.7507 13.8229 19.9325C13.8132 20.0396 13.7745 20.2018 13.7389 20.2894C13.7001 20.3803 13.5967 20.6561 13.5063 20.906C13.4061 21.1786 13.3447 21.4025 13.3512 21.4577C13.3609 21.5551 13.3673 21.5583 13.5547 21.568C13.7228 21.5778 13.7583 21.568 13.8262 21.5031C13.8649 21.4609 13.9296 21.3539 13.9651 21.263C13.9974 21.1754 14.0911 20.919 14.1719 20.6951C14.2527 20.4744 14.3367 20.2408 14.3625 20.1759C14.3851 20.1142 14.5596 19.6339 14.7503 19.1049C14.9377 18.5792 15.1251 18.0697 15.1639 17.9691C15.2026 17.8718 15.2931 17.729 15.3642 17.6479C15.4353 17.57 15.5516 17.4791 15.6227 17.4467C15.739 17.3947 15.8489 17.3882 16.6179 17.3882ZM21.4549 17.398C22.8928 17.4045 22.9316 17.4045 23.1028 17.4759C23.1998 17.5148 23.3387 17.5959 23.4066 17.6544C23.4776 17.7128 23.5713 17.8328 23.6166 17.9205C23.6909 18.0632 23.7006 18.1217 23.6974 18.391C23.6974 18.589 23.6747 18.7707 23.6392 18.894C23.6069 19.0011 23.4356 19.4911 23.2579 19.9811C23.0834 20.4744 22.8863 21.0131 22.8249 21.1819C22.7636 21.3539 22.6731 21.5778 22.6246 21.6816C22.5794 21.7855 22.4857 21.9185 22.4243 21.9769C22.3629 22.0321 22.2401 22.1035 22.1496 22.1359C22.0107 22.1846 21.875 22.1911 21.1577 22.1814C20.3725 22.1749 20.324 22.1684 20.2368 22.1035C20.1883 22.0678 20.1334 21.9867 20.1172 21.925C20.0946 21.8406 20.1043 21.766 20.1625 21.5875C20.2012 21.4642 20.3208 21.1332 20.4242 20.8509C20.5308 20.5685 20.6148 20.3251 20.6148 20.3057C20.6148 20.2894 20.4985 20.2732 20.324 20.2732C20.1657 20.2732 20.0332 20.2797 20.0332 20.2829C20.0332 20.2862 19.9234 20.5977 19.7909 20.9709C19.6552 21.3474 19.5098 21.7173 19.4678 21.792C19.4225 21.8666 19.3418 21.9639 19.2836 22.0061C19.2254 22.0516 19.1091 22.11 19.0251 22.1359C18.8991 22.1781 18.7214 22.1879 18.0945 22.1879C17.5291 22.1879 17.29 22.1781 17.2156 22.1457C17.1575 22.123 17.0832 22.0678 17.0541 22.0256C17.0218 21.9802 16.9959 21.9023 16.9959 21.8471C16.9959 21.7952 17.1058 21.4447 17.2415 21.0683C17.374 20.6951 17.5646 20.1694 17.6583 19.9C17.7553 19.6339 17.8716 19.3159 17.9168 19.1958C17.962 19.0757 18.0461 18.8778 18.1074 18.7577C18.1688 18.6376 18.2884 18.4462 18.3756 18.3293C18.4596 18.2158 18.5954 18.0632 18.6761 17.9951C18.7569 17.9237 18.9023 17.8134 18.9992 17.7517C19.0962 17.6868 19.2707 17.6024 19.387 17.557C19.5033 17.5148 19.6843 17.4564 19.7909 17.4337C19.9427 17.4012 20.3208 17.3915 21.4549 17.398ZM20.8281 18.1574C20.8022 18.206 20.673 18.55 20.5373 18.92C20.4016 19.2899 20.2917 19.608 20.2917 19.6242C20.2917 19.6436 20.408 19.6599 20.5761 19.6599H20.8572C21.0155 19.2185 21.1383 18.8843 21.2288 18.6344C21.3192 18.3845 21.3935 18.1476 21.3903 18.1087C21.3903 18.06 21.3612 18.0243 21.3095 18.0016C21.2643 17.9854 21.1964 17.9724 21.1577 17.9724C21.1157 17.9724 21.0381 17.9951 20.98 18.0211C20.9218 18.047 20.8539 18.1087 20.8281 18.1574ZM27.4003 17.3882C28.6507 17.3882 29.5716 17.4012 29.6459 17.4207C29.717 17.4369 29.8237 17.4824 29.8818 17.5245C29.9464 17.57 30.0078 17.6544 30.0401 17.742C30.0789 17.8523 30.0886 17.9464 30.0757 18.0989C30.066 18.2158 30.0111 18.4494 29.9529 18.6182C29.8947 18.7902 29.7849 19.053 29.7073 19.2023C29.6298 19.3548 29.4908 19.5658 29.3971 19.6696C29.2808 19.7994 29.1613 19.8935 29.0191 19.9617C28.8123 20.0623 28.8026 20.0623 28.2436 20.0753C27.872 20.0817 27.662 20.098 27.6329 20.1239C27.6103 20.1434 27.578 20.2116 27.5618 20.2732C27.5457 20.3446 27.5457 20.4095 27.5651 20.4452C27.5909 20.4971 27.6555 20.5004 28.2016 20.5004C28.7121 20.5004 28.8252 20.5101 28.9189 20.5588C28.9803 20.5912 29.0514 20.6529 29.074 20.6951C29.0966 20.7405 29.1096 20.8281 29.1031 20.8898C29.0966 20.9547 29.0352 21.1624 28.9642 21.3571C28.8931 21.5551 28.7897 21.7725 28.7251 21.8569C28.6604 21.9445 28.5473 22.0418 28.4504 22.0905C28.2985 22.1716 28.2695 22.1716 27.7072 22.1716C27.1644 22.1716 27.1159 22.1684 26.9641 22.097C26.8768 22.0548 26.7767 21.9899 26.7444 21.951C26.712 21.912 26.6668 21.8341 26.641 21.7757C26.6151 21.7173 26.5925 21.5972 26.5925 21.5064C26.5925 21.4188 26.6183 21.263 26.6474 21.1591C26.6765 21.0553 26.7605 20.8054 26.8348 20.5977C26.9124 20.3933 26.9835 20.1921 26.9932 20.1531C27.0125 20.0817 27.0061 20.0785 26.7476 20.0785C26.5666 20.0785 26.4697 20.0915 26.4471 20.1207C26.4277 20.1434 26.3825 20.2408 26.3437 20.3381C26.3049 20.4387 26.1918 20.7503 26.0884 21.0358C25.9883 21.3214 25.8816 21.6135 25.8461 21.6849C25.8138 21.7563 25.7362 21.8698 25.6748 21.938C25.6037 22.0126 25.4907 22.084 25.3808 22.123C25.2225 22.1814 25.1223 22.1879 24.4276 22.1879C23.762 22.1879 23.6327 22.1814 23.5196 22.1327C23.4453 22.1002 23.3742 22.0516 23.3581 22.0191C23.3419 21.9867 23.329 21.9088 23.329 21.8406C23.329 21.7725 23.4227 21.4577 23.539 21.1332C23.6554 20.8119 23.8428 20.2862 23.9591 19.9649C24.0754 19.6436 24.2499 19.1634 24.3468 18.894C24.4438 18.6279 24.5633 18.3001 24.615 18.1638C24.6635 18.0308 24.7378 17.8588 24.7766 17.7842C24.8153 17.7095 24.8961 17.6089 24.9543 17.5667C25.0124 17.5245 25.1094 17.4661 25.1708 17.4369C25.2677 17.3947 25.5779 17.3882 27.4003 17.3882ZM27.1353 18.1898C27.1062 18.2547 27.0061 18.5143 26.9156 18.7642C26.8219 19.0141 26.7411 19.264 26.7314 19.3159C26.7153 19.397 26.7282 19.423 26.7896 19.4587C26.8413 19.4879 26.9156 19.4976 27.0125 19.4846C27.103 19.4749 27.187 19.4392 27.2323 19.3905C27.271 19.3516 27.3453 19.1991 27.4003 19.0563C27.452 18.9135 27.5457 18.6506 27.6103 18.4721C27.6749 18.2937 27.7234 18.1184 27.7137 18.0827C27.704 18.047 27.662 18.0081 27.62 17.9951C27.5812 17.9821 27.5101 17.9724 27.4649 17.9724C27.4197 17.9724 27.3421 17.9919 27.2872 18.0178C27.2323 18.047 27.1676 18.1152 27.1353 18.1898ZM7.43814 19.04C7.45107 19.04 7.51892 19.1244 7.58677 19.2283C7.6514 19.3321 7.82911 19.582 7.97775 19.7864C8.12961 19.9941 8.38164 20.3284 8.5432 20.5328C8.70476 20.7405 8.99556 21.091 9.18943 21.3117C9.3833 21.5356 9.61272 21.792 9.85182 22.0418L9.50609 22.3534C9.31545 22.5221 9.01818 22.8239 8.84047 23.0186C8.66598 23.2133 8.51089 23.3788 8.49473 23.3821C8.47858 23.3853 8.22332 23.1679 7.92928 22.8953C7.63201 22.6227 7.24427 22.2398 7.06656 22.0418C6.88884 21.8471 6.68528 21.6232 6.61096 21.5421C6.53988 21.4642 6.34601 21.2305 6.18122 21.0228C6.01643 20.8184 5.88072 20.6237 5.88072 20.5912C5.88072 20.5588 6.11659 20.2927 6.4074 19.9941C6.69497 19.6956 7.04071 19.3613 7.16995 19.2477C7.30243 19.1342 7.42199 19.04 7.43814 19.04ZM5.63515 20.9222C5.65131 20.9222 5.75147 21.0521 5.86133 21.2046C5.97119 21.3603 6.27815 21.7303 6.54957 22.0256C6.81776 22.3209 7.27658 22.7817 7.56739 23.0478C7.85819 23.3172 8.1393 23.5703 8.191 23.6093C8.28794 23.6839 8.28794 23.6871 8.22978 23.7715C8.19747 23.8202 8.10699 23.9922 8.02944 24.1512C7.94867 24.3135 7.87112 24.5211 7.85173 24.6153C7.83234 24.7126 7.80326 24.784 7.78064 24.784C7.75803 24.784 7.49953 24.5925 7.2055 24.3556C6.905 24.1155 6.43971 23.6936 6.13598 23.3918C5.84195 23.0965 5.48975 22.7201 5.35404 22.5546C5.20864 22.3793 5.10524 22.2236 5.10524 22.1814C5.10524 22.1424 5.13432 21.9899 5.1731 21.8471C5.20864 21.7043 5.28295 21.4999 5.33788 21.3928C5.39605 21.2857 5.47682 21.1364 5.52206 21.0618C5.5673 20.9872 5.619 20.9222 5.63515 20.9222ZM16.4079 22.5156C16.4111 22.5156 16.4596 22.5578 16.5113 22.6097C16.5662 22.6649 16.6082 22.7233 16.6082 22.7395C16.6082 22.759 16.3142 22.9213 15.2996 23.4308L15.1154 23.2231C15.0152 23.1095 14.9377 23.0056 14.9474 22.9927C14.9538 22.9797 15.012 22.9667 15.0734 22.9667C15.1348 22.9667 15.2866 22.9472 15.4062 22.9213C15.5257 22.8953 15.7164 22.8434 15.8327 22.8077C15.949 22.772 16.1235 22.6909 16.2204 22.6292C16.3174 22.5708 16.4014 22.5189 16.4079 22.5156ZM10.3462 22.5805L10.5465 22.759C10.6564 22.8564 10.9407 23.1095 11.1766 23.3172C11.4157 23.5281 11.7485 23.8072 11.9198 23.9435C12.091 24.0766 12.3818 24.2972 12.5692 24.4303C12.7566 24.5633 12.9634 24.7094 13.0313 24.7548C13.0959 24.797 13.1508 24.8522 13.1508 24.8749C13.1508 24.8976 13.1411 24.9138 13.1282 24.9138C13.1153 24.9138 12.9634 25.0436 12.7954 25.1994C12.6274 25.3584 12.4303 25.5661 12.3592 25.657C12.2881 25.7478 12.2138 25.8257 12.1912 25.8257C12.1686 25.8257 12.0458 25.7705 11.9165 25.7056C11.7873 25.6407 11.4642 25.4655 11.196 25.313C10.931 25.1604 10.4722 24.8749 10.1782 24.6802C9.88413 24.4822 9.51901 24.2258 9.36068 24.109C9.20559 23.9889 9.07957 23.8786 9.07957 23.8591C9.07957 23.8429 9.15712 23.7423 9.25082 23.6352C9.34453 23.5281 9.52224 23.3399 9.64503 23.2133C9.77104 23.09 9.97784 22.8986 10.1103 22.785L10.3462 22.5805ZM22.8346 22.6454C22.8411 22.6454 22.9122 22.6909 22.9962 22.746C23.0802 22.8044 23.1545 22.8531 23.1578 22.8596C23.1642 22.8661 23.0705 23.0576 22.9542 23.2847C22.8346 23.5119 22.6472 23.8526 22.5374 24.0409C22.4243 24.2258 22.3047 24.4043 22.2724 24.4335C22.2272 24.4725 22.1206 24.4919 21.8491 24.5082C21.6165 24.5179 21.4872 24.5147 21.4872 24.4952C21.4872 24.4757 21.5002 24.4368 21.5163 24.4043C21.5325 24.3719 21.6003 24.1739 21.665 23.9597C21.7296 23.7455 21.8201 23.4373 21.8621 23.2782C21.9041 23.116 21.9428 22.9829 21.9461 22.9829C21.9525 22.9797 22.085 22.9472 22.2466 22.9083C22.4146 22.8661 22.5988 22.798 22.6828 22.7428C22.7603 22.6909 22.8314 22.6487 22.8346 22.6454ZM5.16017 22.6779C5.1731 22.6779 5.47682 22.9797 5.83548 23.3496C6.19091 23.7196 6.62066 24.135 6.78868 24.2713C6.95347 24.4076 7.16995 24.5861 7.27012 24.6639C7.36706 24.7418 7.52538 24.8651 7.62555 24.9365C7.77418 25.0469 7.80649 25.0858 7.82588 25.2026C7.83881 25.2773 7.87112 25.3811 7.9002 25.4363C7.92928 25.4947 7.93574 25.5401 7.91635 25.5499C7.89697 25.5564 7.85496 25.5466 7.82265 25.5239C7.78711 25.5012 7.57385 25.3324 7.34444 25.1442C7.11502 24.956 6.61742 24.4887 6.22969 24.0895C5.84518 23.6969 5.47359 23.301 5.40251 23.2133C5.33465 23.1225 5.24418 22.9797 5.20541 22.8953C5.16663 22.8109 5.13755 22.7266 5.13755 22.7103C5.13755 22.6909 5.14725 22.6779 5.16017 22.6779ZM19.6455 22.7395C19.6552 22.7493 19.7069 22.9992 19.7553 23.2945C19.807 23.5865 19.8523 23.8948 19.8587 23.976C19.8652 24.0538 19.8943 24.2875 19.9201 24.4952C19.9492 24.6996 19.9654 24.8814 19.9589 24.9008C19.9524 24.9171 19.904 24.943 19.8523 24.9592C19.8006 24.9722 19.5938 25.0501 19.3935 25.128C19.1931 25.2091 19.0122 25.274 18.9896 25.274C18.9669 25.274 18.9055 25.1832 18.8538 25.0696C18.7989 24.956 18.5404 24.453 18.2787 23.95C18.017 23.447 17.8037 23.0186 17.8037 23.0024C17.8037 22.9797 18.0041 22.97 18.3433 22.97C18.7214 22.97 18.954 22.9537 19.1123 22.918C19.2351 22.8888 19.4031 22.8337 19.4807 22.7947C19.5615 22.7558 19.6358 22.7298 19.6455 22.7395ZM20.1592 22.9213C20.2045 22.9343 20.5502 22.9505 21.6165 22.97L21.6003 23.09C21.5939 23.1582 21.5454 23.3886 21.4905 23.6028C21.4388 23.8169 21.358 24.122 21.3095 24.2842C21.2611 24.4433 21.2158 24.5861 21.2094 24.599C21.2029 24.612 21.135 24.6315 21.0575 24.6445C20.9832 24.6542 20.7667 24.7029 20.5825 24.7548C20.3951 24.8035 20.2303 24.8392 20.2174 24.8327C20.2045 24.8229 20.1915 24.7256 20.1915 24.6153C20.1915 24.5049 20.1786 24.1934 20.1625 23.9273C20.1463 23.6579 20.1172 23.3302 20.1011 23.1971C20.0817 23.0608 20.0688 22.9407 20.0688 22.9245C20.072 22.9083 20.1108 22.9083 20.1592 22.9213ZM23.3646 22.944L23.7749 22.9602C23.9979 22.9667 24.2014 22.9797 24.224 22.9862C24.2531 22.9959 24.2434 23.0316 24.1917 23.1062C24.153 23.1614 24.0043 23.3626 23.8622 23.5508C23.7232 23.7391 23.4776 24.0441 23.3225 24.2258C23.0899 24.4984 23.0253 24.5568 22.9639 24.5439C22.9251 24.5374 22.8088 24.5211 22.7054 24.5114C22.6052 24.5017 22.5148 24.4822 22.5051 24.4692C22.4986 24.4562 22.5923 24.2875 22.7151 24.096C22.8379 23.9046 22.938 23.7358 22.938 23.7228C22.938 23.7099 22.9639 23.6612 22.9994 23.619C23.0317 23.5736 23.1287 23.4016 23.2127 23.2393L23.3646 22.944ZM14.2979 22.9764L14.5952 23.3139C14.76 23.4989 14.8892 23.6612 14.8827 23.6742C14.8763 23.6904 14.7341 23.7812 14.5661 23.8818C14.4013 23.9857 14.0879 24.1934 13.8682 24.3459C13.6517 24.4984 13.4546 24.6185 13.432 24.612C13.4093 24.6055 13.2025 24.4562 12.9731 24.2842C12.7405 24.109 12.4658 23.8916 12.3592 23.8007C12.2526 23.7099 12.0199 23.5119 11.8454 23.3594C11.671 23.2069 11.5126 23.0576 11.4965 23.0251C11.4674 22.9732 11.5417 22.97 14.2979 22.9764ZM24.4955 22.97H24.8153C24.9963 22.97 25.1449 22.9829 25.1546 23.0024C25.1611 23.0186 25.1094 23.103 25.0351 23.1874C24.9575 23.275 24.7507 23.5087 24.573 23.7131C24.3953 23.9175 24.0657 24.2486 23.4421 24.8132L23.3225 24.7288C23.2547 24.6802 23.1998 24.625 23.1998 24.6088C23.1998 24.5893 23.2644 24.5114 23.3419 24.4303C23.4195 24.3492 23.6392 24.0863 23.8331 23.8461C24.0269 23.606 24.2531 23.3107 24.3404 23.1874L24.4955 22.97ZM17.3804 23.103C17.3869 23.103 17.5032 23.301 17.6357 23.5476C17.7714 23.7942 17.9911 24.1772 18.1268 24.3978C18.2625 24.6217 18.4564 24.9333 18.5566 25.0891C18.6567 25.2448 18.7375 25.3779 18.7311 25.3844C18.7278 25.3909 18.5275 25.4947 17.8522 25.8322L17.6906 25.7154C17.6002 25.6505 17.4483 25.5304 17.3514 25.446C17.2544 25.3616 17.0089 25.1442 16.8021 24.9625C16.5985 24.7808 16.2689 24.4757 16.075 24.2875C15.7325 23.9597 15.7228 23.9435 15.7842 23.8948C15.8198 23.8689 16.0524 23.7423 16.3012 23.6125C16.55 23.4859 16.8925 23.3204 17.0606 23.2425C17.2286 23.1679 17.374 23.103 17.3804 23.103ZM15.4127 24.109C15.4223 24.109 15.5161 24.1934 15.6227 24.294C15.7325 24.3978 15.9426 24.5925 16.0912 24.7256C16.2431 24.8619 16.5339 25.102 16.7374 25.2643C16.941 25.4233 17.2221 25.631 17.3578 25.7251C17.4968 25.816 17.6098 25.9133 17.6098 25.9393C17.6098 25.9685 17.6002 25.988 17.584 25.988C17.5711 25.988 17.4192 26.0821 16.9313 26.4098L16.6954 26.3287C16.5694 26.28 16.3012 26.1762 16.1074 26.0951C15.9103 26.0172 15.571 25.8582 15.348 25.7478C15.1251 25.6375 14.7632 25.4395 14.5402 25.3097C14.3173 25.1799 14.117 25.0598 14.0943 25.0371C14.062 25.0079 14.0943 24.9722 14.2397 24.8651C14.3431 24.7905 14.6436 24.5893 14.9118 24.4173C15.1768 24.2486 15.403 24.109 15.4127 24.109ZM8.85016 24.1739C8.85985 24.1739 8.99233 24.2615 9.1442 24.3719C9.29606 24.4822 9.59979 24.6899 9.82274 24.8359C10.0457 24.982 10.4431 25.2221 10.7113 25.3746C10.9763 25.5239 11.3899 25.7381 11.6225 25.8484C11.8584 25.962 12.049 26.0659 12.0426 26.0788C12.0393 26.0918 11.9812 26.2086 11.9133 26.3384C11.8487 26.4683 11.7841 26.6402 11.7679 26.7214C11.7485 26.8382 11.7324 26.8674 11.6807 26.8674C11.6451 26.8674 11.5999 26.8544 11.5837 26.8382C11.5643 26.8252 11.4351 26.7701 11.2929 26.7214C11.1508 26.6727 10.9536 26.5948 10.8567 26.5494C10.7598 26.5072 10.6047 26.439 10.5174 26.4066C10.427 26.3709 10.1297 26.2281 9.85505 26.0886C9.5804 25.9523 9.21528 25.7543 9.04726 25.6505C8.87924 25.5466 8.6886 25.433 8.62721 25.3973C8.56582 25.3649 8.48827 25.3097 8.45919 25.2805C8.40426 25.2286 8.40426 25.2156 8.46888 24.982C8.50443 24.8489 8.60459 24.612 8.68537 24.4562C8.76615 24.3005 8.84047 24.1739 8.85016 24.1739ZM21.6876 25.0209C21.8298 25.0177 21.8685 25.0274 21.8524 25.0566C21.8394 25.0793 21.6973 25.2578 21.5325 25.4525C21.3709 25.6505 21.1318 25.9133 21.0058 26.0366C20.8798 26.1632 20.7764 26.2768 20.7764 26.2898C20.7764 26.3027 20.7958 26.3125 20.8216 26.3125C20.8475 26.3125 21.0381 26.1405 21.2481 25.9263C21.4614 25.7154 21.7264 25.4233 22.0527 25.0144L22.2627 25.0306C22.379 25.0404 22.4792 25.0566 22.4889 25.0631C22.4986 25.0728 22.4178 25.1572 22.3112 25.2546C22.2046 25.3519 22.043 25.4979 21.9558 25.5791C21.8653 25.6602 21.7845 25.7284 21.7684 25.7284C21.7554 25.7284 21.7457 25.7478 21.7457 25.7705C21.7425 25.7933 21.6908 25.8354 21.623 25.8679C21.5583 25.8971 21.4646 25.9588 21.4129 26.0042C21.3645 26.0496 21.316 26.0886 21.2998 26.0886C21.2869 26.0886 21.2288 26.134 21.1706 26.1859C21.1157 26.2378 21.051 26.28 21.0349 26.28C21.0155 26.28 21.0026 26.2963 21.0026 26.3125C21.0026 26.332 21.022 26.3449 21.0413 26.3449C21.064 26.3449 21.1706 26.28 21.2772 26.2054C21.3838 26.1275 21.5034 26.0529 21.5422 26.0431C21.5842 26.0302 21.623 26.0009 21.6326 25.9717C21.6423 25.9458 21.6714 25.9231 21.6973 25.9231C21.7231 25.9231 21.7457 25.9101 21.7457 25.8906C21.7457 25.8744 21.8233 25.803 21.9138 25.7316C22.0075 25.6602 22.1141 25.5791 22.1496 25.5466C22.1852 25.5142 22.3112 25.4038 22.4307 25.3C22.6149 25.1442 22.6602 25.1183 22.7216 25.141C22.7636 25.1572 22.8153 25.1929 22.8346 25.2221C22.8702 25.2675 22.8573 25.2903 22.7539 25.3681C22.6892 25.4201 22.4954 25.5531 22.3273 25.6667C22.1593 25.7835 21.9913 25.8906 21.9558 25.9133C21.9202 25.9328 21.7974 26.0074 21.6811 26.0788C21.5648 26.1502 21.3774 26.2573 21.2611 26.319C21.1447 26.3839 21.0284 26.4261 21.0026 26.4196C20.9767 26.4098 20.9444 26.4261 20.9283 26.4553C20.9153 26.4845 20.8572 26.5299 20.799 26.5526C20.7441 26.5786 20.6568 26.6143 20.6051 26.6338C20.5567 26.6532 20.4791 26.6727 20.4274 26.6727C20.379 26.6727 20.3305 26.663 20.3143 26.6467C20.3014 26.6338 20.3111 26.6045 20.3305 26.5818C20.3531 26.5591 20.3628 26.5299 20.3499 26.5169C20.337 26.504 20.3014 26.5137 20.2756 26.5396C20.2465 26.5689 20.2239 26.611 20.2271 26.637C20.2271 26.6662 20.2077 26.7052 20.1786 26.7279C20.1528 26.7506 20.1205 26.7636 20.1043 26.7538C20.0914 26.7473 20.1011 26.6338 20.1237 26.5039C20.1431 26.3709 20.1689 26.147 20.1754 26.0042C20.1851 25.8614 20.1915 25.6537 20.1915 25.5434C20.1948 25.3844 20.2077 25.3324 20.2497 25.3097C20.282 25.2935 20.4597 25.2416 20.6471 25.1961C20.8346 25.1507 20.9929 25.1183 21.0026 25.128C21.0123 25.1377 20.9993 25.1929 20.9735 25.2513C20.9476 25.3097 20.8442 25.5239 20.7441 25.7284C20.6439 25.936 20.5211 26.1665 20.4759 26.2411C20.4274 26.3157 20.3887 26.3936 20.3887 26.4098C20.3887 26.4293 20.4016 26.439 20.421 26.4358C20.4371 26.4326 20.547 26.28 20.6665 26.1015C20.7829 25.9231 20.9573 25.618 21.232 25.0631L21.3677 25.0469C21.442 25.0339 21.5874 25.0241 21.6876 25.0209ZM13.7971 25.2416C13.8165 25.2416 13.9263 25.3 14.0459 25.3681C14.1687 25.4395 14.5112 25.618 14.8149 25.7673C15.1154 25.9166 15.4223 26.0626 15.4934 26.0951C15.5645 26.1243 15.6938 26.1794 15.7842 26.2184C15.8715 26.2541 16.1203 26.3449 16.3335 26.4163C16.5468 26.4877 16.7277 26.5526 16.7374 26.5624C16.7471 26.5688 16.6502 26.6759 16.5274 26.8025C16.34 26.9907 16.2818 27.0297 16.1946 27.0297C16.1397 27.0297 15.9846 27.007 15.8553 26.981C15.7293 26.9583 15.5645 26.9258 15.4934 26.9128C15.4223 26.8999 15.348 26.8836 15.3319 26.8804C15.3125 26.8771 15.1606 26.8414 14.9926 26.8025C14.8246 26.7668 14.6049 26.7116 14.5079 26.6824C14.411 26.6565 14.1687 26.5818 13.9748 26.5169C13.7777 26.4553 13.4675 26.3449 13.2801 26.2735C13.0927 26.2054 12.9279 26.1372 12.915 26.1243C12.902 26.1145 12.9828 26.0009 13.0927 25.8776C13.2058 25.7543 13.4029 25.5628 13.5321 25.4493C13.6614 25.3357 13.7809 25.2416 13.7971 25.2416ZM19.9848 25.3876C20.0041 25.3909 20.0171 25.6505 20.0171 26.0788C20.0171 26.491 20.0041 26.7798 19.9848 26.7993C19.9621 26.8252 19.9072 26.7733 19.807 26.6305C19.7263 26.5202 19.5647 26.2638 19.4419 26.0626C19.3224 25.8614 19.2351 25.6862 19.2448 25.6732C19.2545 25.6602 19.4193 25.5888 19.6067 25.5142C19.7973 25.4395 19.9654 25.3844 19.9848 25.3876ZM8.50766 25.5239C8.53027 25.5369 8.61752 25.5953 8.70799 25.6505C8.79523 25.7089 8.95033 25.7997 9.04726 25.8582C9.1442 25.9133 9.49962 26.0951 9.8389 26.2638C10.1749 26.4293 10.6499 26.6435 10.889 26.7376C11.1281 26.8285 11.4157 26.9323 11.5256 26.968C11.6904 27.0167 11.7356 27.0459 11.7647 27.1173C11.7841 27.166 11.8325 27.2763 11.8778 27.3607C11.923 27.4515 11.9424 27.5229 11.923 27.5294C11.9036 27.5392 11.8293 27.5327 11.7517 27.5164C11.6774 27.5002 11.4351 27.4191 11.2121 27.3412C10.9892 27.2633 10.6952 27.153 10.5562 27.0978C10.4205 27.0426 10.2816 26.981 10.2493 26.9648C10.2202 26.9485 10.0134 26.8447 9.79043 26.7344C9.56748 26.624 9.3413 26.5104 9.2896 26.4812C9.23467 26.4553 9.09896 26.3709 8.98264 26.2995C8.86632 26.2249 8.72414 26.1048 8.66598 26.0366C8.60782 25.9652 8.53351 25.8322 8.49796 25.7381C8.46242 25.644 8.44303 25.5531 8.45273 25.5336C8.46242 25.5174 8.48827 25.5109 8.50766 25.5239ZM18.9992 25.764C19.0089 25.764 19.0542 25.8257 19.1026 25.9003C19.1479 25.975 19.3256 26.2119 19.4968 26.4261C19.7747 26.7798 19.8006 26.822 19.7489 26.8577C19.7198 26.8804 19.6843 26.8999 19.6681 26.8999C19.6552 26.8999 19.6519 26.8771 19.6616 26.8479C19.6746 26.8122 19.6164 26.7798 19.4419 26.7149C19.3159 26.6662 19.0865 26.5656 18.9346 26.4877C18.7828 26.4098 18.5857 26.3027 18.4984 26.2508C18.4079 26.1989 18.3336 26.1405 18.3272 26.121C18.3239 26.1015 18.4693 26.0139 18.6503 25.9231C18.8312 25.8354 18.9896 25.764 18.9992 25.764ZM18.1236 26.2249C18.1365 26.2281 18.2949 26.3092 18.4823 26.4033C18.6697 26.4975 18.9572 26.6273 19.1253 26.6954C19.2933 26.7636 19.4387 26.8382 19.4484 26.8609C19.4645 26.8999 19.429 26.9063 19.2739 26.8999C19.1673 26.8934 19.0703 26.8934 19.0542 26.8934C19.0413 26.8966 19.0574 26.9226 19.0865 26.9518C19.135 26.9972 19.1802 27.0037 19.345 26.9842C19.4968 26.968 19.5485 26.9745 19.5485 27.0037C19.5485 27.0264 19.471 27.0881 19.3773 27.14C19.2868 27.1952 19.1964 27.2438 19.177 27.2503C19.1576 27.2568 19.0994 27.2828 19.0477 27.3055C18.9928 27.3282 18.7601 27.4061 18.5307 27.4775C18.2981 27.5489 17.9944 27.6398 17.8522 27.6755C17.71 27.7112 17.4321 27.7696 16.8828 27.8767L16.8247 27.802C16.7924 27.7598 16.7665 27.7144 16.7665 27.7014C16.7697 27.6884 16.7891 27.6722 16.8085 27.6657C16.8311 27.656 17.0541 27.6268 17.3029 27.5976C17.5517 27.5684 17.8263 27.5294 17.9168 27.5132C18.0041 27.497 18.2238 27.4548 18.4015 27.4158C18.5792 27.3801 18.7343 27.338 18.7472 27.325C18.7601 27.3152 18.7278 27.299 18.6729 27.2958C18.6212 27.2925 18.5437 27.3023 18.4984 27.3185C18.4532 27.338 18.269 27.3737 18.0848 27.4029C17.9039 27.4288 17.6519 27.4645 17.5291 27.4807C17.4031 27.497 17.1833 27.5197 16.7697 27.5457L16.7891 27.458C16.7988 27.4094 16.8279 27.3347 16.8538 27.2958C16.899 27.2244 16.9087 27.2244 17.5355 27.2244C17.8877 27.2244 18.2884 27.2146 18.4241 27.2017C18.563 27.1854 18.6761 27.166 18.6761 27.1562C18.6761 27.1497 18.3207 27.14 17.8845 27.14C17.4031 27.14 17.0832 27.1303 17.0606 27.1076C17.0379 27.0881 17.0832 27.0199 17.3837 26.7181L17.5032 26.7571C17.5711 26.7798 17.8134 26.8252 18.0461 26.8609C18.2755 26.8966 18.563 26.9356 18.6826 26.9453C18.828 26.9583 18.9088 26.9518 18.9249 26.9258C18.9411 26.9064 18.9282 26.8771 18.9023 26.8609C18.8765 26.8479 18.8312 26.8414 18.8054 26.8512C18.7795 26.8609 18.5889 26.8382 18.3853 26.7993C18.1818 26.7636 17.9168 26.7116 17.794 26.6857C17.668 26.6565 17.5775 26.6208 17.5775 26.5981C17.5775 26.5753 17.6971 26.4812 17.8425 26.3871C17.9879 26.293 18.1139 26.2184 18.1236 26.2249ZM12.7502 26.3449C12.7566 26.3449 12.8827 26.3904 13.0281 26.4455C13.1767 26.5007 13.419 26.5818 13.5709 26.6305C13.7228 26.6759 13.9683 26.7473 14.1202 26.7895C14.2721 26.8317 14.5984 26.9096 14.8472 26.9648C15.096 27.0167 15.5031 27.0913 15.7519 27.1303C16.0007 27.166 16.2108 27.2017 16.2204 27.2082C16.2301 27.2179 16.214 27.2471 16.1849 27.2795C16.1558 27.312 16.1138 27.3899 16.0944 27.458C16.075 27.5262 16.033 27.5911 16.0007 27.6008C15.9716 27.6138 15.7196 27.6073 15.445 27.5846C15.1703 27.5651 14.7987 27.5327 14.621 27.5164C14.4433 27.497 14.1234 27.4548 13.9102 27.4158C13.6969 27.3801 13.3544 27.312 13.1508 27.2666C12.9473 27.2244 12.7017 27.166 12.608 27.14C12.4691 27.1011 12.44 27.0816 12.44 27.0199C12.44 26.981 12.4626 26.8804 12.4885 26.7993C12.5175 26.7214 12.5854 26.5851 12.6371 26.5007C12.692 26.4163 12.7405 26.3449 12.7502 26.3449ZM12.4723 27.2536C12.4885 27.2536 12.6112 27.286 12.7373 27.3217C12.8665 27.3574 13.1411 27.4158 13.3447 27.4515C13.5483 27.4872 13.8908 27.5392 14.104 27.5651C14.3173 27.5911 14.621 27.6268 14.7826 27.6462C14.9409 27.6625 15.2899 27.6755 16.0427 27.6787L16.1138 27.8085C16.1687 27.9059 16.1784 27.9416 16.1461 27.9578C16.1267 27.9708 15.781 27.987 15.3803 27.9967C14.9409 28.0065 14.4465 27.9935 14.1363 27.9708C13.852 27.9481 13.4223 27.8929 13.1832 27.8507C12.8116 27.7825 12.734 27.7566 12.6532 27.6819C12.6048 27.6365 12.5337 27.5424 12.5014 27.4743C12.4658 27.4061 12.44 27.3315 12.44 27.3023C12.44 27.2763 12.4529 27.2536 12.4723 27.2536Z" fill="#E7E7E7"/>
</svg>
