<svg width="30" height="30" viewBox="0 0 39 39" fill="none" xmlns="http://www.w3.org/2000/svg">
<path d="M11.3754 17.0577L8.1189 21.3997C7.6639 22.0063 7.43531 22.7528 7.47271 23.5101C7.5101 24.2675 7.81111 24.9879 8.32365 25.5467L14.4726 32.2547C15.0869 32.9258 15.9546 33.3077 16.8663 33.3077H24.3754C28.2754 33.3077 30.8754 30.8702 30.8754 26.8077V12.8798M26.0004 13.8077V12.8798C26.0004 9.16506 30.8754 9.16506 30.8754 12.8798" fill="#636363"/>
<path d="M11.3754 17.0577L8.1189 21.3997C7.6639 22.0063 7.43531 22.7528 7.47271 23.5101C7.5101 24.2675 7.81111 24.9879 8.32365 25.5467L14.4726 32.2547C15.0869 32.9258 15.9546 33.3077 16.8663 33.3077H24.3754C28.2754 33.3077 30.8754 30.8702 30.8754 26.8077V12.8798C30.8754 9.16506 26.0004 9.16506 26.0004 12.8798V13.8077" stroke="white" stroke-width="1.5" stroke-linecap="round" stroke-linejoin="round"/>
<path d="M21.125 13.8125V11.4189M21.125 11.4189V10.5625M21.125 11.4189C21.125 7.70412 26 7.70412 26 11.4189V13.8125" stroke="white" stroke-width="1.5" stroke-linecap="round" stroke-linejoin="round"/>
<path d="M21.125 13.8095V11.4159C21.125 7.70112 26 7.70112 26 11.4159V13.8095M16.25 13.8095V10.5595C16.25 6.84475 21.125 6.84475 21.125 10.5595V13.8095M11.375 21.9345V10.5595C11.375 9.91303 11.6318 9.29305 12.0889 8.83593C12.546 8.37881 13.166 8.122 13.8125 8.122C15.158 8.122 16.25 9.02387 16.25 10.371V13.8095" fill="#636363"/>
<path d="M26 13.8095V11.4159C26 7.70112 21.125 7.70112 21.125 11.4159V13.8095V10.5595C21.125 6.84475 16.25 6.84475 16.25 10.5595V13.8095V10.371C16.25 9.02387 15.158 8.122 13.8125 8.122C13.166 8.122 12.546 8.37881 12.0889 8.83593C11.6318 9.29305 11.375 9.91303 11.375 10.5595V21.9345" stroke="white" stroke-width="1.5" stroke-linecap="round" stroke-linejoin="round"/>
</svg>
