<svg width="42" height="42" viewBox="0 0 42 42" fill="none" xmlns="http://www.w3.org/2000/svg">
<path d="M37.6224 22.8428V23.1455M37.6224 23.1455C37.6169 22.3987 37.3462 21.6781 36.8587 21.1124C36.3711 20.5466 35.6984 20.1725 34.9606 20.0568L32.8431 19.7103V21.2765M37.6224 23.1455L37.6206 27.0183C37.6206 30.4203 37.6206 32.1213 37.0956 33.4758C36.693 34.5051 36.0783 35.4381 35.2913 36.2142C34.5044 36.9903 33.5629 37.592 32.5281 37.9803C31.1544 38.5 29.4289 38.5 25.9779 38.5C24.1684 38.5 23.2636 38.5 22.4201 38.318C21.1383 38.0406 19.9446 37.4516 18.9446 36.603C18.2919 36.0483 17.7476 35.3343 16.6626 33.908L11.8781 27.615C11.5217 27.1468 11.3329 26.5724 11.3421 25.984C11.3513 25.3956 11.558 24.8274 11.9289 24.3705C12.1674 24.0789 12.4642 23.8402 12.8001 23.6697C13.136 23.4991 13.5038 23.4003 13.88 23.3798C14.2562 23.3592 14.6326 23.4172 14.9851 23.5501C15.3377 23.683 15.6586 23.8879 15.9276 24.1518L18.3479 26.698V11.375C18.3479 10.6779 18.6248 10.0093 19.1177 9.51639C19.6107 9.02345 20.2792 8.74652 20.9764 8.74652C21.6735 8.74652 22.3421 9.02345 22.835 9.51639C23.3279 10.0093 23.6049 10.6779 23.6049 11.375V16.5795M32.8431 21.2765C32.8431 19.5475 31.4169 18.144 29.6581 18.144H28.0656V19.7103V21.2765M32.8431 21.2765V22.8428M28.0639 19.7103C28.0639 17.9813 26.6394 16.5778 24.8789 16.5778H23.6049V21.2765" stroke="#F4C10B" stroke-width="1.5" stroke-linecap="round" stroke-linejoin="round"/>
<path d="M18.3474 16.625C16.1949 15.4315 14.8439 13.1355 14.8439 10.5C14.8439 6.63253 17.9817 3.50003 21.8527 3.50003C23.4066 3.49564 24.9178 4.0087 26.1479 4.95829C27.3779 5.90789 28.2568 7.23996 28.646 8.7444C29.0351 10.2488 28.9124 11.84 28.297 13.267C27.6817 14.6939 26.6088 15.8754 25.2477 16.625M13.7939 10.5403H4.37891M4.37891 10.5403C4.37891 11.3768 5.28016 11.7548 5.84366 12.2693L7.91216 14.0175M4.37891 10.5403C4.37891 9.64603 5.29416 9.27328 5.84366 8.75178L7.91216 6.98253" stroke="#F4C10B" stroke-width="1.5" stroke-linecap="round" stroke-linejoin="round"/>
</svg>
