<svg width="16" height="16" viewBox="0 0 16 16" fill="none" xmlns="http://www.w3.org/2000/svg">
<path d="M8.70703 12C8.8451 12 8.95703 11.8881 8.95703 11.75C8.95703 11.6119 8.8451 11.5 8.70703 11.5C8.56896 11.5 8.45703 11.6119 8.45703 11.75C8.45703 11.8881 8.56896 12 8.70703 12Z" fill="#F5D011"/>
<path fill-rule="evenodd" clip-rule="evenodd" d="M5.66927 7.9987C6.95827 7.9987 8.0026 6.95436 8.0026 5.66536C8.0026 4.37636 6.95827 3.33203 5.66927 3.33203C4.38027 3.33203 3.33594 4.37636 3.33594 5.66536C3.33594 6.95436 4.38027 7.9987 5.66927 7.9987ZM7.33594 5.66536C7.33594 6.58636 6.59027 7.33203 5.66927 7.33203C4.74827 7.33203 4.0026 6.58636 4.0026 5.66536C4.0026 4.74436 4.74827 3.9987 5.66927 3.9987C6.59027 3.9987 7.33594 4.74436 7.33594 5.66536ZM1.33594 12.6654V10.7987C1.33594 9.38003 4.22294 8.66536 5.66927 8.66536C6.63127 8.66536 8.23094 8.9817 9.19427 9.61103C9.88094 9.42536 10.6339 9.33203 11.1693 9.33203C11.7886 9.33203 12.6196 9.4567 13.3059 9.7087C13.6479 9.8347 13.9756 10 14.2233 10.214C14.4729 10.4297 14.6693 10.7214 14.6693 11.0874V12.6654H1.33594ZM2.0026 10.7987C2.0026 10.693 2.05127 10.5484 2.25794 10.3604C2.46894 10.1684 2.7936 9.98236 3.2046 9.82036C4.02827 9.49536 5.02827 9.33203 5.66927 9.33203C6.31027 9.33203 7.3106 9.49536 8.1336 9.82036C8.54494 9.98236 8.8696 10.1684 9.08027 10.3604C9.28727 10.5484 9.33594 10.693 9.33594 10.7987V11.9987H2.0026V10.7987ZM9.78694 10.1554C10.2913 10.051 10.7969 9.9987 11.1693 9.9987C11.7183 9.9987 12.4703 10.112 13.0759 10.3347C13.3789 10.446 13.6239 10.5774 13.7876 10.7187C13.9493 10.8584 14.0026 10.981 14.0026 11.0877V11.9987H10.0026V10.7987C10.0026 10.5654 9.92427 10.3504 9.78694 10.1554ZM13.0026 6.83203C13.0026 7.84503 12.1823 8.66536 11.1693 8.66536C10.683 8.66536 10.2167 8.47221 9.87291 8.12839C9.52909 7.78458 9.33594 7.31826 9.33594 6.83203C9.33594 5.81903 10.1563 4.9987 11.1693 4.9987C12.1823 4.9987 13.0026 5.81903 13.0026 6.83203ZM11.1693 7.9987C11.8139 7.9987 12.3359 7.4767 12.3359 6.83203C12.3359 6.18736 11.8139 5.66536 11.1693 5.66536C10.8599 5.66536 10.5631 5.78828 10.3443 6.00707C10.1255 6.22587 10.0026 6.52261 10.0026 6.83203C10.0026 7.4767 10.5246 7.9987 11.1693 7.9987Z" fill="white"/>
</svg>
