<svg width="16" height="16" viewBox="0 0 16 16" fill="none" xmlns="http://www.w3.org/2000/svg">
<path d="M8.70703 12C8.8451 12 8.95703 11.8881 8.95703 11.75C8.95703 11.6119 8.8451 11.5 8.70703 11.5C8.56896 11.5 8.45703 11.6119 8.45703 11.75C8.45703 11.8881 8.56896 12 8.70703 12Z" fill="#F5D011"/>
<path d="M4.66406 10H5.9974C5.9974 10.72 6.91073 11.3333 7.9974 11.3333C9.08406 11.3333 9.9974 10.72 9.9974 10C9.9974 9.26667 9.30406 9 7.8374 8.64667C6.42406 8.29333 4.66406 7.85333 4.66406 6C4.66406 4.80667 5.64406 3.79333 6.9974 3.45333V2H8.9974V3.45333C10.3507 3.79333 11.3307 4.80667 11.3307 6H9.9974C9.9974 5.28 9.08406 4.66667 7.9974 4.66667C6.91073 4.66667 5.9974 5.28 5.9974 6C5.9974 6.73333 6.69073 7 8.1574 7.35333C9.57073 7.70667 11.3307 8.14667 11.3307 10C11.3307 11.1933 10.3507 12.2067 8.9974 12.5467V14H6.9974V12.5467C5.64406 12.2067 4.66406 11.1933 4.66406 10Z" fill="white"/>
</svg>
