<svg width="24" height="24" viewBox="0 0 24 24" fill="none" xmlns="http://www.w3.org/2000/svg">
<path d="M12 0C5.374 0 0 5.374 0 12C0 18.626 5.374 24 12 24C18.626 24 24 18.626 24 12C24 5.374 18.629 0 12 0ZM5.92 12.403L5.971 12.322L9.094 7.438C9.10446 7.42195 9.11904 7.40899 9.13621 7.4005C9.15339 7.392 9.17253 7.38828 9.19164 7.38971C9.21075 7.39114 9.22912 7.39767 9.24484 7.40863C9.26056 7.41959 9.27305 7.43457 9.281 7.452C9.801 8.621 10.253 10.075 10.041 10.98C9.953 11.352 9.706 11.856 9.427 12.322C9.39186 12.3905 9.3528 12.457 9.31 12.521C9.30031 12.5358 9.28688 12.5477 9.27107 12.5556C9.25526 12.5635 9.23764 12.5671 9.22 12.566H6.013C5.99386 12.5663 5.97499 12.5614 5.95841 12.5518C5.94182 12.5423 5.92814 12.5284 5.91881 12.5117C5.90948 12.495 5.90485 12.476 5.90541 12.4569C5.90597 12.4378 5.9117 12.4191 5.922 12.403H5.92ZM19.834 14.083C19.8341 14.1043 19.828 14.1252 19.8165 14.1432C19.805 14.1611 19.7885 14.1753 19.769 14.184C19.526 14.287 18.699 14.669 18.355 15.146C17.477 16.368 16.807 18.116 15.307 18.116H9.053C8.525 18.1151 8.00236 18.0102 7.51491 17.8072C7.02747 17.6043 6.58478 17.3073 6.21213 16.9333C5.83947 16.5592 5.54415 16.1154 5.34304 15.6272C5.14192 15.139 5.03895 14.616 5.04 14.088V14.016C5.04 13.958 5.088 13.91 5.148 13.91H8.633C8.703 13.91 8.753 13.973 8.748 14.042C8.722 14.268 8.765 14.501 8.873 14.712C9.079 15.132 9.509 15.394 9.972 15.394H11.698V14.047H9.99C9.96999 14.0468 9.95041 14.0411 9.93338 14.0306C9.91635 14.0201 9.90251 14.0051 9.89335 13.9873C9.8842 13.9695 9.88007 13.9496 9.88142 13.9296C9.88276 13.9096 9.88954 13.8904 9.901 13.874L9.964 13.784C10.124 13.553 10.355 13.198 10.585 12.792C10.741 12.518 10.893 12.226 11.015 11.932C11.0377 11.8787 11.0593 11.8253 11.08 11.772C11.113 11.678 11.147 11.59 11.171 11.503C11.1944 11.4292 11.2161 11.3548 11.236 11.28C11.293 11.03 11.317 10.766 11.317 10.493C11.317 10.385 11.313 10.272 11.303 10.166C11.298 10.049 11.283 9.931 11.269 9.814C11.2585 9.70923 11.2425 9.60509 11.221 9.502C11.1937 9.34493 11.161 9.18884 11.123 9.034L11.109 8.974C11.079 8.866 11.053 8.764 11.019 8.657C10.9236 8.32847 10.8141 8.00418 10.691 7.685C10.6482 7.5649 10.6008 7.44648 10.549 7.33C10.477 7.152 10.403 6.991 10.336 6.84C10.3029 6.7752 10.2715 6.70951 10.242 6.643C10.2094 6.5712 10.175 6.50018 10.139 6.43C10.115 6.377 10.086 6.326 10.067 6.278L9.856 5.89C9.827 5.837 9.875 5.772 9.933 5.789L11.253 6.146H11.263L11.436 6.196L11.628 6.25L11.698 6.269V5.486C11.698 5.107 12 4.8 12.377 4.8C12.466 4.79976 12.5542 4.81753 12.6361 4.85225C12.7181 4.88696 12.7922 4.9379 12.854 5.002C12.9808 5.13138 13.0525 5.30487 13.054 5.486V6.65L13.195 6.689C13.2057 6.69367 13.216 6.69933 13.226 6.706C13.2607 6.73067 13.3097 6.76733 13.373 6.816C13.4223 6.85533 13.4773 6.901 13.538 6.953C13.7357 7.11363 13.9272 7.28175 14.112 7.457C14.326 7.656 14.566 7.889 14.796 8.148C14.861 8.222 14.923 8.294 14.988 8.374C15.05 8.453 15.12 8.53 15.178 8.606C15.257 8.71 15.338 8.818 15.413 8.93C15.446 8.983 15.487 9.038 15.518 9.091C15.614 9.233 15.696 9.379 15.775 9.526C15.809 9.593 15.842 9.667 15.871 9.739C15.96 9.936 16.03 10.135 16.073 10.337C16.0856 10.3803 16.0953 10.4244 16.102 10.469V10.479C16.116 10.536 16.121 10.599 16.126 10.663C16.1528 10.9586 16.1167 11.2564 16.02 11.537C15.989 11.621 15.96 11.707 15.922 11.791C15.847 11.961 15.761 12.134 15.658 12.293C15.624 12.353 15.583 12.415 15.545 12.475C15.502 12.538 15.456 12.598 15.418 12.655C15.3629 12.7307 15.3052 12.8044 15.245 12.876C15.193 12.9493 15.1377 13.019 15.079 13.085C14.999 13.183 14.9173 13.2757 14.834 13.363C14.786 13.421 14.734 13.481 14.678 13.533C14.626 13.593 14.57 13.646 14.522 13.694C14.438 13.778 14.372 13.841 14.314 13.896L14.177 14.018C14.1676 14.0276 14.1564 14.0352 14.144 14.0403C14.1317 14.0455 14.1184 14.0481 14.105 14.048H13.054V15.394H14.376C14.671 15.394 14.952 15.29 15.18 15.096C15.257 15.029 15.595 14.736 15.996 14.294C16.0093 14.2793 16.0267 14.2688 16.046 14.264L19.696 13.207C19.712 13.2024 19.7289 13.2015 19.7453 13.2045C19.7617 13.2075 19.7772 13.2142 19.7906 13.2242C19.804 13.2342 19.8148 13.2471 19.8224 13.262C19.8299 13.2769 19.8339 13.2933 19.834 13.31V14.083Z" fill="white"/>
</svg>
