<svg width="28" height="28" viewBox="0 0 28 28" fill="none" xmlns="http://www.w3.org/2000/svg">
<path d="M25.5 11.75C25.5 11.9766 25.4609 12.1836 25.3828 12.3711C25.3047 12.5586 25.1953 12.7383 25.0547 12.9102C24.9141 13.082 24.7617 13.2305 24.5977 13.3555C24.4336 13.4805 24.2578 13.5977 24.0703 13.707C23.9844 13.7617 23.9062 13.7969 23.8359 13.8125C23.7656 13.8281 23.6875 13.8789 23.6016 13.9648L18 19.5664V24.875C18 25.1875 17.8906 25.4531 17.6719 25.6719C17.4531 25.8906 17.1875 26 16.875 26H11.625C11.3125 26 11.0469 25.8906 10.8281 25.6719C10.6094 25.4531 10.5 25.1875 10.5 24.875V19.5664L4.89844 13.9648C4.82031 13.8867 4.74609 13.8398 4.67578 13.8242C4.60547 13.8086 4.52344 13.7695 4.42969 13.707C4.25 13.6055 4.07422 13.4883 3.90234 13.3555C3.73047 13.2227 3.57812 13.0742 3.44531 12.9102C3.3125 12.7461 3.20703 12.5703 3.12891 12.3828C3.05078 12.1953 3.00781 11.9844 3 11.75C3 10.7578 3.14844 9.82812 3.44531 8.96094C3.74219 8.09375 4.15625 7.30078 4.6875 6.58203C5.21875 5.86328 5.84375 5.21875 6.5625 4.64844C7.28125 4.07812 8.05469 3.59766 8.88281 3.20703C9.71094 2.81641 10.582 2.51953 11.4961 2.31641C12.4102 2.11328 13.3281 2.00781 14.25 2C15.1641 2 16.0781 2.10156 16.9922 2.30469C17.9062 2.50781 18.7773 2.80859 19.6055 3.20703C20.4336 3.60547 21.2109 4.08203 21.9375 4.63672C22.6641 5.19141 23.2852 5.83594 23.8008 6.57031C24.3164 7.30469 24.7305 8.10156 25.043 8.96094C25.3555 9.82031 25.5078 10.75 25.5 11.75ZM14.25 3.5C13.4766 3.5 12.6992 3.58594 11.918 3.75781C11.1367 3.92969 10.3828 4.17969 9.65625 4.50781C8.92969 4.83594 8.25391 5.23438 7.62891 5.70312C7.00391 6.17188 6.46094 6.71484 6 7.33203C5.53906 7.94922 5.17188 8.625 4.89844 9.35938C4.625 10.0938 4.49219 10.8906 4.5 11.75C4.5 11.8125 4.51953 11.8711 4.55859 11.9258C4.59766 11.9805 4.64453 12.0352 4.69922 12.0898C4.75391 12.1445 4.8125 12.1914 4.875 12.2305C4.9375 12.2695 4.98828 12.3008 5.02734 12.3242C5.38672 12.5508 5.80469 12.75 6.28125 12.9219C6.75781 13.0938 7.27344 13.2422 7.82812 13.3672C8.38281 13.4922 8.94531 13.5938 9.51562 13.6719C10.0859 13.75 10.6602 13.8125 11.2383 13.8594C11.8164 13.9062 12.3555 13.9414 12.8555 13.9648C13.3555 13.9883 13.8203 14 14.25 14C14.6562 14 15.1172 13.9922 15.6328 13.9766C16.1484 13.9609 16.6875 13.9258 17.25 13.8711C17.8125 13.8164 18.3867 13.75 18.9727 13.6719C19.5586 13.5938 20.125 13.4922 20.6719 13.3672C21.2188 13.2422 21.7305 13.0938 22.207 12.9219C22.6836 12.75 23.1055 12.5508 23.4727 12.3242C23.5117 12.3008 23.5586 12.2695 23.6133 12.2305C23.668 12.1914 23.7266 12.1445 23.7891 12.0898C23.8516 12.0352 23.9023 11.9805 23.9414 11.9258C23.9805 11.8711 24 11.8125 24 11.75C24 10.8984 23.8672 10.1055 23.6016 9.37109C23.3359 8.63672 22.9727 7.96094 22.5117 7.34375C22.0508 6.72656 21.5039 6.18359 20.8711 5.71484C20.2383 5.24609 19.5664 4.84375 18.8555 4.50781C18.1445 4.17188 17.3906 3.92188 16.5938 3.75781C15.7969 3.59375 15.0156 3.50781 14.25 3.5ZM13.5 15.4883C12.5781 15.4727 11.6562 15.4219 10.7344 15.3359C9.8125 15.25 8.89844 15.1133 7.99219 14.9258L11.5664 18.5H13.5V15.4883ZM16.5 20H12V24.5H16.5V20ZM20.5078 14.9258C19.6016 15.1055 18.6875 15.2383 17.7656 15.3242C16.8438 15.4102 15.9219 15.4648 15 15.4883V18.5H16.9336L20.5078 14.9258Z" fill="white"/>
</svg>
