<svg width="28" height="28" viewBox="0 0 28 28" fill="none" xmlns="http://www.w3.org/2000/svg">
<g clip-path="url(#clip0_470_10760)">
<path d="M13.9205 13.4585C16.0205 13.4585 17.6538 11.7474 17.6538 9.6474C17.6538 7.5474 15.9427 5.91406 13.8427 5.91406C11.7427 5.91406 10.1094 7.62517 10.1094 9.6474C10.1094 11.7474 11.8205 13.4585 13.9205 13.4585ZM13.8427 7.46962C13.9205 7.46962 13.9205 7.46962 13.8427 7.46962C15.0872 7.46962 16.0983 8.48073 16.0983 9.72517C16.0983 10.9696 15.0872 11.903 13.8427 11.903C12.5983 11.903 11.6649 10.8918 11.6649 9.72517C11.6649 8.48073 12.676 7.46962 13.8427 7.46962Z" fill="#FBFBFB"/>
<path d="M25.4346 12.9894C23.9569 11.6671 22.0124 10.9671 19.9902 11.0449H19.368C19.2124 11.6671 18.9791 12.2116 18.668 12.6782C19.1346 12.6005 19.5235 12.6005 19.9902 12.6005C21.468 12.5227 22.9457 12.9894 24.1124 13.8449V19.4449H25.668V13.2227L25.4346 12.9894Z" fill="#FBFBFB"/>
<path d="M18.1983 6.06597C18.5872 5.13264 19.676 4.66597 20.6872 5.05486C21.6205 5.44375 22.0872 6.53264 21.6983 7.54375C21.3872 8.24375 20.6872 8.71042 19.9872 8.71042C19.8316 8.71042 19.5983 8.71042 19.4427 8.63264C19.5205 9.02153 19.5205 9.41042 19.5205 9.72153V10.1882C19.676 10.1882 19.8316 10.266 19.9872 10.266C21.9316 10.266 23.4872 8.71042 23.4872 6.84375C23.4872 4.89931 21.9316 3.34375 20.0649 3.34375C18.8205 3.34375 17.7316 3.96597 17.1094 5.05486C17.4983 5.28819 17.8872 5.59931 18.1983 6.06597Z" fill="#FBFBFB"/>
<path d="M9.33203 12.7564C9.02092 12.2897 8.78759 11.7453 8.63203 11.1231H8.00981C5.98759 11.0453 4.04314 11.7453 2.56536 12.9897L2.33203 13.223V19.4453H3.88759V13.8453C5.13203 12.9897 6.53203 12.5231 8.00981 12.6008C8.47648 12.6008 8.94314 12.6786 9.33203 12.7564Z" fill="#FBFBFB"/>
<path d="M8.01267 10.1849C8.16822 10.1849 8.32378 10.1849 8.47933 10.1071V9.64044C8.47933 9.25156 8.47933 8.86267 8.55711 8.55156C8.40156 8.62933 8.16822 8.62933 8.01267 8.62933C7.00156 8.62933 6.146 7.77378 6.146 6.76267C6.146 5.75156 7.00156 4.896 8.01267 4.896C8.79045 4.896 9.49045 5.36267 9.80156 6.06267C10.1127 5.67378 10.5793 5.28489 10.9682 4.97378C9.95711 3.34045 7.85711 2.796 6.22378 3.80711C4.59045 4.81822 4.046 6.91822 5.05711 8.55156C5.67933 9.56267 6.76822 10.1849 8.01267 10.1849Z" fill="#FBFBFB"/>
<path d="M20.2996 17.6554L20.144 17.4221C18.5885 15.711 16.4107 14.6998 14.0773 14.7776C11.744 14.6998 9.48845 15.711 7.9329 17.4221L7.77734 17.6554V23.5665C7.77734 24.2665 8.32179 24.8887 9.09957 24.8887H19.0551C19.7551 24.8887 20.3773 24.2665 20.3773 23.5665V17.6554H20.2996ZM18.744 23.3332H9.3329V18.1998C10.5773 16.9554 12.2885 16.3332 14.0773 16.3332C15.7885 16.2554 17.4996 16.9554 18.744 18.1998V23.3332Z" fill="#FBFBFB"/>
</g>
<defs>
<clipPath id="clip0_470_10760">
<rect width="28" height="28" fill="white"/>
</clipPath>
</defs>
</svg>
