<svg width="191" height="335" viewBox="0 0 191 335" fill="none" xmlns="http://www.w3.org/2000/svg">
<g clip-path="url(#clip0_91_192)">
<path d="M89.1141 275.188C92.1021 288.646 107.042 282.664 96.5842 330.514V335C99.5722 331.013 107.042 317.654 113.018 296.122C120.488 269.207 105.548 275.188 110.03 251.263C114.512 227.338 105.548 275.188 168.296 240.796C231.044 206.404 145.886 230.329 126.464 207.899C107.042 185.47 139.91 183.974 110.03 180.984C80.1501 177.993 95.0901 152.573 105.548 127.153C116.006 101.732 117.5 106.218 80.1501 97.2466C42.8001 88.2747 66.7041 77.8076 95.0901 73.3217C123.476 68.8358 114.512 68.8358 105.548 29.9579C96.5842 -8.92006 105.548 -8.92006 126.464 -43.3121C147.38 -77.7041 153.356 -86.6759 135.428 -125.554C117.5 -164.432 9.93204 -144.993 2.46202 -125.554C-5.008 -106.115 20.39 -98.6383 51.7641 -53.7792C83.1381 -8.92006 63.7161 15.0048 38.3181 34.4438C12.9201 53.8827 -15.466 52.3874 9.93204 101.732C35.3301 151.078 54.7521 118.181 80.1501 157.059C105.548 195.937 81.6441 194.441 63.7161 207.899C45.7881 221.357 66.7041 239.301 84.6321 251.263C102.56 263.225 86.1261 261.73 89.1141 275.188Z" fill="url(#paint0_linear_91_192)"/>
</g>
<defs>
<linearGradient id="paint0_linear_91_192" x1="95.6161" y1="336.479" x2="83.9796" y2="-0.499301" gradientUnits="userSpaceOnUse">
<stop stop-color="#C6C6C6"/>
<stop offset="1" stop-color="#C6C6C6" stop-opacity="0"/>
</linearGradient>
<clipPath id="clip0_91_192">
<rect width="191" height="335" fill="white"/>
</clipPath>
</defs>
</svg>
