<svg width="108" height="100" viewBox="0 0 108 100" fill="none" xmlns="http://www.w3.org/2000/svg">
<path fill-rule="evenodd" clip-rule="evenodd" d="M49.5522 0.00212981C49.911 -0.00946011 50.0846 0.0253103 50.0846 0.12962C50.0846 0.210749 49.7837 0.326647 49.3207 0.407777C48.904 0.477316 48.3831 0.512086 48.1632 0.465726C47.9433 0.419367 47.7465 0.315058 47.7234 0.245519C47.7002 0.141209 47.8854 0.0832592 48.3484 0.0600794C48.7188 0.0368995 49.2628 0.0137197 49.5522 0.00212981ZM46.8437 0.349827C46.9247 0.338237 46.9941 0.384597 46.9941 0.442547C46.9941 0.512086 47.0057 0.593216 47.0173 0.627986C47.0404 0.662756 45.8251 0.998864 44.3319 1.38133C42.8388 1.75221 41.5076 2.06514 41.3803 2.06514C41.253 2.06514 40.871 1.94924 40.5353 1.79857C40.1997 1.65949 39.9334 1.52041 39.9334 1.48564C39.9334 1.45087 40.5469 1.25384 41.2877 1.04522C42.0401 0.848195 43.1744 0.616396 43.811 0.558446C44.4477 0.488907 45.3621 0.430957 45.8367 0.407777C46.3112 0.384597 46.7742 0.361417 46.8437 0.349827ZM55.0271 0.454138C55.8837 0.492771 56.6785 0.616396 57.4116 0.825014C58.0135 0.987273 58.9279 1.27702 59.4372 1.46246C59.9465 1.6479 60.8956 2.04195 61.5438 2.34329C62.2036 2.63304 62.9907 3.01551 63.3148 3.20095C63.6273 3.37479 63.9051 3.56023 63.9398 3.62977C63.963 3.69931 63.5 3.78044 62.7476 3.8268C62.0763 3.87316 60.9419 3.98906 60.2474 4.08178C59.5529 4.18609 58.7658 4.2904 58.5112 4.31358C58.2565 4.34835 57.8167 4.4063 57.5273 4.44107C57.0296 4.51061 56.9601 4.47584 56.0805 3.84998C55.5712 3.4791 54.8419 3.00392 54.46 2.78371C54.078 2.5635 53.2677 2.13467 52.6659 1.83334C52.064 1.532 51.3695 1.23066 51.1264 1.16112C50.8949 1.07999 50.6865 0.952504 50.675 0.859785C50.6634 0.743885 50.9991 0.662755 52.0408 0.558446C52.7932 0.488907 53.4877 0.419367 53.5803 0.407777C53.6613 0.396187 54.3211 0.419368 55.0271 0.454138ZM60.4905 0.964093C60.9303 1.04522 61.5207 1.17271 61.81 1.25384C62.0994 1.33497 62.4119 1.40451 62.5045 1.42769C62.5971 1.45087 63.1411 1.60154 63.7199 1.77539C64.2986 1.93765 65.2594 2.23899 65.8613 2.43601C66.4632 2.63304 67.1692 2.87643 67.4239 2.99233C67.6785 3.10823 68.3383 3.38638 68.8939 3.61818C69.4611 3.84998 69.9125 4.08178 69.9125 4.15132C69.9125 4.22086 69.7389 4.24404 69.5305 4.22086C69.3337 4.18609 68.454 4.10496 67.5975 4.03542C66.7409 3.95429 65.9538 3.86157 65.8613 3.81521C65.7687 3.76885 65.3983 3.56023 65.051 3.37479C64.7038 3.17777 63.9977 2.80689 63.4884 2.55191C62.9791 2.29693 62.2267 1.96083 61.81 1.79857C61.3933 1.63631 60.7567 1.40451 60.3979 1.28861C60.0275 1.17271 59.7266 1.02204 59.715 0.952502C59.7034 0.848193 59.9117 0.859784 60.4905 0.964093ZM48.522 1.14953C48.6378 1.13794 49.0082 1.24225 49.3323 1.36974C49.668 1.48564 50.3624 1.79857 50.8717 2.04195C51.381 2.29693 52.1103 2.69099 52.4922 2.93438C52.8742 3.17777 53.5918 3.66454 54.0896 4.02383C54.5873 4.38312 54.9924 4.71923 54.9924 4.78876C54.9924 4.8583 54.7841 4.96262 54.5526 5.04374C54.3095 5.11328 53.777 5.24077 53.3603 5.3219C52.9437 5.40303 52.0061 5.61165 51.2769 5.7855C50.5476 5.95935 49.367 6.27227 48.6725 6.4693C47.978 6.66633 47.2372 6.87495 47.052 6.9329C46.8552 6.99085 46.6006 7.07198 46.4733 7.10675C46.2881 7.1647 46.1376 7.0488 45.7209 6.44612C45.4315 6.05206 44.5634 5.06692 43.7879 4.26722C43.0008 3.46751 42.3642 2.78371 42.3642 2.73735C42.3642 2.6794 42.5378 2.59827 42.7346 2.54032C42.9429 2.47078 43.5332 2.30852 44.0425 2.18103C44.5518 2.04196 45.0727 1.90288 45.2 1.8797C45.3274 1.85652 45.7672 1.7638 46.1839 1.65949C46.6006 1.55518 47.2488 1.40451 47.6308 1.32338C48.0127 1.23066 48.4179 1.16112 48.522 1.14953ZM38.5097 1.96083C38.7181 1.94924 39.0769 2.04195 39.2968 2.15785C39.5283 2.26216 39.702 2.42442 39.702 2.50555C39.702 2.57509 39.5862 2.69099 39.4357 2.74894C39.2968 2.80689 38.556 3.07346 37.7921 3.34003C37.0281 3.60659 36.0327 3.96588 35.5929 4.12814C35.1414 4.2904 34.7363 4.46425 34.6669 4.5222C34.609 4.56856 34.4585 4.61492 34.3196 4.61492C34.1113 4.61492 34.0997 4.56855 34.1691 4.12814C34.2154 3.84998 34.3543 3.53706 34.4585 3.42116C34.5743 3.30526 35.2919 2.99233 36.0559 2.72576C36.8198 2.4476 37.5953 2.16944 37.7921 2.0999C37.9773 2.03036 38.313 1.97242 38.5097 1.96083ZM40.6858 3.13141L41.5887 4.08178C42.0864 4.59174 42.9082 5.58847 43.4059 6.29545C43.9152 7.00244 44.3203 7.60511 44.3319 7.66306C44.3319 7.70942 43.9036 7.88327 43.3712 8.04553C42.8503 8.21938 41.5308 8.68298 40.4543 9.07703C39.3663 9.48268 37.8268 10.0738 37.005 10.3983C36.1948 10.7228 35.5003 10.9894 35.4424 10.9894C35.3961 10.9894 35.2456 10.4794 35.0951 9.86515C34.9447 9.23929 34.7016 8.12666 34.5395 7.3965C34.3891 6.66633 34.2617 5.94775 34.2617 5.80868C34.2617 5.61165 34.3891 5.48416 34.7479 5.3219C35.0257 5.206 36.2295 4.7424 37.4448 4.30199C38.6602 3.84998 39.8756 3.40956 40.1649 3.31684L40.6858 3.13141ZM32.9422 4.15132C33.0348 4.13973 33.0579 4.31358 33.0232 4.6381C32.9885 4.90467 32.9075 5.19441 32.8265 5.27554C32.757 5.35667 32.6413 5.42621 32.5834 5.42621C32.5255 5.41462 31.5185 5.88981 30.3494 6.45771C29.1919 7.03721 28.2196 7.5008 28.1849 7.5008C28.1502 7.5008 28.127 7.44286 28.127 7.36173C28.1386 7.2806 28.3007 7.02562 28.509 6.79382C28.7174 6.55043 29.1919 6.16796 29.5739 5.92457C29.9559 5.68119 30.8471 5.18282 31.5416 4.81195C32.2361 4.45266 32.8727 4.15132 32.9422 4.15132ZM64.9353 5.07851C66.3358 5.06692 66.3937 5.07851 66.8683 5.39144C67.1229 5.56529 67.7248 5.99412 68.1994 6.3534C68.6624 6.7011 69.6926 7.60511 70.4912 8.33528C71.2899 9.07703 72.2853 10.039 72.702 10.4794C73.1187 10.9082 73.6743 11.5341 73.9521 11.847C74.2183 12.1715 74.4383 12.4497 74.4267 12.4845C74.4267 12.5192 73.3734 12.612 72.0886 12.6931C70.7922 12.7742 69.1948 12.9249 68.5235 13.0176C67.8521 13.1103 67.1229 13.203 66.903 13.2262C66.6831 13.2494 66.2085 13.3074 65.2246 13.4233L64.2986 12.1715C63.8009 11.4877 62.7592 10.2013 61.9837 9.30883C61.2197 8.428 60.1432 7.25742 59.5761 6.73587C59.0205 6.20273 58.6038 5.73914 58.6501 5.71596C58.708 5.69278 59.0784 5.63483 59.4951 5.60006C59.9117 5.5537 60.9766 5.42621 61.8679 5.31031C62.7592 5.18282 64.1366 5.0901 64.9353 5.07851ZM69.38 5.11328C69.9009 5.14805 70.8385 5.27554 71.4751 5.39144C72.1117 5.50734 72.922 5.73914 73.2692 5.91299C73.6164 6.07525 74.3225 6.49248 74.8318 6.82859C75.3411 7.17629 76.3018 7.86009 76.9732 8.37005C77.6445 8.86841 78.2117 9.30883 78.2464 9.35519C78.2811 9.38996 78.6631 9.72607 79.1145 10.1085C79.5659 10.491 80.3762 11.2212 80.9434 11.7311C81.499 12.2411 82.0661 12.809 82.4713 13.3421L81.8925 13.261C81.5684 13.2262 80.9549 13.1103 80.5035 13.0176C80.0521 12.9249 78.9641 12.8206 76.4523 12.7163L75.7694 11.9282C75.3874 11.4993 74.473 10.549 73.7438 9.8072C73.003 9.07703 71.7992 7.97599 71.07 7.37331C70.3407 6.77064 69.4148 6.05207 69.0096 5.7855C68.5698 5.48416 68.3267 5.25236 68.373 5.17123C68.4309 5.07851 68.7434 5.05533 69.38 5.11328ZM56.5434 6.1216C56.6013 6.11001 57.1338 6.59679 57.7125 7.18788C58.3028 7.77896 59.3214 8.90318 59.9696 9.70289C60.6294 10.5026 61.5785 11.7311 62.0763 12.4265C62.574 13.1335 62.9791 13.7594 62.9907 13.8173C62.9907 13.8868 62.8286 13.968 62.6087 14.0027C62.3888 14.0375 61.567 14.2114 60.7683 14.3736C59.9696 14.5475 58.407 14.9183 57.2958 15.1965C56.1846 15.4863 54.8767 15.8224 54.4021 15.9499C53.9275 16.0889 53.1867 16.2975 51.9714 16.6568L51.5431 15.8803C51.3116 15.4515 50.8486 14.5938 50.5013 13.9912C50.1657 13.3885 49.8879 12.8785 49.8879 12.8669C49.8879 12.8438 49.6448 12.4265 49.3439 11.9397C49.0545 11.4414 48.6841 10.8271 48.522 10.5721C48.36 10.3172 47.9896 9.76084 47.7002 9.32042C47.353 8.82206 47.2141 8.49754 47.2835 8.428C47.3414 8.38164 47.7118 8.25415 48.0938 8.14984C48.4757 8.05712 49.3091 7.83691 49.9457 7.66306C50.5824 7.48921 52.307 7.08357 53.7655 6.74746C55.2239 6.39976 56.4856 6.1216 56.5434 6.1216ZM32.7223 6.2375C32.8226 6.22978 32.8882 6.50794 32.9191 7.07198C32.9538 7.53558 33.0811 8.50913 33.2084 9.23929C33.3358 9.96946 33.4631 10.8619 33.5904 11.847L32.5024 12.3106C31.912 12.5656 30.1063 13.4348 28.509 14.2461C26.5065 15.266 25.5574 15.6833 25.5227 15.5906C25.488 15.5094 25.569 14.7097 25.6963 13.8173C25.8236 12.9249 26.0204 11.905 26.1246 11.5573C26.2288 11.2096 26.4603 10.5026 26.9695 9.06544L28.3354 8.32369C29.0762 7.91804 30.3378 7.28059 31.1365 6.90972C31.9352 6.55043 32.6528 6.2375 32.7223 6.2375ZM26.657 7.8485C26.7033 7.8485 26.738 7.91804 26.738 7.99917C26.738 8.0803 26.6223 8.25415 26.4834 8.38164C26.3329 8.52072 25.9394 8.78728 25.6153 8.9959C25.2796 9.19293 24.9787 9.32042 24.9439 9.27406C24.9208 9.2277 25.268 8.88001 25.731 8.52072C26.1825 8.14984 26.5991 7.86009 26.657 7.8485ZM44.9685 9.13498C45.119 9.12339 45.3042 9.29724 45.501 9.62176C45.6746 9.88833 46.2186 10.8387 46.7163 11.7311C47.2025 12.6235 48.0475 14.2114 48.5799 15.266C49.1124 16.3207 49.5522 17.2363 49.5406 17.2943C49.5406 17.3638 49.2281 17.5029 48.8461 17.6188C48.4642 17.7231 47.9201 17.8158 47.6308 17.8158C47.3414 17.8158 46.7858 17.897 46.3923 17.9897C45.9871 18.0824 45.4547 18.2447 45.2 18.349C44.9454 18.4533 44.5866 18.6503 44.3898 18.7778C44.0425 19.0096 44.0425 19.0096 43.7532 18.7778C43.5911 18.6503 43.2786 18.4533 43.0587 18.3374C42.8388 18.2215 42.3642 18.0592 42.0169 17.9781C41.6234 17.8854 40.6164 17.8274 37.387 17.8158L37.0281 16.6337C36.8429 15.973 36.5767 15.127 36.4494 14.7445C36.3221 14.362 36.1253 13.7362 36.0096 13.3537C35.8475 12.8322 35.8244 12.6235 35.9285 12.5308C35.998 12.4729 36.4957 12.2295 37.0397 11.9977C37.5837 11.7659 38.6023 11.3602 39.2968 11.0821C39.9913 10.8155 41.5076 10.2708 42.6536 9.86515C43.7995 9.47109 44.8412 9.13498 44.9685 9.13498ZM25.4185 10.0622C25.4301 10.0506 25.4185 10.1665 25.3954 10.3172C25.3722 10.4562 25.3028 10.6764 25.2449 10.8039C25.187 10.9314 25.0018 11.4298 24.8513 11.905C24.7009 12.3802 24.4578 13.2726 24.3189 13.8753C24.18 14.4779 24.0295 15.3704 23.9022 16.7032L21.5872 18.094L20.9506 17.9549C20.6033 17.8854 19.9088 17.8158 19.4227 17.8158C18.7745 17.8158 18.5199 17.7811 18.5199 17.6768C18.5199 17.5956 18.6356 17.2943 18.7629 17.0045C18.8903 16.7148 19.0986 16.2975 19.2144 16.0773C19.3301 15.8571 19.5848 15.3588 19.7931 14.9763C20.0014 14.5938 20.3718 13.968 20.6265 13.5855C20.9159 13.1683 21.3673 12.6931 21.8071 12.3802C22.1891 12.0904 23.0341 11.4993 23.6707 11.0705C24.3189 10.6301 24.9671 10.2244 25.1176 10.1665C25.2796 10.1085 25.4185 10.0622 25.4185 10.0622ZM81.1517 10.7808C81.2559 10.8619 81.8578 11.3487 82.4828 11.8702C83.1194 12.3918 83.9181 13.0987 84.2654 13.4464C84.6821 13.8637 84.8557 14.1071 84.7631 14.1534C84.6821 14.1882 84.4737 14.165 84.3001 14.0839C84.138 14.0027 83.2699 13.2146 82.3902 12.3454C81.5105 11.4646 80.8276 10.7228 80.8739 10.688C80.9086 10.6533 81.036 10.6996 81.1517 10.7808ZM33.9029 13.3421C33.9376 13.3653 34.0187 13.5855 34.065 13.8289C34.1228 14.0839 34.3428 14.9299 34.5511 15.7296C34.7595 16.5293 34.9678 17.3406 35.0025 17.5261C35.0836 17.8738 35.072 17.8738 34.3543 18.0824C33.9492 18.1983 33.4168 18.4069 32.6991 18.8357L32.1783 18.4996C31.8889 18.3142 31.3101 18.0824 30.8819 17.9897C30.3263 17.8738 29.4119 17.8158 27.7798 17.8158C26.3098 17.8158 25.4648 17.7811 25.4648 17.6999C25.4648 17.642 25.6384 17.4797 25.8468 17.3522C26.0436 17.2247 27.0274 16.6916 28.0113 16.1701C28.9952 15.6485 30.6851 14.814 31.7731 14.3157C32.8612 13.8173 33.764 13.3885 33.7872 13.3537C33.8103 13.3305 33.8566 13.3189 33.9029 13.3421ZM79.0798 14.5243C79.6701 14.5591 80.5151 14.6402 80.9665 14.6981C81.4179 14.7561 82.3208 14.9184 82.9921 15.0574C84.1265 15.2892 84.2422 15.3356 84.6589 15.776C84.9136 16.0426 85.4692 16.7264 85.8859 17.2943C86.3141 17.8738 87.0433 18.9401 87.5295 19.6702C88.0041 20.4004 88.7217 21.5826 89.1268 22.2779C89.532 22.9849 90.1917 24.2019 90.5853 25.0016C90.9904 25.8013 91.2798 26.4967 91.2335 26.543C91.1872 26.601 90.4464 26.5083 89.5898 26.346C88.7333 26.1953 87.8189 26.0331 87.5642 25.9983C87.3096 25.9635 86.8929 25.9288 86.6382 25.9172C86.3836 25.9172 85.7701 25.894 84.3811 25.8129L84.1265 25.2102C83.9876 24.8741 83.5709 23.9933 83.2121 23.2631C82.8532 22.5329 82.1703 21.258 81.6957 20.4236C81.2212 19.6007 80.4225 18.291 79.9248 17.5261C79.4271 16.7611 78.7904 15.8224 78.5126 15.4399C78.2348 15.0574 78.0033 14.6866 78.0033 14.6054C78.0033 14.5127 78.2927 14.4895 79.0798 14.5243ZM19.2722 14.675C19.3533 14.7561 19.2144 15.0806 18.8555 15.6949C18.5546 16.1932 18.1842 16.877 17.7096 17.8158H17.1309C16.8183 17.8158 16.5521 17.7695 16.5521 17.6999C16.5521 17.642 16.7142 17.3406 16.9225 17.0393C17.1309 16.738 17.7096 16.0542 18.2189 15.521C18.844 14.8836 19.1796 14.6054 19.2722 14.675ZM74.6003 14.5938C75.8967 14.5822 76.1282 14.6054 76.2439 14.7793C76.325 14.8836 76.5912 15.266 76.8227 15.6137C77.0542 15.9614 77.2857 16.2744 77.332 16.3091C77.3783 16.3439 77.6792 16.7843 77.9918 17.2943C78.3159 17.8042 78.8946 18.743 79.265 19.3805C79.647 20.0179 80.2604 21.0842 80.6193 21.7564C80.9781 22.4286 81.5453 23.576 81.8925 24.3062C82.2861 25.1638 82.4597 25.6854 82.3902 25.7549C82.3324 25.8245 81.3138 25.9056 80.1216 25.9519C78.9293 25.9983 77.1815 26.1374 76.2208 26.2649C75.2717 26.404 74.091 26.5662 73.6164 26.6358C73.1419 26.7053 72.6789 26.7864 72.6094 26.8096C72.5284 26.8444 72.3664 26.6358 72.239 26.3692C72.1233 26.091 71.8339 25.4304 71.5908 24.8857C71.3478 24.341 70.7459 23.0892 70.2481 22.1041C69.7504 21.119 69.1022 19.8672 68.8013 19.3225C68.5119 18.7778 68.0026 17.897 67.6901 17.3522C67.366 16.8075 66.9724 16.1932 66.7988 15.9846C66.5442 15.6485 66.521 15.579 66.6715 15.4978C66.7641 15.4399 67.2618 15.3356 67.7711 15.266C68.2804 15.1965 68.9055 15.1038 69.1601 15.0806C69.4147 15.0574 70.4102 14.9299 71.3593 14.814C72.3201 14.6981 73.7785 14.5938 74.6003 14.5938ZM64.1829 15.8571C64.3565 15.8455 64.5764 16.1005 65.0626 16.9118C65.4214 17.5029 66.1391 18.7778 66.6483 19.7282C67.1576 20.6901 67.9216 22.1736 68.3267 23.0313C68.7434 23.8889 69.3222 25.1407 69.6231 25.8129C69.9125 26.4851 70.144 27.0878 70.1092 27.1457C70.0861 27.2152 69.4958 27.3775 68.8013 27.5166C68.1068 27.6557 67.0419 27.8759 66.44 28.015C65.8381 28.1424 64.7501 28.3974 62.736 28.8842L62.3541 28.3163C62.1573 28.015 61.9142 27.7252 61.8332 27.6788C61.7059 27.6209 61.7174 27.5282 61.8563 27.1457C61.9489 26.8907 62.0763 26.4155 62.1457 26.0794C62.273 25.4652 62.273 25.4652 62.8865 25.3029C63.2106 25.2102 63.6967 24.9784 63.9514 24.793C64.206 24.6075 64.5533 24.2482 64.7269 24.0048C64.9005 23.7615 65.1436 23.321 65.2709 23.0313C65.3867 22.7415 65.5487 22.1968 65.6298 21.8143C65.7339 21.2696 65.7339 20.9683 65.6182 20.3656C65.5179 19.8634 65.3481 19.4577 65.1089 19.1487C64.9121 18.8937 64.5417 18.5576 64.2871 18.4069C64.044 18.2447 63.581 18.0592 63.2569 17.9665C62.8518 17.8622 61.7637 17.8158 59.7381 17.8158C57.4231 17.8158 56.7981 17.7811 56.8444 17.6768C56.8791 17.5956 57.481 17.387 58.1755 17.2132C58.87 17.0393 60.1664 16.738 61.0577 16.5409C61.9489 16.3439 62.9675 16.1121 63.3148 16.031C63.662 15.9383 64.0556 15.8687 64.1829 15.8571ZM86.5572 16.3555C86.7308 16.4482 87.1707 16.7727 87.5295 17.0741C87.8883 17.387 88.4902 18.0129 88.8606 18.4533C89.2426 18.9053 90.1454 20.1222 90.8862 21.1769C91.6154 22.2316 92.553 23.6108 92.9697 24.2482C93.3864 24.8857 93.9536 25.8476 94.2545 26.3924C94.5439 26.9371 94.9143 27.6441 95.0648 27.957C95.2268 28.2815 95.3426 28.5829 95.3078 28.6292C95.2847 28.6756 94.9606 28.5133 94.6018 28.2699C94.2314 28.0265 93.641 27.6904 93.2938 27.5282C92.6919 27.2616 92.634 27.1921 92.2521 26.3808C92.0321 25.9172 91.465 24.793 90.9904 23.9005C90.5158 23.0081 89.6824 21.571 89.1268 20.7133C88.5828 19.8557 87.68 18.5344 87.1244 17.7927C86.5688 17.0393 86.1405 16.3787 86.1868 16.3091C86.2215 16.2396 86.3604 16.2512 86.5572 16.3555ZM12.3504 20.6322C20.5107 20.6554 20.5918 20.6554 20.9159 20.8987C21.0895 21.0378 21.2863 21.316 21.3441 21.5362C21.4367 21.8607 21.3904 22.1273 21.1011 22.9733C20.9043 23.5528 20.476 24.7466 20.1519 25.639C19.8278 26.5314 19.4227 27.4702 19.2375 27.7252C19.0639 27.9802 18.6935 28.3511 17.918 28.8842L13.7163 28.9537L12.8019 31.4688C12.2926 32.8595 11.6791 34.5285 11.4129 35.2007C11.0425 36.1858 10.8457 36.522 10.4174 36.9392C10.0817 37.2753 9.69978 37.5187 9.37568 37.6114C8.99371 37.7273 8.05614 37.7505 2.68538 37.6925L2.38443 37.4028C2.14136 37.171 2.08348 37.0087 2.08348 36.5915C2.08348 36.2206 2.41916 35.1428 3.2294 32.9407C3.85445 31.2254 4.43319 29.6723 4.50264 29.4985C4.57209 29.3246 4.62997 29.1276 4.62997 29.058C4.62997 28.9885 3.85444 28.9306 0.555594 28.8842L0.277797 28.5713C0.0925986 28.3627 0 28.1077 0 27.8411C0 27.6209 0.185198 26.9255 0.393546 26.3112C0.61347 25.6854 1.03017 24.5264 1.31954 23.7267C1.60891 22.927 2.01403 22.0693 2.19923 21.8259C2.39601 21.571 2.7201 21.258 2.92845 21.1305C3.12523 21.0031 3.48405 20.8292 3.70397 20.7481C4.01649 20.6438 6.00738 20.609 12.3504 20.6322ZM27.2358 20.609C29.3771 20.5974 30.1874 20.6438 30.4767 20.7597C30.6735 20.8408 30.9282 21.0031 31.0208 21.119C31.1249 21.2464 31.1828 21.5362 31.1828 21.8607C31.1712 22.2084 30.824 23.3094 30.1758 25.0595C29.6318 26.5314 29.1572 27.8179 29.1225 27.9338C29.0646 28.1193 29.1572 28.1309 31.1944 28.1309L31.4375 27.4123C31.5764 27.0066 31.9815 25.8708 32.3403 24.8857C32.6991 23.9005 33.139 22.7879 33.3126 22.4054C33.4978 22.0114 33.8103 21.571 34.0881 21.3392C34.3428 21.119 34.7826 20.864 35.072 20.7713C35.4771 20.6322 36.2179 20.5974 38.4056 20.5974C40.6395 20.5974 41.2877 20.6322 41.6118 20.7713C41.8317 20.864 42.1095 21.0958 42.2137 21.2696C42.341 21.4782 42.3873 21.7216 42.341 21.9882C42.3063 22.2084 41.7739 23.8078 41.1488 25.5231C40.5353 27.25 39.7598 29.3594 39.4473 30.217C39.1348 31.0747 38.5908 32.5698 38.2435 33.5202C37.8963 34.4821 37.5259 35.4905 37.4217 35.7802C37.3059 36.1047 37.005 36.5335 36.623 36.916C36.2295 37.2869 35.8359 37.565 35.5697 37.6346C35.3266 37.7041 33.7872 37.7505 32.1551 37.7505C29.8401 37.7505 29.0993 37.7157 28.8563 37.5882C28.6711 37.5071 28.4627 37.2985 28.3933 37.1246C28.3122 36.9624 28.2428 36.7074 28.2428 36.5683C28.2428 36.4176 28.4511 35.7338 28.6942 35.0269C28.9373 34.3315 29.4003 33.0102 29.736 32.1062C30.0601 31.1906 30.3263 30.4257 30.3263 30.3909C30.3263 30.3561 29.8633 30.3329 28.2428 30.3329L27.7798 31.6426C27.5367 32.3612 27.0969 33.5665 26.8191 34.3315C26.5413 35.0964 26.2172 35.9309 26.0899 36.1743C25.9741 36.4292 25.6384 36.8349 25.3491 37.0783C25.0597 37.3332 24.6198 37.5882 24.3652 37.6462C24.0874 37.7273 22.6637 37.7505 17.6865 37.6925L17.4087 37.3796C17.2235 37.1594 17.1309 36.916 17.1309 36.6263C17.1309 36.3713 17.4781 35.2239 17.9527 33.9258C18.3925 32.6857 19.0176 30.9588 19.3301 30.1011C19.6426 29.2435 20.2677 27.5166 20.7191 26.2765C21.1705 25.0363 21.6798 23.6224 21.8534 23.1472C22.0155 22.672 22.3164 22.0809 22.5132 21.8259C22.6984 21.5826 22.9878 21.2812 23.1498 21.1537C23.3119 21.0378 23.6475 20.864 23.9022 20.7713C24.261 20.6438 25.0481 20.609 27.2358 20.609ZM54.8651 20.609C61.0229 20.5974 62.7129 20.6322 62.8286 20.7481C62.9096 20.8176 62.9675 20.9915 62.9675 21.119C62.9675 21.2464 62.8402 21.6173 62.7013 21.9302C62.493 22.3823 62.3425 22.5445 62.03 22.6604C61.7406 22.7647 60.6062 22.7995 53.7655 22.7995L53.4414 23.634C53.2562 24.0976 53.0941 24.5728 53.0594 24.6886C53.0131 24.8741 53.2099 24.8857 56.0226 24.8857C57.7935 24.8857 59.1247 24.932 59.2636 25.0016C59.3909 25.0711 59.4951 25.2218 59.4951 25.3493C59.4951 25.4768 59.4025 25.8013 59.2751 26.0794C59.1594 26.346 58.951 26.6705 58.8006 26.798C58.5575 27.0182 58.3607 27.0298 52.145 27.0993L51.763 28.1656C51.5662 28.7567 51.3926 29.2783 51.3926 29.3246C51.3926 29.371 53.233 29.4173 59.5877 29.4637L59.8886 29.7534C60.0622 29.9157 60.2243 30.2054 60.259 30.3909C60.3169 30.6459 60.1201 31.3413 59.5182 33.0566C59.0668 34.3315 58.6154 35.5832 58.5112 35.8382C58.3954 36.0931 58.1639 36.4872 57.9903 36.7074C57.8283 36.9276 57.4 37.2637 56.4277 37.7505H48.5915C42.1558 37.7505 40.6858 37.7273 40.4312 37.5882C40.246 37.5071 40.0376 37.2985 39.9682 37.1246C39.8871 36.9624 39.8177 36.7306 39.8177 36.6263C39.8177 36.5104 39.945 36.0236 40.0955 35.5484C40.2575 35.0732 40.7553 33.6592 41.2067 32.4191C41.6697 31.179 42.2832 29.4521 42.5957 28.5944C42.9082 27.7368 43.5332 26.0099 43.9847 24.7698C44.4361 23.5297 44.9338 22.2895 45.0843 22.023C45.2463 21.7448 45.5473 21.3971 45.7556 21.2464C45.9524 21.0842 46.3344 20.8872 46.589 20.7828C46.9826 20.6438 48.2674 20.609 54.8651 20.609ZM83.6287 28.2467L83.7676 28.6872C83.8371 28.919 84.2075 30.0084 84.5895 31.0863C84.9714 32.1757 85.4923 33.8099 85.747 34.7371C86.0016 35.6643 86.3489 36.916 86.5109 37.5187C86.6614 38.1214 86.8234 38.8399 86.8581 39.1181C86.916 39.5353 86.8929 39.6165 86.6961 39.6628C86.5688 39.6976 86.291 39.628 86.0942 39.5006C85.8859 39.3847 85.4344 39.2224 85.1103 39.1529C84.7284 39.0717 83.0153 39.0254 76.6838 39.037L76.4407 38.1909C76.3018 37.7273 76.0009 36.7422 75.781 36.012C75.5495 35.2818 75.1096 33.9258 74.7971 32.9986C74.4846 32.0714 74.0563 30.8893 73.8595 30.3677C73.5933 29.6607 73.5354 29.3942 73.6512 29.3478C73.7206 29.3246 74.473 29.1855 75.2948 29.058C76.1282 28.9306 77.0889 28.7915 77.4362 28.7683C77.7834 28.7451 78.5474 28.664 79.1145 28.5944C79.6933 28.5249 80.654 28.4206 81.2559 28.3742C81.8578 28.3279 82.6449 28.2699 83.6287 28.2467ZM86.4067 28.3047C86.916 28.3395 87.9115 28.4554 88.606 28.5481C89.312 28.6524 90.0412 28.7567 90.2264 28.7799C90.4232 28.8147 90.8862 28.919 91.2682 29.0233C91.6502 29.1276 92.09 29.2319 92.2521 29.2551C92.472 29.3014 92.5877 29.4289 92.7266 29.8577C92.8308 30.1475 93.2012 31.2833 93.5484 32.3612C93.9073 33.4506 94.2777 34.6444 94.3703 35.0269C94.4744 35.4093 94.6828 36.2438 94.8448 36.8812C94.9953 37.5187 95.1689 38.2952 95.3194 39.1529L94.9143 39.0949C94.6944 39.0601 93.1665 39.0254 88.5481 39.0254L88.2008 37.5535C88.0156 36.7422 87.7263 35.5716 87.5526 34.9689C87.3906 34.3662 86.8929 32.7784 86.4415 31.434C86.0016 30.1011 85.5618 28.8726 85.4692 28.7103C85.3881 28.5481 85.3534 28.3742 85.3997 28.3279C85.446 28.2699 85.8974 28.2583 86.4067 28.3047ZM71.1047 29.7882C71.1626 29.7998 71.3362 30.1475 71.4982 30.5647C71.6487 30.982 72.1812 32.5234 72.6789 33.9838C73.1766 35.4557 73.7206 37.0899 73.8942 37.6346C74.0563 38.1793 74.1952 38.7124 74.1952 38.8283C74.1952 39.0138 73.9868 39.0254 71.5677 39.037C69.7504 39.037 68.7318 39.0833 68.292 39.1876C67.9447 39.2803 67.5049 39.4078 67.3081 39.489C67.1229 39.5585 66.7178 39.8019 66.4168 40.0221C66.1043 40.2423 65.8265 40.4162 65.7802 40.4162C65.7224 40.4162 65.4561 40.2655 65.1668 40.0801C64.8774 39.8946 64.3102 39.6396 63.8935 39.5121C63.4768 39.3731 62.7245 39.1992 61.2892 38.9558L61.0692 38.33C60.884 37.8084 60.8609 37.623 60.9651 37.2869C61.0345 37.0667 61.2892 36.3597 61.5207 35.7223C61.7637 35.0848 62.1689 33.9142 62.9328 31.6658L65.1205 31.1211C66.3242 30.8197 67.7017 30.4836 68.1762 30.3793C68.6508 30.2866 69.4842 30.1011 70.0282 29.9852C70.5722 29.8693 71.0584 29.7766 71.1047 29.7882ZM93.8378 29.8693C93.861 29.8693 94.0925 29.9852 94.3703 30.1243C94.6365 30.2518 95.1458 30.5647 95.493 30.7965C95.8403 31.0283 96.3612 31.4803 96.6505 31.8049C97.0788 32.2685 97.2756 32.6625 97.727 33.8795C98.0279 34.7023 98.271 35.4557 98.271 35.5484C98.271 35.6411 98.3173 35.7802 98.3636 35.8382C98.4215 35.9077 98.6067 36.4756 98.7803 37.113C98.9539 37.7505 99.1507 38.3995 99.2201 38.5618C99.2896 38.724 99.3012 38.9442 99.2664 39.0601C99.2317 39.1645 99.1044 39.2572 99.0002 39.2572C98.8845 39.2572 98.5835 39.3383 98.3289 39.4426C98.0742 39.5469 97.727 39.7324 97.5534 39.8483C97.2293 40.0685 97.2293 40.0685 96.9167 39.8367C96.639 39.6512 96.5463 39.4078 96.2685 38.2489C96.0833 37.4955 95.7824 36.3133 95.5856 35.6063C95.4004 34.911 94.9259 33.3347 94.5207 32.1062C94.1272 30.8777 93.8262 29.8693 93.8378 29.8693ZM5.90321 41.8417C8.83166 41.8649 8.99371 41.8765 9.37568 42.1199C9.5956 42.259 9.88498 42.5487 10.0123 42.7573C10.2206 43.1166 10.2438 43.3716 10.3017 49.3404H12.3852V46.3618C12.3852 43.4411 12.3852 43.36 12.6514 42.85C12.8019 42.5603 13.1028 42.2242 13.3227 42.0967C13.6815 41.8881 13.9593 41.8649 16.7836 41.8301C19.7815 41.7954 19.8626 41.8069 20.3718 42.0619C20.7538 42.259 20.9622 42.4676 21.4136 43.3716L21.3904 50.5805C21.3557 57.7199 21.3557 57.7894 21.1126 58.114C20.9737 58.2878 20.7191 58.5428 20.557 58.6703C20.2561 58.8905 20.0593 58.9021 16.8994 58.9021C13.7163 58.9021 13.5426 58.8905 13.2301 58.6703C13.0565 58.5312 12.7903 58.1951 12.6398 57.9169C12.3967 57.4186 12.3852 57.2795 12.3852 51.5425H10.3017L10.2785 54.5906C10.2438 57.3954 10.2206 57.662 10.0123 58.0212C9.88498 58.2415 9.63033 58.5312 9.45671 58.6587C9.14418 58.8905 9.00528 58.9021 5.78746 58.9021C2.62751 58.9021 2.43073 58.8905 2.12978 58.6703C1.96773 58.5428 1.71309 58.2878 1.57419 58.114C1.33112 57.7894 1.33112 57.7431 1.33112 43.0239L1.59734 42.6414C1.74781 42.4212 2.09506 42.1431 2.34971 42.0272C2.78955 41.8301 3.10208 41.807 5.90321 41.8417ZM33.2547 41.8185C36.9818 41.807 38.0236 41.8417 38.7528 41.9924C39.239 42.0851 39.9682 42.3285 40.3733 42.5139C40.7668 42.6994 41.334 43.0818 41.6465 43.36C41.9475 43.6382 42.3873 44.2177 42.6188 44.6581C42.8619 45.0985 43.1281 45.8287 43.2207 46.2691C43.3596 46.8949 43.4059 47.8685 43.4059 50.3835C43.4059 52.8521 43.3596 53.8952 43.2323 54.4979C43.1397 54.9499 42.9082 55.6221 42.723 56.0046C42.5378 56.3871 42.1327 56.9666 41.8202 57.2795C41.5076 57.604 40.9868 57.9981 40.6742 58.1719C40.3617 58.3458 39.6904 58.6007 39.1811 58.7282C38.313 58.9484 37.931 58.96 33.3358 58.96C30.4536 58.96 28.1965 58.9021 27.8955 58.8441C27.6062 58.7746 27.0158 58.5776 26.576 58.4037C26.0551 58.2067 25.5574 57.8822 25.1291 57.4997C24.7703 57.1752 24.3189 56.6189 24.1105 56.2248C23.9138 55.8539 23.6475 55.2281 23.5318 54.8456C23.3466 54.2313 23.3235 53.7214 23.3235 46.6168L23.636 45.6896C23.8096 45.1796 24.1453 44.4842 24.3883 44.1365C24.6314 43.7888 25.0944 43.3021 25.4069 43.0587C25.731 42.8153 26.2751 42.5139 26.6223 42.3749C26.9695 42.2474 27.5714 42.0619 27.9534 41.9808C28.4627 41.8649 29.8864 41.8301 33.2547 41.8185ZM32.2824 50.3835C32.294 55.4019 32.3172 56.2712 32.4676 56.503C32.5602 56.642 32.7802 56.7927 32.9654 56.8275C33.139 56.8623 33.4515 56.8623 33.6598 56.8275C33.8566 56.7927 34.1113 56.6768 34.2039 56.5841C34.3543 56.4334 34.3775 55.5874 34.3775 50.4183C34.3891 44.8087 34.3659 44.4031 34.1807 44.2177C34.0302 44.0786 33.7756 44.0206 33.3126 44.009C32.7686 44.009 32.6181 44.0554 32.4676 44.264C32.294 44.4958 32.2709 45.1217 32.2824 50.3835ZM55.2702 41.8185C60.4673 41.8185 61.9952 41.8417 62.4467 41.9692C62.7708 42.0503 63.2106 42.201 63.4305 42.2937C63.6504 42.398 64.044 42.6762 64.2871 42.9196C64.5417 43.1746 64.8774 43.6613 65.3404 44.6465V51.218C65.3404 57.7315 65.3404 57.7894 65.0973 58.114C64.9584 58.2878 64.7038 58.5428 64.5417 58.6703C64.2408 58.8905 64.044 58.9021 60.884 58.9021C57.6662 58.9021 57.5273 58.8905 57.2148 58.6587C57.0412 58.5312 56.7865 58.2415 56.6592 58.0212C56.4393 57.6388 56.4277 57.3954 56.393 51.0209C56.3698 44.9594 56.3467 44.4031 56.1615 44.2061C56.0226 44.067 55.7911 43.9974 55.3281 43.9974C54.8767 43.9974 54.6452 44.0554 54.5178 44.1945C54.3674 44.3683 54.3326 45.3651 54.2863 51.0905C54.2285 57.6851 54.2285 57.7894 53.9854 58.114C53.8465 58.2878 53.5918 58.5428 53.4298 58.6703C53.1288 58.8905 52.9321 58.9021 49.7721 58.9021C46.589 58.9021 46.4154 58.8905 46.1029 58.6703C45.9293 58.5312 45.663 58.1951 45.2463 57.3954L45.2811 51.1368C45.3158 45.2144 45.3274 44.8435 45.5473 44.2524C45.6746 43.9163 45.9871 43.3948 46.2533 43.0934C46.508 42.8037 46.9247 42.4676 47.1793 42.3401C47.4224 42.2126 47.8623 42.0503 48.1516 41.9692C48.5336 41.8649 50.3856 41.8301 55.2702 41.8185ZM76.7995 41.8185C84.4274 41.807 84.5547 41.807 84.821 42.0388C85.0177 42.2242 85.0756 42.398 85.0756 42.8848C85.0756 43.2209 85.0293 43.5454 84.983 43.615C84.9367 43.6845 84.7862 43.8004 84.6473 43.8815C84.4621 43.9743 83.1657 44.009 76.3944 44.009V46.0952H79.4965C82.0546 46.0952 82.6333 46.13 82.8532 46.2691C83.0616 46.4197 83.1079 46.5472 83.1079 47.1151C83.1079 47.5092 83.05 47.8685 82.9458 48.0076C82.7838 48.2278 82.6333 48.2394 76.3944 48.2973V50.6153L84.6821 50.6732L85.1103 50.963C85.3418 51.1252 85.6081 51.4382 85.7122 51.6584C85.8627 52.0061 85.8859 52.516 85.8627 54.9615C85.828 57.6851 85.8164 57.8822 85.5849 58.2067C85.446 58.4037 85.1566 58.6471 84.9136 58.763C84.5316 58.9484 83.9181 58.96 76.5217 58.9368C68.6161 58.9021 68.5351 58.9021 68.211 58.6587C68.0373 58.5312 67.7827 58.2415 67.6554 58.0212C67.4354 57.6388 67.4239 57.3954 67.3891 50.7891C67.366 46.4429 67.4007 43.7309 67.4817 43.3484C67.5628 42.9428 67.7017 42.6298 67.9216 42.4212C68.0952 42.2474 68.4309 42.0387 68.6508 41.9692C68.9286 41.8765 71.3015 41.8301 76.7995 41.8185ZM91.7312 41.8185C94.5092 41.807 94.6481 41.8185 95.1458 42.0735C95.4583 42.2242 95.7593 42.4908 95.8982 42.7341C96.1181 43.1166 96.1297 43.3716 96.1644 47.2542C96.176 49.5142 96.2107 51.4729 96.2338 51.6004C96.2686 51.7279 96.4537 51.9134 96.6737 51.9945C96.9167 52.0988 97.2293 52.1336 97.5186 52.0872C97.7733 52.0524 98.0395 51.9597 98.0974 51.8902C98.1668 51.8091 98.2363 50.0821 98.271 47.4512C98.3289 43.2789 98.3405 43.1282 98.5835 42.7341C98.7224 42.5139 99.0118 42.2242 99.2201 42.0967C99.5674 41.8881 99.8452 41.8649 102.669 41.8301C105.667 41.7954 105.748 41.8069 106.258 42.0619C106.64 42.259 106.848 42.4676 107.045 42.85C107.288 43.3484 107.299 43.4991 107.299 46.072C107.299 47.9728 107.253 49.0275 107.126 49.6649C107.033 50.1517 106.79 50.8934 106.582 51.3107C106.373 51.7395 105.968 52.319 105.621 52.6435C105.297 52.968 104.753 53.3621 104.406 53.5359C104.058 53.7098 103.457 53.93 103.075 54.0343C102.693 54.127 102.183 54.2082 101.512 54.2082L101.489 55.993C101.454 57.5808 101.431 57.8242 101.223 58.1024C101.095 58.2762 100.841 58.5196 100.667 58.6587C100.354 58.8905 100.216 58.9021 97.2293 58.9021C94.3008 58.9021 94.104 58.8905 93.8031 58.6703C93.641 58.5428 93.3864 58.2878 93.2475 58.114C93.0276 57.8126 93.0044 57.6156 92.9465 54.2082H92.5183C92.2752 54.2082 91.7775 54.1386 91.4187 54.0343C91.0483 53.9416 90.4232 53.6982 90.0297 53.5012C89.6246 53.2926 89.0574 52.8637 88.7449 52.5392C88.4323 52.2147 88.0388 51.6352 87.8536 51.2527C87.6684 50.8703 87.4369 50.1517 87.3327 49.6649C87.2054 49.0043 87.1591 48.0423 87.1591 46.072C87.1591 43.7077 87.1938 43.3136 87.379 42.908C87.4948 42.653 87.68 42.3633 87.7957 42.2706C87.923 42.1778 88.2008 42.0388 88.4323 41.9576C88.6986 41.8649 89.7866 41.8185 91.7312 41.8185ZM43.2091 59.7945L43.9152 60.4319C44.2972 60.7912 44.7486 61.1505 44.9107 61.2316C45.0727 61.3128 45.5473 61.4634 45.9871 61.5562C46.5659 61.6952 47.3761 61.7416 49.2513 61.7416C51.4736 61.7416 51.763 61.7648 51.9251 61.9502C52.0292 62.0545 52.0871 62.2284 52.0524 62.3211C52.0177 62.4138 51.7746 63.0744 51.5199 63.7698C51.2537 64.4768 50.8602 65.5431 50.6287 66.1458C50.4087 66.7485 50.2004 67.27 50.1657 67.3048C50.131 67.3395 49.8416 67.2932 49.5059 67.2005C49.0776 67.073 47.978 67.0034 42.4336 66.8991L41.8549 65.9719C41.5424 65.462 40.8826 64.3377 40.3849 63.4801C39.8872 62.6224 39.4589 61.8343 39.4126 61.7416C39.3663 61.6141 39.5168 61.5214 40.1071 61.3707C40.5238 61.2548 41.1835 61.0114 41.5887 60.826C41.9822 60.6521 42.5031 60.3392 42.7577 60.1422L43.2091 59.7945ZM24.7124 60.6985C24.7472 60.6985 25.0713 60.826 25.4417 60.9767C25.8005 61.1273 26.495 61.336 26.9695 61.4519C27.4441 61.5678 28.3354 61.6837 28.9373 61.73C29.5623 61.7764 30.0369 61.8575 30.0253 61.9155C30.0253 61.985 29.2614 62.5761 28.347 63.2251C26.7381 64.3725 26.6802 64.4073 26.5065 64.1871C26.414 64.0596 26.2288 63.7582 26.1014 63.5149C25.9741 63.2715 25.6037 62.6108 25.268 62.0314C24.9324 61.4634 24.6546 60.9303 24.6546 60.8492C24.6546 60.7681 24.6777 60.6985 24.7124 60.6985ZM22.3975 60.8376C22.4669 60.826 22.8257 61.4055 23.2077 62.1241C23.5897 62.8311 24.18 63.8857 24.5157 64.4652C24.8513 65.0447 25.1291 65.5663 25.1176 65.6242C25.1176 65.6938 24.5851 66.1921 23.9485 66.7253C23.3119 67.27 22.2817 68.2435 21.6682 68.881C21.0548 69.5184 20.314 70.3413 20.0246 70.7006C19.7352 71.0599 19.469 71.3612 19.4227 71.3612C19.3764 71.3612 19.087 70.9904 18.7977 70.5268C18.4967 70.0632 18.1726 69.5532 18.0684 69.3909C17.9527 69.2403 17.4781 68.429 16.992 67.5945C16.5174 66.7716 16.0428 65.9372 15.9502 65.7401C15.8576 65.5547 15.6377 65.1375 15.4757 64.8129C15.3136 64.5 14.9432 63.7467 14.6538 63.1324C14.3645 62.5297 14.1214 61.9734 14.1214 61.8923C14.1214 61.7764 14.7812 61.7416 17.0151 61.7416C19.1449 61.7416 20.1172 61.7068 20.6959 61.5793C21.1242 61.475 21.6567 61.278 21.8766 61.1157C22.0965 60.9651 22.3396 60.8376 22.3975 60.8376ZM11.5286 60.9303C11.5633 60.9303 11.7833 61.0578 12.0263 61.1969C12.3967 61.4055 12.5588 61.6141 12.8713 62.3211C13.0797 62.8079 13.6237 63.9553 14.0751 64.8709C14.5265 65.7981 15.2442 67.1541 15.6493 67.8843C16.0544 68.626 16.8762 69.9704 18.5199 72.5202L18.2999 72.9027C18.1726 73.1113 17.8369 73.7488 17.5476 74.3167C17.2698 74.8962 16.9457 75.7075 16.8299 76.1131C16.7257 76.5303 16.5868 76.9244 16.5406 76.9823C16.4711 77.0635 16.3785 77.0171 16.2628 76.8664C16.1702 76.739 15.7072 76.0667 15.2442 75.3598C14.7696 74.6644 13.9709 73.3547 13.4616 72.4623C12.9523 71.5699 12.3504 70.4804 12.1305 70.0284C11.899 69.588 11.4707 68.6492 11.1698 67.9422C10.8688 67.2468 10.51 66.4355 10.3827 66.1458C10.2438 65.856 10.128 65.3461 10.1165 64.9868C10.1049 64.6043 10.1975 64.0248 10.3595 63.4801C10.51 63.0049 10.7647 62.2979 10.9383 61.9155C11.1119 61.533 11.2971 61.1621 11.3666 61.081C11.436 60.9999 11.5055 60.9303 11.5286 60.9303ZM36.1716 61.788C36.8545 61.7995 36.9934 61.8459 37.0976 62.0429C37.167 62.1704 37.5953 62.9354 38.0583 63.7235C38.5329 64.5116 38.9727 65.2649 39.0422 65.3924C39.1232 65.5199 39.3779 65.9256 39.6209 66.2964C39.8524 66.6557 40.0492 67.0034 40.0492 67.0498C40.0492 67.0961 40.1302 67.212 40.2228 67.3048C40.327 67.4091 40.408 67.5366 40.3964 67.5945C40.3964 67.6641 40.1302 67.8959 39.8177 68.1161C39.4936 68.3479 39.0422 68.7883 38.7991 69.1012C38.5445 69.4257 38.2204 69.9473 38.0583 70.2602C37.9078 70.5847 37.4796 71.6742 37.1207 72.6941C36.7619 73.714 36.3915 74.9193 36.2989 75.3598C36.2063 75.8118 36.1137 76.3217 36.0906 76.4956C36.079 76.681 36.0096 76.8317 35.9517 76.8433C35.8822 76.8549 35.2225 76.1363 34.4585 75.2439C33.7061 74.3514 32.3519 72.6361 31.4375 71.4192C30.5346 70.2138 29.6318 68.9853 29.4466 68.6956C29.2498 68.4174 28.8678 67.8495 28.59 67.4554C28.2659 66.9918 28.1155 66.6905 28.1849 66.6325C28.2544 66.5746 28.7405 66.2037 29.2845 65.7981C29.8286 65.404 31.2291 64.4421 32.4098 63.6655C33.5904 62.889 34.7363 62.1473 34.9562 62.0082C35.2803 61.8111 35.5234 61.7648 36.1716 61.788ZM59.5298 62.1009C61.3239 62.1009 62.7476 62.1473 62.9097 62.2052C63.0717 62.2747 63.28 62.4834 63.3726 62.6688C63.4652 62.8658 63.5463 63.1556 63.5463 63.3062C63.5463 63.4685 63.3727 64.0828 63.1643 64.6739C62.9444 65.2649 62.2152 67.2816 61.5322 69.1591C60.8493 71.0483 60.1085 73.0765 59.8886 73.6792C59.6687 74.2935 59.3562 75.0932 59.1941 75.4757C59.0436 75.8581 58.6617 76.5187 58.3607 76.9244C58.0019 77.4228 57.5505 77.8632 57.0643 78.1877C56.6476 78.4543 55.9531 78.802 55.5017 78.941C54.7146 79.1844 54.5641 79.1844 40.8016 79.1844L40.1186 78.8367C39.563 78.5586 39.3663 78.3847 39.1464 77.9675C38.9149 77.5155 38.8801 77.3416 38.9264 76.5767C38.9727 75.9045 39.1348 75.3018 39.6788 73.7951C40.0608 72.752 40.4775 71.6742 40.6048 71.4192C40.7321 71.1642 40.9868 70.8165 41.172 70.6311C41.3456 70.4456 41.7044 70.1907 41.9591 70.0516C42.3873 69.8198 42.6304 69.7966 45.2 69.7618C46.7279 69.7386 48.1864 69.7502 48.441 69.785C48.7304 69.8314 49.0429 69.982 49.2513 70.1791C49.5638 70.4804 49.5869 70.5384 49.5175 71.1874C49.4827 71.5699 49.3439 72.1493 49.2165 72.4623C49.0776 72.7868 48.7072 73.7719 48.3831 74.6644C48.0243 75.6379 47.8044 76.4376 47.8275 76.6346C47.8623 76.9823 47.8854 76.9939 48.5568 77.0287C49.1587 77.0635 49.286 77.0287 49.5291 76.7969C49.668 76.6462 49.8995 76.2638 50.0268 75.9392C50.1425 75.6263 50.4782 74.7107 50.7676 73.911C51.0569 73.1229 51.3579 72.2884 51.4505 72.0566C51.5315 71.8364 52.1566 70.1211 52.8395 68.232C53.5108 66.3544 54.1822 64.5348 54.3211 64.1755C54.46 63.8278 54.7841 63.3178 55.0387 63.0281C55.2934 62.7499 55.7101 62.4254 55.9647 62.3095C56.3814 62.1241 56.7749 62.1009 59.5298 62.1009ZM76.8574 62.1357C82.0083 62.1588 82.1472 62.1588 82.7606 62.4138C83.1079 62.5529 83.6056 62.8426 83.8487 63.0513C84.1033 63.2599 84.439 63.6887 84.601 64.0016C84.8673 64.5116 84.902 64.7202 84.8904 65.6822C84.8904 66.3892 84.8094 67.0382 84.6821 67.4786C84.5663 67.8611 83.9528 69.6112 83.3162 71.3612C82.6912 73.1229 81.9851 75.0468 81.7652 75.6495C81.5453 76.2638 81.2212 77.0635 81.0475 77.4343C80.8855 77.8052 80.5498 78.2804 80.3299 78.489C80.11 78.6861 79.6701 78.941 79.346 79.0569C78.8483 79.2308 78.3622 79.254 75.7925 79.2192C72.9798 79.196 72.8062 79.1728 72.4937 78.941C72.3201 78.8135 72.1233 78.5238 72.0654 78.3036C71.9844 78.0023 72.0191 77.7357 72.2275 77.0982C72.3664 76.6578 72.7946 75.4757 73.165 74.4673C73.547 73.459 73.8479 72.5898 73.8479 72.5202C73.8479 72.4623 73.4312 72.4043 72.8062 72.4043C72.239 72.4043 71.7645 72.4275 71.7645 72.4391C71.7645 72.4507 71.3709 73.5633 70.8963 74.8962C70.4102 76.2406 69.8893 77.5618 69.7389 77.8284C69.5768 78.095 69.2874 78.4427 69.0791 78.5933C68.8707 78.7556 68.454 78.9642 68.1531 79.0569C67.7017 79.2076 67.065 79.2424 64.8195 79.2424C62.7939 79.2424 61.9374 79.2076 61.6711 79.0917C61.4628 79.0106 61.1966 78.8136 61.0924 78.6629C60.9766 78.5006 60.884 78.2225 60.884 78.0254C60.884 77.84 61.2776 76.5883 61.7637 75.2439C62.2383 73.911 62.9212 72.0334 63.2569 71.0715C63.6041 70.1211 64.0208 68.9853 64.1829 68.5565C64.3449 68.1276 64.6459 67.4207 64.8658 66.9918C65.0857 66.563 65.514 65.8792 65.8265 65.462C66.1275 65.0563 66.6136 64.5116 66.903 64.2682C67.1924 64.0132 67.7132 63.6192 68.0605 63.399C68.4077 63.1672 69.0328 62.8658 69.4495 62.7036C69.8662 62.5529 70.5144 62.3443 70.8963 62.2632C71.4404 62.1473 72.7946 62.1125 76.8574 62.1357ZM74.6119 64.8477C74.5193 65.0216 74.0563 66.2501 73.5701 67.5713C73.084 68.8926 72.6905 70.0284 72.6905 70.0863C72.6905 70.1559 73.1071 70.2138 73.709 70.2138H74.7161C75.2832 68.6376 75.7231 67.4438 76.0472 66.5514C76.3713 65.659 76.6375 64.8129 76.6259 64.6739C76.6259 64.5 76.5218 64.3725 76.3365 64.2914C76.1745 64.2334 75.9314 64.1871 75.7925 64.1871C75.6421 64.1871 75.3643 64.2682 75.1559 64.3609C74.9476 64.4536 74.7045 64.6739 74.6119 64.8477ZM98.1553 62.1009C102.635 62.1009 105.934 62.1473 106.2 62.2168C106.454 62.2747 106.836 62.437 107.045 62.5877C107.276 62.7499 107.496 63.0513 107.612 63.3642C107.751 63.7583 107.786 64.0944 107.739 64.6391C107.705 65.0563 107.508 65.8908 107.299 66.4935C107.091 67.1077 106.698 68.0465 106.42 68.5797C106.142 69.1244 105.644 69.8777 105.309 70.2486C104.892 70.7122 104.464 71.0483 103.954 71.2917C103.213 71.651 103.179 71.651 101.176 71.6973C99.8452 71.7205 99.0928 71.7785 98.9886 71.8712C98.9076 71.9407 98.7919 72.1841 98.734 72.4043C98.6761 72.6593 98.6761 72.8911 98.7456 73.0186C98.8382 73.204 99.0697 73.2156 101.026 73.2156C102.855 73.2156 103.26 73.2504 103.595 73.4242C103.815 73.5401 104.07 73.7603 104.151 73.911C104.232 74.0733 104.278 74.3862 104.255 74.6064C104.232 74.8382 104.012 75.58 103.758 76.2754C103.503 76.9823 103.132 77.7589 102.901 78.0602C102.669 78.3731 102.264 78.7208 101.917 78.8947C101.373 79.1844 101.269 79.1844 99.2549 79.1844C97.3103 79.1844 97.1367 79.1728 96.5926 78.9179C96.2801 78.7672 95.9213 78.5354 95.8055 78.3963C95.6898 78.2572 95.5278 77.9791 95.4352 77.7705C95.3426 77.5618 95.2615 77.133 95.2615 76.8085C95.2615 76.4956 95.3541 75.9392 95.4583 75.5684C95.5625 75.1975 95.8634 74.3051 96.1297 73.5633C96.4074 72.8332 96.6621 72.1146 96.6968 71.9755C96.7663 71.7205 96.7431 71.7089 95.8171 71.7089C95.1689 71.7089 94.8217 71.7553 94.7407 71.8596C94.6712 71.9407 94.5092 72.2884 94.3703 72.6361C94.2314 72.9954 93.8262 74.108 93.4558 75.128C93.097 76.1479 92.7151 77.191 92.5877 77.4459C92.472 77.7009 92.1942 78.1066 91.9743 78.35C91.7196 78.6165 91.3145 78.8715 90.9209 79.0106C90.3538 79.2192 89.9949 79.2424 87.5063 79.2424C85.1219 79.2424 84.6589 79.2192 84.2538 79.0453C83.9876 78.9295 83.7329 78.7556 83.675 78.6397C83.6172 78.5238 83.5709 78.2456 83.5709 78.0023C83.5709 77.7589 83.9065 76.6346 84.3232 75.4757C84.7399 74.3283 85.4113 72.4507 85.828 71.3033C86.2447 70.1559 86.8697 68.4406 87.217 67.4786C87.5642 66.5282 87.9925 65.3577 88.1777 64.8709C88.3513 64.3957 88.6175 63.7814 88.7564 63.5149C88.8953 63.2483 89.1847 62.889 89.3931 62.7383C89.6014 62.5877 89.9486 62.379 90.1686 62.2747C90.5158 62.1241 91.627 62.1009 98.1553 62.1009ZM97.2061 64.9636C97.102 65.1954 96.7431 66.1226 96.419 67.015C96.0834 67.9074 95.794 68.7999 95.7593 68.9853C95.7014 69.275 95.7477 69.3678 95.9676 69.4953C96.1528 69.5996 96.419 69.6343 96.7663 69.588C97.0904 69.5532 97.3913 69.4257 97.5534 69.2519C97.6923 69.1128 97.9585 68.5681 98.1553 68.0581C98.3405 67.5481 98.6761 66.6094 98.9076 65.9719C99.1391 65.3345 99.3127 64.7086 99.278 64.5811C99.2433 64.4536 99.0928 64.3146 98.9424 64.2682C98.8035 64.2218 98.5488 64.1871 98.3868 64.1871C98.2247 64.1871 97.9469 64.2566 97.7501 64.3493C97.5534 64.4536 97.3219 64.697 97.2061 64.9636ZM26.6455 68.0002C26.6917 68.0002 26.9348 68.3015 27.1779 68.6724C27.4094 69.0433 28.046 69.9357 28.5785 70.6658C29.1225 71.4076 30.0253 72.6014 30.6041 73.3315C31.1828 74.0733 32.2246 75.325 32.9191 76.1131C33.6135 76.9128 34.4354 77.8284 35.2919 78.7208L34.0534 79.8335C33.3705 80.4361 32.3056 81.514 31.669 82.2094C31.0439 82.9048 30.4883 83.4959 30.4304 83.5075C30.3726 83.5191 29.4582 82.7425 28.4048 81.769C27.3399 80.7954 25.951 79.4278 25.3143 78.7208C24.6777 78.0254 23.9485 77.2257 23.6823 76.936C23.4276 76.6578 22.7331 75.8233 22.1428 75.0816C21.5525 74.3514 21.0663 73.656 21.0663 73.5401C21.0663 73.4242 21.9113 72.4739 22.9531 71.4076C23.9832 70.3413 25.2217 69.1476 25.6847 68.7419C26.1593 68.3363 26.5876 68.0002 26.6455 68.0002ZM20.1866 74.7223C20.2445 74.7223 20.6033 75.1859 20.9969 75.7306C21.3904 76.2869 22.4901 77.6082 23.4623 78.6629C24.4231 79.7176 26.0667 81.3633 27.1084 82.3137C28.1502 83.2757 29.1572 84.1797 29.3424 84.3188C29.6897 84.5853 29.6897 84.5969 29.4813 84.8983C29.3656 85.0721 29.0415 85.6864 28.7637 86.2543C28.4743 86.8338 28.1965 87.5755 28.127 87.9116C28.0576 88.2593 27.9534 88.5143 27.8724 88.5143C27.7914 88.5143 26.8654 87.8305 25.8121 86.9844C24.7356 86.1268 23.0688 84.6201 21.9808 83.5422C20.9274 82.4875 19.6658 81.1431 19.1796 80.552C18.6588 79.9262 18.2884 79.3699 18.2884 79.2192C18.2884 79.0801 18.3925 78.5354 18.5314 78.0254C18.6588 77.5155 18.925 76.7853 19.1218 76.4028C19.3301 76.0204 19.6195 75.4872 19.7815 75.2207C19.9436 74.9541 20.1288 74.7223 20.1866 74.7223ZM58.7774 80.413C58.789 80.413 58.9626 80.5636 59.1478 80.7491C59.3446 80.9461 59.4951 81.1547 59.4951 81.2127C59.4951 81.2822 58.4417 81.8617 54.8072 83.6813L54.1474 82.9396C53.7886 82.5339 53.5108 82.163 53.5455 82.1167C53.5687 82.0703 53.777 82.024 53.997 82.024C54.2169 82.024 54.7609 81.9544 55.1892 81.8617C55.6175 81.769 56.3004 81.5835 56.7171 81.456C57.1338 81.3286 57.7588 81.0388 58.1061 80.8186C58.4533 80.61 58.7543 80.4245 58.7774 80.413ZM37.0629 80.6448L37.7805 81.2822C38.1741 81.6299 39.1927 82.5339 40.0376 83.2757C40.8942 84.029 42.0864 85.0257 42.6999 85.5125C43.3133 85.9877 44.3551 86.7758 45.0264 87.251C45.6978 87.7262 46.4385 88.2477 46.6816 88.41C46.9131 88.5607 47.1099 88.7577 47.1099 88.8388C47.1099 88.92 47.0752 88.9779 47.0289 88.9779C46.9826 88.9779 46.4385 89.4415 45.8367 89.9978C45.2348 90.5657 44.5287 91.3075 44.274 91.632C44.0194 91.9565 43.7532 92.2347 43.6721 92.2347C43.5911 92.2347 43.1513 92.0376 42.6883 91.8058C42.2253 91.5741 41.0678 90.9482 40.1071 90.4035C39.1579 89.8587 37.5143 88.8388 36.461 88.1434C35.4077 87.4364 34.0997 86.5208 33.5325 86.1036C32.9769 85.6748 32.5255 85.2807 32.5255 85.2112C32.5255 85.1532 32.8033 84.7939 33.139 84.4115C33.4746 84.029 34.1113 83.3568 34.5511 82.9048C35.0025 82.4644 35.7433 81.7806 36.2179 81.3749L37.0629 80.6448ZM81.7999 80.8765C81.8231 80.8765 82.0777 81.0388 82.3787 81.2358C82.6796 81.4445 82.9458 81.6183 82.9574 81.6415C82.9806 81.6647 82.6449 82.3485 82.2282 83.1598C81.7999 83.9711 81.1286 85.188 80.735 85.8602C80.3299 86.5208 79.9016 87.1583 79.7859 87.2626C79.6238 87.4017 79.2419 87.4712 78.2696 87.5292C77.4362 87.5639 76.9732 87.5523 76.9732 87.4828C76.9732 87.4133 77.0195 87.2742 77.0773 87.1583C77.1352 87.0424 77.3783 86.3354 77.6098 85.5705C77.8413 84.8055 78.1654 83.7045 78.3159 83.1366C78.4663 82.5571 78.6052 82.0819 78.6168 82.0819C78.64 82.0703 79.1145 81.9544 79.6933 81.8153C80.2952 81.6647 80.9549 81.4213 81.2559 81.2243C81.5337 81.0388 81.7883 80.8881 81.7999 80.8765ZM18.4851 80.9925C18.5314 80.9925 19.6195 82.0703 20.9043 83.3916C22.1775 84.7128 23.717 86.1963 24.3189 86.6831C24.9092 87.1699 25.6847 87.8073 26.0436 88.0855C26.3908 88.3636 26.958 88.804 27.3168 89.059C27.8492 89.4531 27.965 89.5922 28.0344 90.0094C28.0807 90.276 28.1965 90.6469 28.3007 90.8439C28.4048 91.0525 28.428 91.2148 28.3585 91.2495C28.2891 91.2727 28.1386 91.2379 28.0229 91.1568C27.8955 91.0757 27.1316 90.473 26.3098 89.8008C25.488 89.1286 23.7054 87.4596 22.3164 86.0341C20.939 84.6317 19.6079 83.2177 19.3533 82.9048C19.1102 82.5803 18.7861 82.0703 18.6472 81.769C18.5083 81.4676 18.4041 81.1663 18.4041 81.1084C18.4041 81.0388 18.4388 80.9925 18.4851 80.9925ZM70.3755 81.2127C70.4102 81.2474 70.5954 82.1399 70.769 83.1945C70.9542 84.2376 71.1163 85.3387 71.1394 85.6284C71.1626 85.9066 71.2667 86.7411 71.3593 87.4828C71.4635 88.213 71.5214 88.862 71.4982 88.9315C71.4751 88.9895 71.3015 89.0822 71.1163 89.1402C70.9311 89.1865 70.1903 89.4647 69.4726 89.7428C68.755 90.0326 68.1068 90.2644 68.0258 90.2644C67.9447 90.2644 67.7248 89.9399 67.5396 89.5342C67.3428 89.1286 66.4169 87.3321 65.4793 85.5357C64.5417 83.7393 63.7778 82.2094 63.7778 82.1514C63.7778 82.0703 64.4954 82.0355 65.7108 82.0355C67.065 82.0355 67.8984 81.9776 68.4656 81.8501C68.9055 81.7458 69.5074 81.5488 69.7851 81.4097C70.0745 81.2706 70.3407 81.1779 70.3755 81.2127ZM72.2159 81.8617C72.3779 81.9081 73.6164 81.966 77.4362 82.0355L77.3783 82.4644C77.3551 82.7078 77.1815 83.5306 76.9847 84.2956C76.7995 85.0605 76.5102 86.15 76.3365 86.7295C76.1629 87.2974 76.0009 87.8073 75.9777 87.8537C75.9546 87.9 75.7115 87.9696 75.4337 88.0159C75.1675 88.0507 74.392 88.2246 73.7322 88.41C73.0609 88.5838 72.4705 88.7113 72.4242 88.6882C72.3779 88.6534 72.3316 88.3057 72.3316 87.9116C72.3316 87.5176 72.2853 86.4049 72.2275 85.4546C72.1696 84.4926 72.0654 83.322 72.0075 82.8468C71.9381 82.3601 71.8918 81.9312 71.8918 81.8733C71.9034 81.8153 72.0423 81.8153 72.2159 81.8617ZM83.6982 81.9428L85.1682 82.0008C85.9669 82.024 86.6961 82.0703 86.7771 82.0935C86.8813 82.1283 86.8466 82.2558 86.6614 82.5223C86.5225 82.7194 85.99 83.4379 85.4807 84.1101C84.983 84.7824 84.1033 85.8718 83.5477 86.5208C82.7143 87.4944 82.4828 87.703 82.2629 87.6567C82.124 87.6335 81.7073 87.5755 81.3369 87.5408C80.9781 87.506 80.654 87.4364 80.6193 87.3901C80.5961 87.3437 80.9318 86.7411 81.3716 86.0572C81.8115 85.3734 82.1703 84.7708 82.1703 84.7244C82.1703 84.678 82.2629 84.5042 82.3902 84.3535C82.506 84.1913 82.8532 83.577 83.1542 82.9975L83.6982 81.9428ZM51.219 82.0587L52.2839 83.2641C52.8742 83.9247 53.3372 84.5042 53.314 84.5506C53.2909 84.6085 52.7816 84.933 52.1797 85.2923C51.5894 85.6632 50.4666 86.4049 49.6795 86.9497C48.904 87.4944 48.1979 87.9232 48.1169 87.9C48.0359 87.8769 47.2951 87.3437 46.4733 86.7295C45.6399 86.1036 44.656 85.3271 44.274 85.0026C43.8921 84.678 43.0587 83.9711 42.4336 83.4263C41.8086 82.8816 41.2414 82.3485 41.1835 82.2326C41.0794 82.0471 41.3456 82.0355 51.219 82.0587ZM87.7494 82.0355H88.8953C89.5435 82.0355 90.076 82.0819 90.1107 82.1514C90.1338 82.2094 89.9487 82.5107 89.6824 82.8121C89.4046 83.125 88.6638 83.9595 88.0272 84.6896C87.3906 85.4198 86.21 86.602 83.976 88.6186L83.5477 88.3173C83.3046 88.1434 83.1079 87.9464 83.1079 87.8885C83.1079 87.8189 83.3394 87.5408 83.6172 87.251C83.895 86.9613 84.6821 86.0225 85.3766 85.1648C86.0711 84.3072 86.8813 83.2525 87.1938 82.8121L87.7494 82.0355ZM62.2615 82.5107C62.2846 82.5107 62.7013 83.2177 63.1759 84.0985C63.662 84.9794 64.4491 86.347 64.9353 87.1351C65.4214 87.9348 66.1159 89.0474 66.4747 89.6038C66.8335 90.1601 67.1229 90.6353 67.0998 90.6584C67.0882 90.6816 66.3706 91.0525 63.9514 92.2578L63.3726 91.8406C63.0485 91.6088 62.5045 91.18 62.1573 90.8787C61.81 90.5773 60.9303 89.8008 60.1895 89.1518C59.4603 88.5027 58.2797 87.4133 57.5852 86.741C56.3582 85.5705 56.3235 85.5125 56.5434 85.3387C56.6708 85.2459 57.5042 84.7939 58.3954 84.3303C59.2867 83.8783 60.5136 83.2873 61.1155 83.0091C61.7174 82.7425 62.2383 82.5107 62.2615 82.5107ZM55.2123 86.1036C55.2471 86.1036 55.5827 86.4049 55.9647 86.7642C56.3582 87.1351 57.1106 87.8305 57.6431 88.3057C58.1871 88.7925 59.2288 89.6501 59.958 90.2296C60.6873 90.7975 61.6943 91.5393 62.1804 91.8754C62.6782 92.1999 63.0833 92.5476 63.0833 92.6403C63.0833 92.7446 63.0485 92.8142 62.9907 92.8142C62.9444 92.8142 62.4004 93.1503 60.6525 94.3209L59.8076 94.0311C59.3562 93.8573 58.3954 93.4864 57.7009 93.1966C56.9949 92.9185 55.7795 92.3506 54.9808 91.9565C54.1822 91.5624 52.8858 90.8555 52.0871 90.3919C51.2884 89.9283 50.5708 89.4995 50.4898 89.4183C50.374 89.314 50.4898 89.1865 51.0106 88.8041C51.381 88.5375 52.4575 87.8189 53.4182 87.2046C54.3674 86.602 55.1776 86.1036 55.2123 86.1036ZM31.7037 86.3354C31.7384 86.3354 32.213 86.6483 32.757 87.0424C33.301 87.4364 34.3891 88.1782 35.1877 88.6997C35.9864 89.2213 37.4101 90.0789 38.3708 90.6237C39.32 91.1568 40.8016 91.9217 41.635 92.3158C42.4799 92.7214 43.1628 93.0923 43.1397 93.1387C43.1281 93.185 42.9198 93.6023 42.6767 94.0659C42.4452 94.5295 42.2137 95.1437 42.1558 95.4335C42.0864 95.8507 42.0285 95.955 41.8433 95.955C41.716 95.955 41.5539 95.9087 41.4961 95.8507C41.4266 95.8044 40.9636 95.6073 40.4543 95.4335C39.945 95.2596 39.239 94.9815 38.8917 94.8192C38.5445 94.6686 37.9889 94.4252 37.6763 94.3093C37.3522 94.1818 36.2874 93.6718 35.3035 93.1734C34.3196 92.6867 33.0117 91.9797 32.4098 91.6088C31.8079 91.2379 31.1249 90.8323 30.905 90.7048C30.6851 90.5889 30.4073 90.3919 30.3031 90.2876C30.1063 90.1021 30.1063 90.0558 30.3378 89.2213C30.4652 88.7461 30.824 87.9 31.1134 87.3437C31.4027 86.7874 31.669 86.3354 31.7037 86.3354ZM77.6908 89.3604C78.2001 89.3488 78.339 89.3835 78.2811 89.4879C78.2348 89.569 77.7255 90.2064 77.1352 90.9018C76.5565 91.6088 75.6999 92.5476 75.2485 92.988C74.7971 93.44 74.4267 93.8457 74.4267 93.892C74.4267 93.9384 74.4961 93.9732 74.5887 93.9732C74.6813 93.9732 75.3643 93.3589 76.1166 92.594C76.8806 91.8406 77.8297 90.7975 78.9988 89.3372L79.7512 89.3951C80.1678 89.4299 80.5267 89.4879 80.5614 89.511C80.5961 89.5458 80.3067 89.8471 79.9248 90.1948C79.5428 90.5425 78.9641 91.0641 78.6515 91.3538C78.3274 91.6436 78.0381 91.887 77.9802 91.887C77.9339 91.887 77.8992 91.9565 77.8992 92.0376C77.8876 92.1188 77.7024 92.2694 77.4593 92.3853C77.2278 92.4897 76.8922 92.7099 76.7069 92.8721C76.5333 93.0344 76.3597 93.1734 76.3018 93.1734C76.2555 93.1734 76.0472 93.3357 75.8388 93.5211C75.6421 93.7066 75.4106 93.8573 75.3527 93.8573C75.2832 93.8573 75.2369 93.9152 75.2369 93.9732C75.2369 94.0427 75.3064 94.0891 75.3758 94.0891C75.4569 94.0891 75.8388 93.8573 76.2208 93.5907C76.6028 93.3125 77.031 93.046 77.1699 93.0112C77.3204 92.9648 77.4593 92.8605 77.494 92.7562C77.5288 92.6635 77.6329 92.5824 77.7255 92.5824C77.8181 92.5824 77.8992 92.536 77.8992 92.4665C77.8992 92.4085 78.177 92.1535 78.5011 91.8986C78.8367 91.6436 79.2187 91.3538 79.346 91.2379C79.4734 91.122 79.9248 90.728 80.353 90.3571C81.0128 89.8008 81.1749 89.7081 81.3948 89.7892C81.5453 89.8471 81.7305 89.9746 81.7999 90.0789C81.9272 90.2412 81.8809 90.3223 81.5105 90.6005C81.279 90.7859 80.5845 91.2611 79.9827 91.6668C79.3808 92.084 78.7789 92.4665 78.6515 92.5476C78.5242 92.6171 78.0844 92.8837 77.6677 93.1387C77.251 93.3937 76.5796 93.7761 76.1629 93.9963C75.7462 94.2281 75.3295 94.3788 75.2369 94.3556C75.1443 94.3209 75.0286 94.3788 74.9707 94.4831C74.9244 94.5874 74.7161 94.7497 74.5077 94.8308C74.3109 94.9235 73.9984 95.051 73.8132 95.1206C73.6396 95.1901 73.3618 95.2596 73.1766 95.2596C73.003 95.2596 72.8294 95.2249 72.7715 95.1669C72.7252 95.1206 72.7599 95.0163 72.8294 94.9351C72.9104 94.854 72.9451 94.7497 72.8988 94.7033C72.8525 94.657 72.7252 94.6917 72.6326 94.7844C72.5284 94.8888 72.4474 95.0394 72.459 95.1321C72.459 95.2365 72.3895 95.3755 72.2853 95.4567C72.1927 95.5378 72.077 95.5842 72.0191 95.5494C71.9728 95.5262 72.0075 95.1206 72.0886 94.657C72.158 94.1818 72.2506 93.3821 72.2738 92.8721C72.3085 92.3622 72.3316 91.6204 72.3316 91.2263C72.3432 90.6584 72.3895 90.473 72.54 90.3919C72.6557 90.3339 73.2924 90.1485 73.9637 89.9862C74.635 89.824 75.2022 89.7081 75.2369 89.7428C75.2717 89.7776 75.2254 89.9746 75.1328 90.1833C75.0402 90.3919 74.6698 91.1568 74.3109 91.887C73.9521 92.6287 73.5123 93.4516 73.3502 93.7182C73.1766 93.9847 73.0377 94.2629 73.0377 94.3209C73.0377 94.3904 73.084 94.4252 73.1535 94.4136C73.2113 94.402 73.6049 93.8573 74.0331 93.2198C74.4498 92.5824 75.0749 91.4929 76.0587 89.511L76.5449 89.4531C76.8111 89.4067 77.332 89.372 77.6908 89.3604ZM49.4249 90.1485C49.4943 90.1485 49.8879 90.3571 50.3161 90.6005C50.756 90.8555 51.9829 91.4929 53.071 92.026C54.1474 92.5592 55.2471 93.0807 55.5017 93.1966C55.7564 93.3009 56.2194 93.498 56.5434 93.637C56.856 93.7645 57.7472 94.0891 58.5112 94.344C59.2751 94.599 59.9233 94.8308 59.958 94.8656C59.9928 94.8888 59.6455 95.2712 59.2057 95.7232C58.5343 96.3954 58.326 96.5345 58.0135 96.5345C57.8167 96.5345 57.2611 96.4534 56.7981 96.3607C56.3467 96.2795 55.7564 96.1637 55.5017 96.1173C55.2471 96.0709 54.9808 96.013 54.923 96.0014C54.8535 95.9898 54.3095 95.8623 53.7076 95.7232C53.1057 95.5957 52.3186 95.3987 51.9714 95.2944C51.6241 95.2017 50.756 94.9351 50.0615 94.7033C49.3554 94.4831 48.2442 94.0891 47.5729 93.8341C46.9015 93.5907 46.3112 93.3473 46.2649 93.3009C46.2186 93.2662 46.508 92.8605 46.9015 92.4201C47.3067 91.9797 48.0127 91.2959 48.4757 90.8902C48.9387 90.4846 49.367 90.1485 49.4249 90.1485ZM71.5908 90.67C71.6603 90.6816 71.7066 91.6088 71.7066 93.1387C71.7066 94.6106 71.6603 95.6421 71.5908 95.7116C71.5098 95.8044 71.313 95.6189 70.9542 95.109C70.6648 94.7149 70.0861 93.7993 69.6463 93.0807C69.218 92.3622 68.9055 91.7363 68.9402 91.6899C68.9749 91.6436 69.5652 91.3886 70.2366 91.122C70.9195 90.8555 71.5214 90.6584 71.5908 90.67ZM30.4767 91.1568C30.5578 91.2032 30.8703 91.4118 31.1944 91.6088C31.5069 91.8174 32.0625 92.1419 32.4098 92.3506C32.757 92.5476 34.0302 93.1966 35.2456 93.7993C36.4494 94.3904 38.1509 95.1553 39.0075 95.4914C39.864 95.8159 40.8942 96.1868 41.2877 96.3143C41.878 96.4882 42.0401 96.5925 42.1443 96.8475C42.2137 97.0213 42.3873 97.4154 42.5494 97.7167C42.7114 98.0412 42.7809 98.2962 42.7114 98.3194C42.642 98.3541 42.3758 98.331 42.098 98.273C41.8317 98.2151 40.9636 97.9253 40.1649 97.6472C39.3663 97.369 38.313 96.9749 37.8152 96.7779C37.3291 96.5809 36.8314 96.3607 36.7156 96.3027C36.6115 96.2448 35.8707 95.8739 35.072 95.4798C34.2733 95.0858 33.4631 94.6801 33.2779 94.5758C33.0811 94.4831 32.595 94.1818 32.1783 93.9268C31.7616 93.6602 31.2523 93.2314 31.0439 92.988C30.8356 92.733 30.5693 92.2579 30.442 91.9217C30.3147 91.5856 30.2452 91.2611 30.28 91.1916C30.3147 91.1336 30.4073 91.1104 30.4767 91.1568ZM68.0605 92.0145C68.0952 92.0145 68.2573 92.2347 68.4309 92.5012C68.5929 92.7678 69.2296 93.6139 69.843 94.3788C70.8385 95.6421 70.9311 95.7928 70.7459 95.9203C70.6417 96.0014 70.5144 96.0709 70.4565 96.0709C70.4102 96.0709 70.3986 95.9898 70.4333 95.8855C70.4796 95.758 70.2713 95.6421 69.6463 95.4103C69.1948 95.2365 68.373 94.8772 67.829 94.599C67.285 94.3209 66.5789 93.9384 66.2664 93.7529C65.9423 93.5675 65.6761 93.3589 65.6529 93.2893C65.6413 93.2198 66.1622 92.9069 66.8104 92.5824C67.4586 92.2694 68.0258 92.0145 68.0605 92.0145ZM64.9237 93.6602C64.97 93.6718 65.5372 93.9616 66.2085 94.2977C66.8798 94.6338 67.91 95.0974 68.5119 95.3408C69.1138 95.5842 69.6347 95.8507 69.6694 95.9319C69.7273 96.0709 69.6 96.0941 69.0444 96.0709C68.6624 96.0477 68.3151 96.0478 68.2573 96.0478C68.211 96.0593 68.2688 96.1521 68.373 96.2564C68.5466 96.4186 68.7087 96.4418 69.299 96.3723C69.843 96.3143 70.0282 96.3375 70.0282 96.4418C70.0282 96.5229 69.7504 96.7431 69.4148 96.9286C69.0907 97.1256 68.7666 97.2995 68.6971 97.3226C68.6277 97.3458 68.4193 97.4385 68.2341 97.5197C68.0373 97.6008 67.2039 97.879 66.3821 98.1339C65.5487 98.3889 64.4607 98.7134 63.9514 98.8409C63.4421 98.9684 62.4467 99.177 60.4789 99.5595L60.2706 99.2929C60.1548 99.1423 60.0622 98.98 60.0622 98.9336C60.0738 98.8873 60.1432 98.8293 60.2127 98.8061C60.2937 98.7714 61.0924 98.6671 61.9837 98.5628C62.8749 98.4585 63.8588 98.3194 64.1829 98.2614C64.4954 98.2035 65.2825 98.0528 65.9191 97.9137C66.5557 97.7862 67.1113 97.6356 67.1576 97.5892C67.2039 97.5544 67.0882 97.4965 66.8914 97.4849C66.7062 97.4733 66.4284 97.5081 66.2664 97.566C66.1043 97.6356 65.4446 97.7631 64.7848 97.8674C64.1366 97.9601 63.2337 98.0876 62.7939 98.1455C62.3425 98.2035 61.5554 98.2846 60.0738 98.3773L60.1432 98.0644C60.178 97.8905 60.2821 97.624 60.3747 97.4849C60.5368 97.2299 60.5715 97.2299 62.8171 97.2299C64.0787 97.2299 65.514 97.1952 66.0002 97.1488C66.4979 97.0908 66.903 97.0213 66.903 96.9865C66.903 96.9634 65.6298 96.9286 64.0671 96.9286C62.3425 96.9286 61.1966 96.8938 61.1155 96.8127C61.0345 96.7431 61.1966 96.4998 62.273 95.4219L62.7013 95.561C62.9444 95.6421 63.8125 95.8044 64.6459 95.9319C65.4677 96.0593 66.4979 96.1984 66.9261 96.2332C67.447 96.2795 67.7364 96.2564 67.7943 96.1637C67.8521 96.0941 67.8058 95.9898 67.7132 95.9319C67.6206 95.8855 67.4586 95.8623 67.366 95.8971C67.2734 95.9318 66.5905 95.8507 65.8613 95.7116C65.132 95.5842 64.1829 95.3987 63.743 95.306C63.2916 95.2017 62.9675 95.0742 62.9675 94.9931C62.9675 94.9119 63.3958 94.5758 63.9167 94.2397C64.4375 93.9036 64.889 93.6371 64.9237 93.6602ZM45.6746 94.0891C45.6978 94.0891 46.1492 94.2513 46.6701 94.4483C47.2025 94.6454 48.0706 94.9351 48.6146 95.109C49.1587 95.2712 50.0383 95.5262 50.5824 95.6769C51.1264 95.8275 52.2955 96.1057 53.1867 96.3027C54.078 96.4882 55.5364 96.7547 56.4277 96.8938C57.319 97.0213 58.0713 97.1488 58.1061 97.172C58.1408 97.2067 58.0829 97.3111 57.9787 97.427C57.8746 97.5429 57.7241 97.821 57.6546 98.0644C57.5852 98.3078 57.4347 98.5396 57.319 98.5743C57.2148 98.6207 56.312 98.5975 55.3281 98.5164C54.3442 98.4469 53.0131 98.331 52.3765 98.273C51.7399 98.2035 50.5939 98.0528 49.83 97.9137C49.0661 97.7862 47.8391 97.5429 47.1099 97.3806C46.3807 97.2299 45.501 97.0213 45.1653 96.9286C44.6676 96.7895 44.5634 96.72 44.5634 96.4998C44.5634 96.3607 44.6444 96.0014 44.737 95.7116C44.8412 95.4335 45.0843 94.9467 45.2695 94.6454C45.4663 94.344 45.6399 94.0891 45.6746 94.0891ZM44.6792 97.3342C44.737 97.3342 45.1769 97.4501 45.6283 97.5776C46.0913 97.7051 47.0752 97.9137 47.8044 98.0412C48.5336 98.1687 49.7606 98.3541 50.5245 98.4469C51.2884 98.5396 52.3765 98.6671 52.9552 98.7366C53.5224 98.7946 54.7725 98.8409 57.4694 98.8525L57.7241 99.3161C57.9209 99.6638 57.9556 99.7913 57.8398 99.8492C57.7704 99.8956 56.5319 99.9536 55.0966 99.9883C53.5224 100.023 51.7514 99.9767 50.6402 99.8956C49.6217 99.8145 48.0822 99.6174 47.2256 99.4668C45.8945 99.2234 45.6167 99.1307 45.3274 98.8641C45.1537 98.7018 44.8991 98.3657 44.7833 98.1224C44.656 97.879 44.5634 97.6124 44.5634 97.5081C44.5634 97.4154 44.6097 97.3342 44.6792 97.3342Z" fill="white"/>
</svg>
