<svg width="18" height="18" viewBox="0 0 18 18" fill="none" xmlns="http://www.w3.org/2000/svg">
<g clip-path="url(#clip0_863_1053)">
<path d="M8.95 8.65078C10.3 8.65078 11.35 7.55078 11.35 6.20078C11.35 4.85078 10.25 3.80078 8.9 3.80078C7.55 3.80078 6.5 4.90078 6.5 6.20078C6.5 7.55078 7.6 8.65078 8.95 8.65078ZM8.9 4.80078C8.95 4.80078 8.95 4.80078 8.9 4.80078C9.7 4.80078 10.35 5.45078 10.35 6.25078C10.35 7.05078 9.7 7.65078 8.9 7.65078C8.1 7.65078 7.5 7.00078 7.5 6.25078C7.5 5.45078 8.15 4.80078 8.9 4.80078Z" fill="white"/>
<path d="M16.35 8.34751C15.4 7.49751 14.15 7.04751 12.85 7.09751H12.45C12.35 7.49751 12.2 7.84751 12 8.14751C12.3 8.09751 12.55 8.09751 12.85 8.09751C13.8 8.04751 14.75 8.34751 15.5 8.89751V12.4975H16.5V8.49751L16.35 8.34751Z" fill="white"/>
<path d="M11.7 3.89844C11.95 3.29844 12.65 2.99844 13.3 3.24844C13.9 3.49844 14.2 4.19844 13.95 4.84844C13.75 5.29844 13.3 5.59844 12.85 5.59844C12.75 5.59844 12.6 5.59844 12.5 5.54844C12.55 5.79844 12.55 6.04844 12.55 6.24844V6.54844C12.65 6.54844 12.75 6.59844 12.85 6.59844C14.1 6.59844 15.1 5.59844 15.1 4.39844C15.1 3.14844 14.1 2.14844 12.9 2.14844C12.1 2.14844 11.4 2.54844 11 3.24844C11.25 3.39844 11.5 3.59844 11.7 3.89844Z" fill="white"/>
<path d="M6 8.20221C5.8 7.90221 5.65 7.55221 5.55 7.15221H5.15C3.85 7.10221 2.6 7.55221 1.65 8.35221L1.5 8.50221V12.5022H2.5V8.90221C3.3 8.35221 4.2 8.05221 5.15 8.10221C5.45 8.10221 5.75 8.15221 6 8.20221Z" fill="white"/>
<path d="M5.14988 6.5491C5.24988 6.5491 5.34988 6.5491 5.44988 6.4991V6.1991C5.44988 5.9491 5.44988 5.6991 5.49988 5.4991C5.39988 5.5491 5.24988 5.5491 5.14988 5.5491C4.49988 5.5491 3.94988 4.9991 3.94988 4.3491C3.94988 3.6991 4.49988 3.1491 5.14988 3.1491C5.64988 3.1491 6.09988 3.4491 6.29988 3.8991C6.49988 3.6491 6.79988 3.3991 7.04988 3.1991C6.39988 2.1491 5.04988 1.7991 3.99988 2.4491C2.94988 3.0991 2.59988 4.4491 3.24988 5.4991C3.64988 6.1491 4.34988 6.5491 5.14988 6.5491Z" fill="white"/>
<path d="M13.05 11.3527L12.95 11.2027C11.95 10.1027 10.55 9.45269 9.05 9.50269C7.55 9.45269 6.1 10.1027 5.1 11.2027L5 11.3527V15.1527C5 15.6027 5.35 16.0027 5.85 16.0027H12.25C12.7 16.0027 13.1 15.6027 13.1 15.1527V11.3527H13.05ZM12.05 15.0027H6V11.7027C6.8 10.9027 7.9 10.5027 9.05 10.5027C10.15 10.4527 11.25 10.9027 12.05 11.7027V15.0027Z" fill="white"/>
</g>
<defs>
<clipPath id="clip0_863_1053">
<rect width="18" height="18" fill="white"/>
</clipPath>
</defs>
</svg>
