<svg width="24" height="24" viewBox="0 0 24 24" fill="none" xmlns="http://www.w3.org/2000/svg">
<g clip-path="url(#clip0_300_119)">
<path d="M6.1875 3.73315H17.8142V20.2665H16.1075V12.6931H16.0908C15.9021 10.6001 14.143 8.9598 12.0008 8.9598C9.85864 8.9598 8.09953 10.6001 7.91089 12.6931H7.89416V20.2665H6.1875V3.73315Z" fill="white"/>
<path d="M3.09375 6.08002L3.78709 8.42669H4.37374V17.92C4.07919 17.92 3.84041 18.1588 3.84041 18.4534V19.0934H3.73376C3.43921 19.0934 3.20041 19.3321 3.20041 19.6267V20.2667H9.17374V19.6267C9.17374 19.3321 8.93497 19.0934 8.64041 19.0934H8.53376V18.4534C8.53376 18.1588 8.29496 17.92 8.00041 17.92H7.36042V6.08002H3.09375Z" fill="white"/>
<path d="M16.2124 17.92C15.9178 17.92 15.679 18.1588 15.679 18.4534V19.0934H15.5724C15.2778 19.0934 15.0391 19.3321 15.0391 19.6267V20.2667H21.0124V19.6267C21.0124 19.3321 20.7736 19.0934 20.479 19.0934H20.3724V18.4534C20.3724 18.1588 20.1336 17.92 19.8391 17.92V8.42669H20.4257L21.1191 6.08002H16.8524V17.92H16.2124Z" fill="white"/>
</g>
<defs>
<clipPath id="clip0_300_119">
<rect width="24" height="24" fill="white"/>
</clipPath>
</defs>
</svg>
