<svg width="24" height="24" viewBox="0 0 24 24" fill="none" xmlns="http://www.w3.org/2000/svg">
<path d="M1.98438 5.95253C1.98438 4.08146 1.98437 3.14691 2.56574 2.56555C3.1471 1.98419 4.08164 1.98419 5.95271 1.98419C7.82378 1.98419 8.75832 1.98419 9.33968 2.56555C9.92104 3.14691 9.92104 4.08146 9.92104 5.95253V17.8575C9.92104 19.7286 9.92104 20.6631 9.33968 21.2445C8.75832 21.8259 7.82378 21.8259 5.95271 21.8259C4.08164 21.8259 3.1471 21.8259 2.56574 21.2445C1.98437 20.6631 1.98438 19.7286 1.98438 17.8575V5.95253ZM13.8894 5.95253C13.8894 4.08146 13.8894 3.14691 14.4707 2.56555C15.0521 1.98419 15.9866 1.98419 17.8577 1.98419C19.7288 1.98419 20.6633 1.98419 21.2447 2.56555C21.826 3.14691 21.826 4.08146 21.826 5.95253V17.8575C21.826 19.7286 21.826 20.6631 21.2447 21.2445C20.6633 21.8259 19.7288 21.8259 17.8577 21.8259C15.9866 21.8259 15.0521 21.8259 14.4707 21.2445C13.8894 20.6631 13.8894 19.7286 13.8894 17.8575V5.95253Z" fill="white"/>
</svg>
