<svg width="133" height="111" viewBox="0 0 133 111" fill="none" xmlns="http://www.w3.org/2000/svg">
<path d="M87.2037 12.4001C79.971 12.4001 73.1586 14.2096 67.1664 17.3723C66.787 12.5898 66.4743 7.16653 66.1565 1C65.8387 7.16653 65.526 12.5898 65.1467 17.3723C59.1545 14.2096 52.3421 12.4001 45.1093 12.4001C21.3403 12.4001 2 31.7404 2 55.5095C2 79.2785 21.3403 98.6188 45.1093 98.6188C52.3421 98.6188 59.1545 96.8093 65.1467 93.6466C65.526 98.4291 65.8387 103.852 66.1565 110.019C66.4743 103.852 66.787 98.4291 67.1664 93.6466C73.1586 96.8093 79.971 98.6188 87.2037 98.6188C110.973 98.6188 130.313 79.2785 130.313 55.5095C130.313 31.7404 110.973 12.4001 87.2037 12.4001ZM64.8186 89.9149C54.4232 83.1281 47.293 71.7741 46.2781 58.7132C59.1032 62.2142 62.8913 69.6059 64.8186 89.9149ZM46.2781 52.2955C47.293 39.2345 54.4232 27.8805 64.8186 21.0938C62.8913 41.3977 59.1032 48.7945 46.2781 52.2955ZM67.4893 21.0938C77.8847 27.8805 85.0149 39.2345 86.0299 52.2955C73.2047 48.7945 69.4166 41.4028 67.4893 21.0938ZM86.0299 58.7132C85.0149 71.7741 77.8847 83.1281 67.4893 89.9149C69.4166 69.6059 73.2047 62.2142 86.0299 58.7132ZM4.01451 55.5043C4.01451 32.8476 22.4475 14.4146 45.1042 14.4146C51.9832 14.4146 58.4573 16.1318 64.1574 19.1356C52.8342 26.3325 45.1145 38.6451 44.2277 52.8081C38.6916 54.0639 31.6486 54.7713 22.591 55.5095C31.6434 56.2425 38.6865 56.955 44.2277 58.2108C45.1093 72.3739 52.8342 84.6813 64.1574 91.8833C58.4573 94.882 51.9781 96.6043 45.1042 96.6043C22.4475 96.6043 4.01451 78.1713 4.01451 55.5146V55.5043ZM87.1986 96.594C80.3196 96.594 73.8455 94.8768 68.1454 91.873C79.4687 84.6762 87.1884 72.3636 88.0751 58.2006C93.6112 56.9447 100.654 56.2374 109.707 55.4992C100.654 54.7662 93.6112 54.0588 88.0751 52.7978C87.1935 38.6348 79.4687 26.3274 68.1454 19.1254C73.8455 16.1267 80.3247 14.4044 87.1986 14.4044C109.855 14.4044 128.288 32.8373 128.288 55.4941C128.288 78.1508 109.855 96.5838 87.1986 96.5838V96.594Z" fill="#3E3E3E" stroke="white" stroke-width="4" stroke-miterlimit="10"/>
<path fill-rule="evenodd" clip-rule="evenodd" d="M63.1519 47.0716C62.9982 47.169 62.9418 47.2869 62.9418 47.497C62.9418 47.6252 62.9623 47.6969 63.0238 47.7585C63.1161 47.8558 63.3211 47.9532 63.4339 47.9532C63.5108 47.9532 63.644 48.0404 64.4693 48.6452C64.7307 48.8349 65.028 49.0451 65.1254 49.1117C65.3356 49.245 65.3305 49.2399 65.5201 50.0549C65.597 50.3778 65.6637 50.6495 65.6688 50.6546C65.6739 50.6597 65.7508 50.6392 65.8431 50.6085C65.9917 50.5572 66.0174 50.5572 66.2583 50.6444C66.3967 50.6956 66.5248 50.7264 66.5402 50.711C66.5556 50.6956 66.6479 50.3778 66.7504 50.0087C66.8529 49.6346 66.9452 49.3167 66.9554 49.3014C66.9657 49.286 67.1041 49.1886 67.263 49.0809C67.4219 48.9784 67.8268 48.6965 68.1703 48.4607C68.5137 48.2249 68.8059 48.0353 68.8213 48.0506C68.8879 48.0916 69.1544 47.984 69.2775 47.8558C69.4005 47.7277 69.4056 47.7123 69.3902 47.5483C69.3646 47.3022 69.1698 47.1177 68.9392 47.1177C68.6777 47.1177 68.5188 47.251 68.4778 47.5124C68.4727 47.5534 68.078 47.8405 67.4578 48.2557L66.4479 48.9323L66.3044 49.4449C66.2224 49.7268 66.1506 49.9626 66.1455 49.9729C66.1353 49.9831 66.0737 49.7524 66.0071 49.4603C65.8687 48.881 65.8943 48.9169 65.4535 48.6196C65.3049 48.5222 64.8896 48.23 64.5308 47.9686C63.9311 47.5432 63.8696 47.4868 63.8337 47.3484C63.7517 47.0459 63.4236 46.9127 63.1673 47.0767L63.1519 47.0716ZM71.2356 48.2198C70.7537 48.3223 70.277 48.7068 70.072 49.163C69.8516 49.6397 69.8875 50.2394 70.1591 50.67C70.318 50.916 70.6153 51.1877 70.8511 51.2954C71.8558 51.7516 73.0194 51.1518 73.2091 50.0805C73.368 49.1527 72.635 48.2454 71.6918 48.1993C71.5278 48.1942 71.3227 48.1993 71.2356 48.2198ZM59.0666 48.8452C58.4617 49.0348 58.026 49.5013 57.8773 50.1061C57.7543 50.6085 57.9235 51.1672 58.3233 51.5773C58.4566 51.7106 58.6308 51.8387 58.8 51.9207C59.0563 52.0489 59.0819 52.0489 59.5074 52.0489C59.9277 52.0489 59.9585 52.0438 60.1789 51.9259C60.307 51.8592 60.4659 51.7567 60.5326 51.7054C60.5992 51.6491 60.6761 51.6132 60.7069 51.6234C60.7684 51.6491 61.2451 51.9925 61.9781 52.5358L62.4856 52.9152L62.3318 53.0843C62.2447 53.1766 62.1575 53.2996 62.137 53.3509C62.1165 53.4073 62.1011 54.2172 62.1011 55.3603C62.1011 57.221 62.1011 57.2774 62.1831 57.4363C62.2959 57.6618 62.542 57.8617 63.3826 58.3846C63.7824 58.6357 64.3412 58.9894 64.6231 59.1791C64.905 59.3688 65.2741 59.6045 65.4432 59.7071C65.7405 59.8865 65.7559 59.8916 65.9969 59.8813C66.2121 59.8711 66.2788 59.8455 66.4838 59.7173C67.8371 58.8459 68.8674 58.2103 68.8982 58.2257C68.9648 58.2667 70.6 59.4354 70.6307 59.4661C70.6512 59.4815 70.6256 59.5943 70.5743 59.7173C70.5026 59.8967 70.4872 60.0146 70.4821 60.3427C70.4821 60.722 70.4821 60.7579 70.6102 61.0091C71.0203 61.8497 72.066 62.2137 72.8656 61.7882C73.8703 61.25 74.0959 59.9787 73.3219 59.1893C73.0758 58.9382 72.8349 58.7946 72.5376 58.7178C72.1019 58.605 71.6713 58.6614 71.3176 58.8715L71.0972 59.0048L70.9793 58.9177C70.9127 58.8715 70.7794 58.7741 70.682 58.7075C70.5846 58.6409 70.2668 58.4102 69.9849 58.2L69.4671 57.8105L69.6004 57.6618C69.867 57.3696 69.8516 57.4824 69.8516 55.3705C69.8516 53.2586 69.8516 53.3355 69.6363 53.0536L69.5389 52.9254L70.1489 52.1822L70.7589 51.4389L70.6 51.3466C70.5128 51.2954 70.4052 51.2185 70.3642 51.1723C70.3232 51.1262 70.277 51.0903 70.2617 51.0903C70.2463 51.0903 70.0361 51.3364 69.7952 51.6337C69.3031 52.2488 69.0468 52.5512 69.0058 52.5717C68.9904 52.5769 68.8059 52.4743 68.6008 52.3411C68.3958 52.2078 67.9396 51.9156 67.5962 51.6952C67.2476 51.4748 66.7863 51.1775 66.571 51.0391C66.0481 50.7008 65.9968 50.6956 65.556 50.9417C65.3664 51.0493 64.9358 51.3107 64.6026 51.5312C63.5261 52.2334 63.1161 52.4897 63.0751 52.4846C63.0443 52.4846 61.3681 51.2954 61.1067 51.0903C61.0452 51.0442 61.0452 51.0237 61.1016 50.8289C61.1426 50.6854 61.1528 50.5162 61.1426 50.3009C61.1272 50.0344 61.1016 49.937 60.9888 49.7012C60.7735 49.2655 60.3839 48.9425 59.9175 48.8195C59.6817 48.758 59.2818 48.758 59.0768 48.8195L59.0666 48.8452ZM71.2458 49.2604C71.0408 49.3783 70.9485 49.5167 70.928 49.7473C70.9024 50.0139 70.9947 50.2138 71.2202 50.3573C71.7738 50.7213 72.4402 50.1113 72.1378 49.5167C71.9737 49.204 71.5636 49.0809 71.251 49.2604H71.2458ZM59.1793 49.855C58.964 49.9882 58.8154 50.2394 58.8154 50.4598C58.8154 50.8545 59.2665 51.1877 59.6509 51.0801C60.2558 50.916 60.3224 50.1318 59.7586 49.8345C59.6099 49.7576 59.3126 49.7678 59.1742 49.8498L59.1793 49.855ZM65.2075 52.705C64.8076 52.9664 64.2438 53.3304 63.9567 53.5149L63.4339 53.8481V56.8775L64.6077 57.6362C65.2536 58.0565 65.8226 58.4256 65.879 58.4563C65.9763 58.5178 65.9866 58.5127 67.2322 57.7028L68.4932 56.8878L68.5034 55.3654L68.5137 53.843L68.1241 53.5918C67.9088 53.4534 67.4578 53.1663 67.1194 52.9459C66.3147 52.4282 65.9815 52.2232 65.9558 52.2232C65.9456 52.2232 65.6073 52.4385 65.2075 52.6999V52.705ZM65.7918 53.1407C65.6996 53.2022 65.3407 53.4278 64.9973 53.6482C64.6487 53.8686 64.3053 54.089 64.2233 54.1403L64.0798 54.2325V55.3603V56.488L64.377 56.6776C65.6739 57.508 65.9661 57.6874 66.002 57.6669C66.1968 57.5593 67.1194 56.9698 67.4475 56.7443L67.8576 56.4623V55.35V54.2377L67.6218 54.0788C67.222 53.8122 66.1865 53.1561 66.0686 53.0946C65.9661 53.0433 65.9507 53.0433 65.7918 53.1458V53.1407ZM65.4074 54.3556L64.8845 54.6888V56.0369L65.4279 56.3752C65.7252 56.5597 65.9815 56.7084 65.9969 56.7033C66.0122 56.7033 66.2583 56.5443 66.5453 56.3649L67.063 56.0369L67.0528 55.35L67.0426 54.6631L66.53 54.3402C66.248 54.1659 66.002 54.0224 65.9763 54.0224C65.9507 54.0224 65.6996 54.1762 65.4074 54.3556ZM65.638 54.8118L65.3407 54.9912V55.7293L65.4638 55.8011C65.5304 55.8421 65.6739 55.9241 65.7764 55.9805L65.9661 56.083L66.2737 55.9139L66.5812 55.7447V54.9604L66.2737 54.7913C66.1045 54.699 65.961 54.6272 65.9507 54.6272C65.9405 54.6272 65.7969 54.7093 65.638 54.8066V54.8118ZM61.8858 57.9386C61.6244 58.3077 61.1221 58.9535 61.0554 59.0151C61.0093 59.0561 60.958 59.0509 60.7786 58.9843C60.1635 58.7536 59.5228 58.8972 59.0409 59.3688C58.5283 59.8711 58.395 60.64 58.7026 61.2551C59.0512 61.9369 59.8252 62.3316 60.507 62.1727C61.3271 61.983 61.8653 61.3269 61.8704 60.5221C61.8704 60.235 61.7577 59.8455 61.609 59.6456L61.4963 59.4918L61.65 59.2867C61.7372 59.174 61.9781 58.8664 62.1831 58.605L62.5625 58.1334L62.342 57.9079C62.219 57.7848 62.1062 57.6823 62.096 57.6823C62.0857 57.6823 61.9884 57.8002 61.8858 57.9386ZM71.8507 59.7276C71.6713 59.8198 71.5995 59.8967 71.5226 60.0659C71.3689 60.4042 71.497 60.7528 71.8404 60.927C72.312 61.168 72.8503 60.7528 72.7682 60.2145C72.7067 59.8096 72.2044 59.543 71.8507 59.7276ZM60.0251 59.8916C59.9636 59.907 59.8611 59.9685 59.7893 60.0197C59.3075 60.3837 59.5689 61.1833 60.1738 61.1987C60.7837 61.2141 61.0913 60.5016 60.6607 60.071C60.4711 59.8813 60.2609 59.8198 60.0251 59.8916ZM64.8948 59.989C64.864 60.0044 64.8486 60.0915 64.8486 60.235V60.4606H67.3655V60.0044H66.6889C66.3147 60.0044 65.7713 59.9941 65.4791 59.9839C65.1869 59.9736 64.9255 59.9736 64.8948 59.9839V59.989ZM64.9717 60.9527L64.8486 60.9681V61.4601H67.3296V60.9629H67.0169C66.8426 60.9629 66.3403 60.9578 65.8995 60.9527C65.4586 60.9527 65.0434 60.9527 64.9717 60.9527ZM64.8486 62.1829V62.4495H65.9148V63.6336H66.4889L66.4787 62.7826L66.4684 61.9317L65.6585 61.9215L64.8486 61.9112V62.1778V62.1829Z" fill="white"/>
<path fill-rule="evenodd" clip-rule="evenodd" d="M16.0447 46.4474C16.0088 46.4833 15.9268 46.6217 15.8602 46.7499C15.7474 46.9754 15.7423 46.9908 15.814 47.042C15.855 47.0728 15.9217 47.1087 15.9678 47.1241C16.1062 47.1702 16.2702 47.3496 16.2702 47.4624C16.2702 47.5854 16.1267 47.734 15.9934 47.7494C15.9114 47.7597 15.8909 47.7289 15.8243 47.5188C15.7269 47.2061 15.4962 46.9344 15.2399 46.837C14.9631 46.7294 14.43 46.7345 14.1891 46.8473C13.7995 47.0267 13.5535 47.406 13.5176 47.8673C13.5022 48.0929 13.5176 48.1646 13.6047 48.3645C13.6611 48.4927 13.7739 48.6618 13.8457 48.7387L13.9841 48.8771L13.7175 49.277C13.451 49.6768 12.8153 50.7481 12.7333 50.9378C12.6718 51.0813 12.272 51.7836 12.2156 51.8604C12.1131 51.9937 11.9337 52.1014 11.8055 52.1014C11.4775 52.1014 11.2365 51.4657 11.3442 50.8865C11.4057 50.5482 11.539 50.2868 11.8311 49.928C12.4565 49.1642 12.6308 48.8669 12.7128 48.4619C12.7743 48.1441 12.7128 47.934 12.477 47.6982C12.1695 47.3906 11.8568 47.3598 11.3237 47.57C10.4471 47.9186 9.75514 48.7336 9.33481 49.9023C9.0375 50.7276 8.97599 51.6246 9.17077 52.2808C9.44757 53.2188 10.0576 53.9467 10.9956 54.4593C11.175 54.5567 11.3288 54.6592 11.3391 54.6797C11.3493 54.7002 11.2827 54.813 11.1955 54.9258C10.97 55.2282 10.7188 55.992 10.4933 57.094C9.94993 59.7083 9.91917 60.0927 10.2472 60.4464C10.3651 60.5746 10.7291 60.754 11.0161 60.8257C11.2827 60.8924 11.4108 61.0103 11.3698 61.1436C11.3544 61.1897 11.2007 61.5075 11.0213 61.8458C10.4471 62.9428 10.3856 63.0812 10.3651 63.3426C10.3498 63.5476 10.36 63.604 10.442 63.7219C10.6983 64.1012 11.3032 64.2806 12.2874 64.2806C13.2152 64.2806 14.143 64.0448 14.389 63.7424C14.471 63.6399 14.5069 63.4092 14.4608 63.2401C14.4044 63.0145 14.184 62.8403 13.7021 62.6352C13.4817 62.5429 13.2972 62.4404 13.2818 62.4148C13.2357 62.302 14.4351 60.5131 14.794 60.1594C15.204 59.7544 15.6756 59.657 16.6239 59.7852C17.3159 59.8774 17.4492 59.9133 17.6235 60.0825C17.8439 60.2926 17.8644 60.3952 17.9977 62.0867C18.0592 62.83 18.1105 62.9889 18.3616 63.1939C18.741 63.5066 19.5508 63.4656 20.7401 63.0812C21.3501 62.8813 21.6832 62.7172 21.8729 62.5224C22.0011 62.3892 22.0267 62.3328 22.0421 62.1534C22.0677 61.8151 21.8729 61.5024 21.5141 61.3127C21.3296 61.2153 20.9092 61.1999 20.5197 61.282C20.2275 61.3435 20.2172 61.3281 20.2172 60.9436C20.2172 59.8159 19.6739 58.637 18.8793 58.0321C18.5923 57.8117 18.3616 57.7092 17.8132 57.5451C17.2852 57.3914 17.2339 57.3606 17.0494 57.094C16.7162 56.6122 16.6803 55.8792 16.9674 55.5563C17.0853 55.423 17.3313 55.3256 17.6901 55.2641C18.6026 55.1052 19.9609 54.4029 20.6888 53.716C21.5807 52.8703 21.9959 51.8246 21.7089 51.1377C21.55 50.7635 21.2629 50.5584 20.8939 50.5584C20.5248 50.5584 20.1865 50.8096 19.7251 51.4709C19.1767 52.2654 18.5769 52.6601 17.9311 52.6601C17.2852 52.6601 16.8495 52.1475 16.911 51.5426C16.9417 51.2453 17.0545 51.0864 17.3364 50.9378C17.5415 50.825 17.6594 50.7994 18.1822 50.7327C18.8383 50.6507 18.9921 50.5892 19.2433 50.3278C19.5714 49.9843 19.7098 49.3949 19.5406 49.0668C19.4022 48.8002 19.1408 48.6003 18.7922 48.4978C18.6077 48.4414 18.4078 48.3492 18.2796 48.2569C18.0592 48.0929 17.8388 47.9955 17.3826 47.8468C17.1058 47.7597 17.0904 47.7494 17.1109 47.652C17.1929 47.2881 17.1878 47.1343 17.0699 46.9088C17.0084 46.7857 16.9007 46.6422 16.8341 46.591C16.5573 46.3808 16.1626 46.3039 16.0344 46.4372L16.0447 46.4474ZM14.512 47.6725C14.3326 47.8929 14.5018 48.2261 14.7581 48.1595C14.8657 48.1339 14.9887 47.9237 14.9529 47.8263C14.8862 47.6418 14.6146 47.5444 14.512 47.6725ZM16.5009 48.9233C16.424 49.0155 16.5522 49.0975 16.7726 49.0975C16.993 49.0975 17.1314 49.0309 17.157 48.9335C17.1724 48.8669 17.1519 48.8566 16.8648 48.8566C16.6291 48.8566 16.5419 48.872 16.5009 48.9233ZM14.1635 52.0296C13.7431 52.3935 13.2459 52.6498 12.8307 52.7165L12.6564 52.7421L12.6872 53.1676C12.7026 53.4034 12.7179 53.5981 12.7231 53.5981C12.7282 53.5981 12.8615 53.5828 13.0152 53.552C13.3484 53.4905 13.8149 53.2855 14.1481 53.0548C14.2762 52.9676 14.4044 52.8959 14.4351 52.8959C14.4659 52.8959 14.6043 53.0087 14.7478 53.1522C14.8913 53.2906 15.1066 53.4649 15.2297 53.5315L15.4501 53.6545L15.7064 53.3982L15.9627 53.1419L15.8294 53.0702C15.4501 52.86 15.0708 52.5678 14.7478 52.2346C14.5479 52.0296 14.3839 51.8604 14.3788 51.8604C14.3736 51.8604 14.2814 51.9373 14.1686 52.0347L14.1635 52.0296ZM12.0259 57.0377C11.9696 57.0479 11.8875 57.0633 11.8363 57.0735L11.744 57.094V59.4161L11.8927 59.3905C13.1588 59.1701 14.2096 58.7907 14.9734 58.273C15.2553 58.0834 15.5372 57.8322 15.5372 57.7758C15.5372 57.7553 15.4245 57.6425 15.2809 57.5144C15.0605 57.3196 15.0195 57.2991 14.9734 57.3503C14.8965 57.4426 14.307 57.8578 14.0558 58.0013C13.6252 58.2423 13.046 58.4473 12.5026 58.5447L12.3694 58.5703L12.395 58.2628C12.4104 58.0936 12.4309 57.7399 12.4463 57.4836L12.4719 57.012H12.2976C12.2002 57.0223 12.0772 57.0274 12.0208 57.0377H12.0259Z" fill="#D7D7D7"/>
<path fill-rule="evenodd" clip-rule="evenodd" d="M116.514 45.8968C116.447 45.948 116.34 46.0916 116.278 46.2146C116.16 46.4453 116.155 46.5939 116.237 46.9579C116.258 47.0552 116.242 47.0655 115.965 47.1526C115.509 47.2962 115.289 47.3987 115.068 47.5627C114.945 47.655 114.745 47.7473 114.556 47.8036C114.207 47.9062 113.946 48.1061 113.807 48.3726C113.638 48.7007 113.782 49.2902 114.105 49.6336C114.356 49.895 114.51 49.9565 115.166 50.0386C115.683 50.1052 115.807 50.1308 116.012 50.2436C116.299 50.3974 116.406 50.5563 116.437 50.8485C116.499 51.4533 116.032 51.9659 115.417 51.9659C114.771 51.9659 114.171 51.5712 113.623 50.7767C113.162 50.1154 112.839 49.8643 112.454 49.8643C112.07 49.8643 111.793 50.0693 111.639 50.4435C111.352 51.1253 111.772 52.1761 112.659 53.0219C113.387 53.7139 114.745 54.411 115.658 54.5699C116.017 54.6314 116.263 54.7339 116.381 54.8621C116.673 55.185 116.637 55.918 116.299 56.3999C116.114 56.6664 116.063 56.6972 115.535 56.851C114.986 57.015 114.756 57.1175 114.469 57.3379C113.679 57.9428 113.136 59.1218 113.131 60.2495C113.131 60.6339 113.115 60.6493 112.828 60.5878C112.439 60.5058 112.018 60.516 111.834 60.6185C111.47 60.8133 111.275 61.1209 111.306 61.4592C111.321 61.6437 111.347 61.695 111.475 61.8283C111.665 62.0231 112.003 62.1871 112.608 62.387C113.802 62.7766 114.612 62.8125 114.986 62.4998C115.243 62.2896 115.294 62.1307 115.35 61.3926C115.489 59.701 115.509 59.5985 115.724 59.3883C115.899 59.2192 116.032 59.1833 116.724 59.091C117.672 58.968 118.149 59.0654 118.554 59.4652C118.913 59.8189 120.112 61.6027 120.066 61.7206C120.056 61.7463 119.866 61.8488 119.646 61.941C119.164 62.1461 118.944 62.3255 118.887 62.5459C118.841 62.7202 118.877 62.9509 118.959 63.0482C119.205 63.3456 120.138 63.5813 121.061 63.5865C122.045 63.5865 122.65 63.4019 122.906 63.0277C122.988 62.9098 122.998 62.8535 122.983 62.6484C122.962 62.387 122.901 62.2486 122.327 61.1516C122.147 60.8082 121.988 60.4955 121.978 60.4494C121.937 60.3161 122.07 60.1982 122.332 60.1316C122.624 60.0547 122.983 59.8753 123.101 59.7523C123.429 59.4037 123.398 59.0141 122.855 56.3999C122.624 55.2927 122.378 54.534 122.152 54.2316C122.065 54.1188 122.004 54.0061 122.009 53.9855C122.014 53.965 122.168 53.8625 122.352 53.7651C123.29 53.2525 123.9 52.5246 124.177 51.5866C124.372 50.9305 124.31 50.0334 124.013 49.2082C123.598 48.0446 122.901 47.2295 122.024 46.8758C121.486 46.6605 121.173 46.6964 120.871 47.004C120.635 47.2398 120.569 47.4499 120.635 47.7678C120.717 48.1727 120.891 48.4649 121.517 49.2338C121.809 49.5926 121.942 49.854 122.004 50.1923C122.111 50.7767 121.871 51.4072 121.542 51.4072C121.419 51.4072 121.24 51.3047 121.132 51.1663C121.076 51.0945 120.676 50.3871 120.615 50.2436C120.533 50.0539 119.897 48.9826 119.63 48.5828L119.364 48.183L119.502 48.0446C119.579 47.9677 119.687 47.7985 119.743 47.6704C119.836 47.4705 119.846 47.3987 119.83 47.1731C119.794 46.7118 119.548 46.3376 119.159 46.1531C118.918 46.0403 118.385 46.0352 118.108 46.1428C117.852 46.2402 117.616 46.5119 117.524 46.8246C117.457 47.0399 117.437 47.0655 117.355 47.0553C117.221 47.0399 117.078 46.8912 117.078 46.7682C117.078 46.6554 117.237 46.476 117.38 46.4299C117.426 46.4145 117.493 46.3786 117.534 46.3479C117.601 46.2966 117.601 46.2812 117.488 46.0557C117.421 45.9224 117.339 45.7891 117.303 45.7533C117.175 45.6251 116.78 45.6969 116.504 45.907L116.514 45.8968ZM118.405 47.1219C118.369 47.2193 118.493 47.4294 118.6 47.4551C118.856 47.5217 119.031 47.1885 118.846 46.9681C118.744 46.84 118.472 46.9374 118.405 47.1219ZM116.493 48.1573C116.206 48.1573 116.186 48.1625 116.201 48.2342C116.227 48.3367 116.381 48.3982 116.586 48.3982C116.791 48.3982 116.929 48.3162 116.857 48.224C116.816 48.1727 116.729 48.1573 116.493 48.1573ZM118.985 51.156C118.985 51.156 118.815 51.3252 118.616 51.5302C118.293 51.8634 117.908 52.1607 117.534 52.3657L117.401 52.4375L117.657 52.6938L117.913 52.9501L118.134 52.8271C118.257 52.7604 118.472 52.5913 118.616 52.4478C118.759 52.3094 118.897 52.1915 118.928 52.1915C118.959 52.1915 119.082 52.2632 119.215 52.3504C119.554 52.581 120.02 52.7861 120.348 52.8476C120.507 52.8783 120.64 52.8988 120.64 52.8937C120.64 52.8886 120.661 52.6938 120.676 52.4631L120.707 52.0377L120.533 52.0121C120.117 51.9454 119.62 51.6891 119.2 51.3252C119.092 51.2329 118.995 51.1509 118.99 51.1509L118.985 51.156ZM121.055 56.3179H120.881L120.907 56.7843C120.922 57.0406 120.943 57.3943 120.958 57.5635L120.984 57.871L120.85 57.8454C120.307 57.748 119.728 57.5481 119.297 57.302C119.046 57.1585 118.457 56.7433 118.38 56.651C118.334 56.5998 118.298 56.6203 118.072 56.8151C117.934 56.9381 117.816 57.056 117.816 57.0765C117.816 57.1329 118.098 57.3841 118.38 57.5737C119.144 58.0914 120.199 58.4708 121.46 58.6912L121.609 58.7168V57.5583V56.3999L121.517 56.3794C121.466 56.3691 121.384 56.3537 121.327 56.3435C121.271 56.3332 121.148 56.323 121.05 56.323L121.055 56.3179Z" fill="#D7D7D7"/>
</svg>
