<svg width="109" height="110" viewBox="0 0 109 110" fill="none" xmlns="http://www.w3.org/2000/svg">
<path fill-rule="evenodd" clip-rule="evenodd" d="M38.1964 1.32771C37.435 2.04038 35.3067 4.07101 33.4714 5.83316L30.1277 9.04018L28.8585 16.7917C27.6772 23.9818 27.5357 24.6115 26.867 25.456C25.671 26.9741 24.397 29.8003 24.07 31.6699C23.6697 33.9641 23.9919 35.7848 25.2854 38.489C27.0573 42.194 29.9275 45.0397 33.8863 47.0167L36.0145 48.0808H38.9384C41.6866 48.0808 41.9599 48.032 43.5219 47.29C46.3385 45.9574 48.413 43.2581 49.1891 39.9241C49.6724 37.835 49.6577 33.7835 49.1598 31.3624C48.5448 28.3799 46.4361 24.6896 44.2737 22.7957C43.1949 21.8536 41.4376 21.014 39.8414 20.6772C39.0116 20.5015 38.2453 20.2916 38.1476 20.2086C38.05 20.1256 38.0744 19.0371 38.2013 17.7875C38.7822 12.0861 39.7633 0.209896 39.6608 0.107389C39.6169 0.0634575 38.9579 0.615044 38.2013 1.32771H38.1964ZM69.0316 2.32839C69.2513 5.00822 69.5832 8.46906 70.374 16.2547C70.5839 18.3244 70.701 20.0768 70.6278 20.15C70.5595 20.2183 69.6857 20.4868 68.6948 20.7358C65.3658 21.5802 62.8958 23.8159 60.8994 27.7892C59.0445 31.4746 58.488 35.365 59.2739 39.1676C61.3436 49.1791 71.9409 51.4147 79.7851 43.4973C82.792 40.466 84.3833 37.6348 84.7836 34.628C85.135 31.9872 83.9879 28.292 82.0256 25.7147C81.5473 25.085 81.0884 24.182 81.0103 23.7085C80.9322 23.2301 80.5368 20.8529 80.1268 18.4269C79.7168 15.996 79.2384 12.9501 79.0578 11.6565C78.8674 10.2898 78.5648 9.12314 78.3403 8.8742C77.6862 8.16153 69.0414 0 68.9389 0C68.8852 0 68.9291 1.04948 69.0316 2.33326V2.32839ZM1.07417 29.7125C1.0644 30.6497 1.01559 31.6064 0.971659 31.8456C0.71295 33.1928 0.293158 39.8314 0.381021 41.1835C0.454241 42.2965 0.874033 43.7999 1.77707 46.182L3.06574 49.5891L3.34885 54.8853C3.66125 60.7673 4.042 62.7296 5.45269 65.6974C6.48265 67.8696 8.6353 70.2858 10.373 71.2328C11.8081 72.0138 14.1756 72.6825 15.5131 72.6825C17.0018 72.6825 19.5596 71.7649 21.1168 70.6763C21.9076 70.1247 22.5568 69.7196 22.5568 69.7782C22.5568 69.8367 22.1077 71.677 21.561 73.8687C18.5199 86.0475 18.7103 93.0962 22.2102 98.2362C23.6014 100.277 25.8126 102.19 28.1507 103.366C32.9002 105.753 47.7833 108.995 54.1144 109.019C55.7154 109.019 62.4419 108.214 65.6733 107.623C68.7485 107.062 77.2224 104.865 78.7259 104.235C84.1051 101.99 87.6489 98.0604 88.8058 93.0522C89.206 91.3291 89.3476 86.2819 89.0645 83.7778C88.6886 80.4292 87.5806 75.0012 86.6482 71.9552C85.9453 69.6513 85.9941 69.5243 87.2438 70.4811C93.6675 75.3819 102.181 71.4036 104.421 62.4562C104.943 60.3719 105.109 58.766 105.329 53.831L105.514 49.5842L106.867 46.0502L108.219 42.5161L108.16 39.231C108.106 36.1948 107.482 28.541 107.267 28.3262C107.174 28.2334 103.24 35.1502 100.916 39.4848C99.1492 42.7846 99.1785 42.7602 97.3236 42.809C93.9311 42.9017 90.4898 44.5223 86.4676 47.9051C82.0891 51.5904 79.502 57.4627 80.5905 61.2603C80.737 61.7729 80.737 62.0804 80.5857 62.0804C80.4539 62.0804 79.4678 61.6411 78.394 61.0992C71.7114 57.7458 58.7418 53.748 54.5537 53.748C51.4541 53.748 46.3238 54.9732 39.8317 57.2576C34.1694 59.2492 33.2615 59.6153 30.3668 61.0602L27.9067 62.2903L28.1361 61.4897C28.551 60.04 28.3948 57.5066 27.7749 55.7591C26.6619 52.6106 24.48 49.7014 21.3169 47.1534C17.8805 44.3857 14.5661 42.9798 11.154 42.8432L9.65549 42.7846L7.94215 39.7435C7.00006 38.0741 5.93594 36.1753 5.57472 35.5261C3.51482 31.8017 1.31335 27.9943 1.21572 27.9943C1.15715 27.9943 1.09857 28.7606 1.08393 29.6978L1.07417 29.7125ZM36.0536 30.1908C34.1108 31.2159 32.9539 33.3441 33.2273 35.3943C33.3981 36.6781 34.5159 38.284 35.6679 38.8942C36.9908 39.5971 39.0995 39.5239 40.2564 38.7429C42.5701 37.1662 43.1119 33.8372 41.4279 31.4746C40.3442 29.9565 37.6986 29.322 36.0487 30.1908H36.0536ZM68.4752 30.4984C66.4787 31.831 65.7465 34.3107 66.7032 36.4828C67.6844 38.7087 69.1927 39.5532 71.7359 39.3091C73.2539 39.1627 74.3766 38.3524 75.0893 36.8782C76.6464 33.6614 74.5914 30.0737 71.0525 29.8296C69.7882 29.7418 69.4856 29.8199 68.4752 30.4984ZM15.4594 54.7047C13.7607 55.5931 12.8381 57.1796 12.8674 59.1565C12.926 63.2226 17.0409 65.4045 20.2577 63.0761C23.2938 60.8796 22.8106 56.0276 19.4034 54.4802C17.9879 53.8359 17.0165 53.8944 15.4594 54.7047ZM89.5282 54.3923C87.605 55.2319 86.1943 57.7604 86.5457 59.7276C86.9313 61.89 88.2346 63.3446 90.2799 63.8913C94.3656 64.9847 97.6165 59.7471 95.0538 56.2082C93.6675 54.2996 91.4221 53.5576 89.5282 54.3923ZM51.1954 60.1571C45.7576 61.4068 39.1288 63.784 33.7154 66.415C29.5419 68.4456 29.3076 68.6701 28.3802 71.4915C26.5643 77.022 25.7833 81.8008 25.754 87.5754C25.7296 92.5592 26.3056 93.9943 29.1905 96.1274C30.9868 97.4551 32.0509 97.9579 35.2872 99.0074C40.1392 100.584 44.63 101.624 49.6773 102.336C50.0922 102.395 51.2832 102.566 52.3278 102.712C56.965 103.371 71.5406 100.272 77.569 97.3429C79.7802 96.269 81.9036 94.1163 82.5186 92.3249C82.8896 91.2461 82.9726 90.3187 82.9287 87.6388C82.8311 81.4103 81.7035 74.845 79.9706 70.3932C79.3995 68.9239 79.1798 68.6506 78.0083 67.9428C74.0301 65.5412 65.2925 62.1194 59.147 60.5672C55.0028 59.5177 54.1437 59.4738 51.1954 60.1523V60.1571ZM50.5657 67.401C44.9229 68.9483 37.6351 71.8674 35.4385 73.4587C34.5745 74.0835 34.4134 74.3715 34.0718 75.8896C33.3688 79.0136 32.6659 84.3781 32.5976 87.1214C32.5195 90.3821 32.6074 90.5237 35.3897 91.5878C40.0611 93.3793 51.0001 95.9078 54.09 95.9078C58.449 95.9078 73.5029 92.2321 75.2309 90.7482C76.0314 90.06 76.2559 88.7274 76.0216 86.0622C75.9289 85.0225 75.7873 83.4312 75.7141 82.5281C75.5335 80.4536 74.8843 76.7243 74.4157 75.0793C74.0984 73.9761 73.9032 73.7369 72.8488 73.1512C67.9529 70.4372 56.843 66.5858 54.0997 66.6542C53.6116 66.6639 52.0252 67.0056 50.5657 67.401Z" fill="white"/>
</svg>
