<svg width="120" height="120" viewBox="0 0 120 120" fill="none" xmlns="http://www.w3.org/2000/svg">
<path d="M52.7065 8.9037L46.7007 16.7824L46.7279 19.7491C50.3314 17.6517 52.5597 16.3531 54.0055 15.5109L56.6197 13.9895V52.7308C35.4665 31.5671 29.3683 25.3837 29.4281 25.3402C29.4879 25.2968 31.8467 24.6339 34.7001 23.8786C37.5318 23.1233 39.983 22.4604 40.1352 22.417C40.358 22.3409 40.2113 22.1344 39.3254 21.2977L38.2492 20.249C30.1292 19.1568 25.7431 18.5537 23.2648 18.2114L18.7645 17.5757C17.4384 18.858 17.3025 19.0808 17.3351 19.4068C17.3623 19.6404 17.9547 24.0579 18.6612 29.2198L19.9439 38.6198L22.0093 40.7172C24.2974 32.23 24.9931 29.7794 25.0366 29.7794C25.08 29.7794 31.2217 35.8867 38.6895 43.3579L52.2717 56.9363C22.4658 56.9363 13.8186 56.8929 13.8186 56.8168C13.8186 56.7571 15.0741 54.5565 16.5959 51.9157L19.3732 47.1179L16.4818 47.0419L0.6875 58.9957V60.9898L16.5579 73.0305C18.7265 73.0143 19.2863 72.9545 19.2863 72.8675C19.2863 72.7806 18.0743 70.6398 16.6122 68.1023C15.1339 65.5812 13.8947 63.4077 13.8838 63.3045C13.8404 63.1741 17.7373 63.1252 33.0424 63.1252H52.2771C31.2271 84.1694 25.0692 90.2223 25.0094 90.1626C24.9659 90.1028 24.2702 87.6686 23.4876 84.7453C22.7049 81.8221 22.0582 79.415 22.0419 79.4041C22.0256 79.3878 21.5418 79.8334 20.9766 80.4093L19.9439 81.4417L17.259 100.981L18.6884 102.459L38.396 99.7311C40.0319 98.0956 40.3308 97.7098 40.195 97.65C40.108 97.5903 37.6839 96.9437 34.8523 96.1884C32.0043 95.4331 29.6401 94.7866 29.5803 94.7268C29.5205 94.6833 35.5751 88.5271 43.0429 81.0614L56.6252 67.4829C56.6252 97.2805 56.598 105.925 56.5491 105.925C56.5001 105.925 54.2772 104.67 51.6031 103.122L46.7333 100.318L46.717 103.198L58.7611 119.075L60.7232 118.988L72.7075 103.198C72.7075 101.089 72.664 100.47 72.5879 100.47C72.5281 100.47 70.3269 101.693 67.6855 103.198C65.0441 104.703 62.8429 105.925 62.7722 105.925C62.7124 105.925 62.6689 97.2914 62.6689 86.7394C62.6689 76.1875 62.7124 67.5535 62.7722 67.5535C62.8483 67.5535 69.0008 73.6609 76.474 81.132C85.6701 90.3256 89.9801 94.7268 89.8334 94.7702C89.7138 94.8137 87.2517 95.4929 84.3711 96.259C81.4906 97.0415 79.1154 97.6881 79.0991 97.7044C79.0828 97.7207 79.5122 98.1771 80.0611 98.7367L81.0503 99.7256L100.758 102.453L102.16 101.051L99.4317 81.3494C97.8827 79.8171 97.4261 79.3878 97.4098 79.3987C97.3935 79.415 96.7304 81.8329 95.9315 84.7562C95.1325 87.6903 94.426 90.1571 94.3662 90.2169C94.3064 90.293 88.1213 84.2237 80.6373 76.7308L67.0278 63.1252C96.9479 63.1252 105.633 63.1524 105.633 63.2013C105.633 63.2502 104.41 65.4019 102.905 67.9991C101.399 70.5963 100.176 72.7806 100.176 72.8675C100.176 72.9545 100.72 73.0143 101.551 73.0143H102.91L118.704 61.0333L118.791 59.0718L102.981 47.0419H100.03C104.383 54.6434 105.655 56.8712 105.639 56.8983C105.639 56.9146 96.9859 56.9255 86.4038 56.9255H67.1855C88.2355 35.8813 94.3934 29.8283 94.4369 29.8881C94.4966 29.9479 95.176 32.355 95.9587 35.2293C96.7413 38.1091 97.4044 40.4998 97.4479 40.5433C97.4914 40.5868 97.9642 40.1901 98.4805 39.6576L99.4426 38.6959L102.171 18.9938L100.693 17.5648L81.1482 20.249L79.0665 22.3137C87.0234 24.4708 89.491 25.1446 89.6975 25.2207C90.0508 25.3402 89.3007 26.1063 76.4849 38.9187C69.0171 46.3844 62.8592 52.4971 62.7994 52.4971C62.7233 52.4971 62.6798 43.8632 62.6798 33.3112C62.6798 20.6184 62.7233 14.1253 62.8266 14.1253C62.9135 14.1253 65.0984 15.3479 67.6964 16.853C70.2943 18.3581 72.4955 19.5806 72.5662 19.5806C72.6531 19.5806 72.7129 19.021 72.7129 18.2223V16.8476L60.6797 0.970703L58.7013 0.987003L52.7065 8.88196V8.9037Z" fill="white" stroke="#232020" stroke-miterlimit="10"/>
</svg>
