<svg width="117" height="110" viewBox="0 0 117 110" fill="none" xmlns="http://www.w3.org/2000/svg">
<path d="M54.7087 0.847802C68.6949 -0.570777 80.9874 8.74438 82.2065 21.7112C83.091 31.145 78.5872 38.4968 71.8719 41.7978C64.628 45.3577 56.7691 43.1247 52.9557 39.0685C46.8607 32.5851 49.8488 20.1739 58.4142 20.9345C59.8328 21.0585 63.1393 22.2452 62.7024 25.4221C62.3571 27.9464 59.1802 26.4685 58.8026 29.1277C58.4466 31.625 60.9008 33.3619 62.8965 33.6154C67.012 34.1278 69.4716 31.5333 70.696 29.3273C74.7144 22.0995 69.0401 14.2461 62.8965 11.9699C50.4907 7.37974 38.3977 18.5773 39.2985 32.0565C39.9781 42.2185 46.3968 48.9339 54.7033 52.1432C59.342 53.9339 64.8868 54.4841 70.1081 53.3137C74.9086 52.2403 79.3747 50.2176 84.7362 50.196C94.9683 50.1529 101.624 53.7506 106.576 58.1897C112.541 63.5458 117.541 71.7822 116.716 83.1524C115.95 93.6865 108.89 102.047 100.335 105.38C85.8149 111.038 70.4641 101.788 70.3022 87.4405C70.1836 77.0951 79.2668 68.0065 89.4126 71.6473C92.6867 72.8232 95.4052 75.8977 96.0416 78.8643C97.4872 85.5688 91.5917 88.5947 89.0189 86.6637C86.8829 85.0618 89.6931 83.2602 88.0426 81.3994C85.4104 78.4328 80.6746 82.3433 80.4373 86.4696C80.1406 91.707 84.4611 95.0296 87.0663 96.0275C92.3846 98.0609 97.5196 95.7308 100.324 93.4923C103.431 91.0166 105.988 86.7554 106.371 82.1815C106.959 75.1101 103.663 69.5221 99.936 66.1887C95.8744 62.5587 90.6694 60.1908 83.1666 60.7302C72.0984 61.5231 64.396 69.6192 61.5211 78.0875C59.6171 83.7079 59.1694 88.1632 56.6451 92.7102C50.3613 104.032 35.0481 114.598 17.4481 107.333C9.62699 104.107 1.53625 96.4536 0.678632 85.2991C-0.195169 73.9613 5.79199 65.261 13.3541 61.7011C23.5809 56.8898 33.9208 61.4745 37.9231 68.1359C40.9652 73.2007 40.6308 81.8309 36.1701 86.0758C32.7935 89.2851 27.637 89.8299 24.2767 88.0284C20.4416 85.9734 19.6379 79.5223 23.1062 78.6701C25.8409 77.9959 25.2476 80.7737 27.7881 80.4231C32.0276 79.8406 30.3609 72.5265 26.2292 70.671C18.721 67.3053 11.8115 74.3712 11.0186 80.6173C10.1502 87.4459 13.6346 92.2949 17.0651 95.0458C19.9077 97.3274 24.0717 99.3986 29.1527 99.3339C41.3535 99.1829 51.5263 88.5516 50.4098 73.7887C49.7356 64.878 44.9027 60.0883 39.0989 54.2899C34.1096 49.3006 29.6489 42.7148 28.9585 33.8149C28.1764 23.7824 31.348 16.4845 35.5875 11.1932C39.7246 6.03668 46.4885 1.68924 54.6979 0.858592L54.7087 0.847802Z" fill="white"/>
</svg>
