<svg width="136" height="120" viewBox="0 0 136 120" fill="none" xmlns="http://www.w3.org/2000/svg">
<path d="M68.0926 7L37.3359 60.6319H98.8437L68.0926 7Z" stroke="white" stroke-width="6" stroke-miterlimit="10"/>
<path d="M36.3272 62.3867L5.57617 116.019H67.0839L36.3272 62.3867Z" stroke="white" stroke-width="6" stroke-miterlimit="10"/>
<path d="M99.8252 62.3867L69.0742 116.019H130.576L99.8252 62.3867Z" stroke="white" stroke-width="6" stroke-miterlimit="10"/>
<path d="M68.189 105.646L91.0186 65.8281H45.3594L68.189 105.646Z" fill="#1E1E1E" stroke="white" stroke-width="3" stroke-miterlimit="10"/>
<path fill-rule="evenodd" clip-rule="evenodd" d="M67.3315 70.6006C67.2402 70.6941 67.222 70.7503 67.222 70.8953C67.222 71.2088 67.4365 71.3351 67.8929 71.2976C68.2307 71.2696 68.3904 71.045 68.29 70.7409C68.2215 70.5304 68.1302 70.4883 67.7651 70.4883C67.4639 70.4883 67.4411 70.493 67.3361 70.6006H67.3315ZM73.3608 70.8251C73.0915 70.928 73.0641 71.3819 73.3197 71.5175C73.3745 71.5456 73.5205 71.5924 73.6483 71.6158C74.2645 71.7468 74.8441 72.0556 75.3234 72.514C75.547 72.7246 75.5835 72.748 75.7341 72.748C75.9304 72.748 76.0582 72.6591 76.0993 72.4953C76.1495 72.2941 76.1084 72.1959 75.871 71.9573C75.4055 71.4895 74.6752 71.0871 73.9495 70.8953C73.5844 70.7971 73.4749 70.783 73.3653 70.8251H73.3608ZM65.5834 70.8813C65.3187 70.9234 65.0357 71.045 64.771 71.2415C64.4105 71.5082 64.2096 71.845 64.2096 72.1912C64.2096 72.4485 64.2781 72.5655 64.6843 73.0193C64.8851 73.2392 65.0449 73.4497 65.0449 73.4918C65.0449 73.5339 64.981 73.6649 64.9079 73.7959C64.666 74.2029 64.666 74.1983 65.1909 75.148C65.6473 75.9714 66.3137 77.2252 66.5693 77.7351C66.7382 78.0673 67.0759 78.4556 67.3041 78.5726C67.5552 78.6989 67.8336 78.7457 68.1074 78.6989C68.6871 78.6053 68.9564 78.3153 69.5451 77.155C69.7003 76.8556 70.0061 76.2755 70.2298 75.8638C70.8003 74.8252 71.0696 74.3012 71.0696 74.2357C71.0696 74.2029 71.0011 74.0345 70.9189 73.8567C70.8368 73.679 70.7683 73.4965 70.7683 73.4544C70.7683 73.4076 70.9098 73.2252 71.1106 73.0099C71.2978 72.8088 71.4803 72.5842 71.5123 72.5047C71.5944 72.3035 71.5853 71.962 71.4895 71.7748C71.2111 71.2181 70.2891 70.7316 69.8783 70.9234C69.8281 70.9468 69.5999 71.1947 69.3717 71.4707L68.9563 71.976H66.8523L66.551 71.6158C65.8892 70.8251 65.8984 70.8345 65.5789 70.8859L65.5834 70.8813ZM65.2411 71.817C64.9079 72.1023 64.9034 72.1538 65.2137 72.4719L65.4648 72.7292L65.7341 72.4579C65.8801 72.3082 66.0033 72.1678 66.0033 72.1398C66.0033 72.0977 65.5332 71.6158 65.4967 71.6158C65.4876 71.6158 65.3735 71.7047 65.2457 71.817H65.2411ZM70.0517 71.8637C69.9194 71.9994 69.8144 72.1351 69.8144 72.1678C69.8144 72.2006 69.9285 72.3409 70.0654 72.4766L70.3165 72.7246L70.5447 72.4953C70.9007 72.1397 70.9007 72.1538 70.5995 71.8637C70.458 71.7281 70.3302 71.6204 70.3165 71.6204C70.3028 71.6204 70.1841 71.7327 70.0563 71.8637H70.0517ZM62.7673 71.7935C62.6304 71.9105 62.5893 72.0883 62.6441 72.3456C62.6898 72.5608 62.6806 72.5748 62.4205 72.6123C62.3246 72.6263 62.2105 72.6403 62.174 72.645C62.1147 72.6544 62.0873 72.5982 62.0188 72.355C61.9139 71.99 61.85 71.8825 61.6993 71.817C61.4711 71.7187 61.2018 71.9292 61.2018 72.2006C61.2018 72.2801 61.2338 72.4719 61.2749 72.6357C61.3159 72.7947 61.3433 72.9304 61.3388 72.9351C61.3068 72.9631 61.0056 73.1082 60.9782 73.1082C60.9599 73.1082 60.8276 72.9866 60.677 72.8368C60.4488 72.6076 60.3849 72.5655 60.2753 72.5655C60.1201 72.5655 59.9147 72.6871 59.8554 72.8181C59.7869 72.9678 59.8463 73.0942 60.0791 73.3281L60.2981 73.5433L60.0699 73.7772C59.9467 73.9082 59.828 74.0111 59.8052 74.0111C59.7824 74.0111 59.7185 73.969 59.65 73.9222C59.5085 73.8146 59.2393 73.7023 59.1206 73.7023C58.9882 73.7023 58.8696 73.81 58.8239 73.9737C58.7555 74.2029 58.8239 74.3386 59.1023 74.5024C59.2256 74.5772 59.3442 74.638 59.3625 74.638C59.4127 74.638 59.4127 74.624 59.2712 74.9655C59.1662 75.2135 59.1343 75.2556 59.0978 75.2088C59.0156 75.1059 58.7189 74.9889 58.5455 74.9889C58.2945 74.9889 58.1621 75.1152 58.1621 75.3585C58.1621 75.5129 58.1804 75.555 58.2762 75.6345C58.3401 75.686 58.5044 75.7655 58.6368 75.8123C58.9426 75.9152 58.9791 75.9433 58.9791 76.0883C58.9791 76.2988 59.2347 76.472 59.4583 76.4158C59.6409 76.369 59.7231 76.224 59.8143 75.8029C59.9056 75.4006 60.1338 74.8579 60.3255 74.5959C60.5081 74.348 60.9599 73.9737 61.2931 73.8006C61.8819 73.4918 62.5848 73.3094 62.8723 73.3889C63.0914 73.4497 63.3059 73.4029 63.3835 73.2813C63.4383 73.1971 63.4428 73.1035 63.4155 72.6076C63.4018 72.2895 63.3744 71.9947 63.3561 71.9433C63.2603 71.6859 62.9682 71.6111 62.7582 71.7935H62.7673ZM72.2334 72.1632C72.0919 72.224 72.0052 72.3596 72.0052 72.5234C72.0052 72.6497 72.028 72.7012 72.1239 72.79C72.238 72.893 72.2608 72.8977 72.7902 72.9211C73.2056 72.9351 73.3927 72.9631 73.557 73.024C74.123 73.2298 74.4881 73.5246 74.8396 74.0579C75.0495 74.3807 75.1636 74.4556 75.3462 74.4182C75.474 74.3901 75.6474 74.1936 75.6474 74.0813C75.6474 73.9784 75.4466 73.576 75.2823 73.3421C74.8852 72.7854 74.1093 72.2988 73.4384 72.1865C73.0824 72.1257 72.3566 72.1164 72.2334 72.1678V72.1632ZM66.5465 73.1971C66.2818 73.3187 66.2133 73.6602 66.4141 73.8801C66.5054 73.9831 66.551 74.0018 66.7017 74.0018C66.8523 74.0018 66.8979 73.983 67.012 73.8708C67.1535 73.7257 67.1763 73.5807 67.0987 73.3982C67.012 73.2017 66.7473 73.1082 66.5465 73.1971ZM68.8742 73.1971C68.7099 73.2719 68.6323 73.4029 68.6323 73.5947C68.6323 73.9503 69.0431 74.1327 69.3124 73.8988C69.5406 73.7023 69.4904 73.3374 69.2165 73.2064C69.0568 73.1269 69.0248 73.1269 68.8696 73.1971H68.8742ZM61.8819 74.3433C61.4894 74.6146 60.8823 75.2322 60.7089 75.5316C60.54 75.8264 60.4807 76.1585 60.5446 76.4532C60.5948 76.6731 60.6131 76.6965 61.3433 77.4591C63.0412 79.2322 63.6847 79.9106 64.1046 80.3551L64.5474 80.8229V81.4638V82.1048L63.8125 82.8627C63.4063 83.2837 63.0412 83.6954 62.991 83.789C62.8267 84.1071 62.7993 84.3972 62.7719 86.1282L62.7445 87.7609H65.9942V86.9422C65.9942 86.4931 66.0125 86.0346 66.0353 85.927C66.1266 85.4826 66.478 85.1504 66.9344 85.0662C67.3087 84.996 68.5091 85.0335 68.7373 85.1223C68.97 85.2112 69.2439 85.4592 69.3534 85.6837C69.4401 85.8615 69.4447 85.913 69.4538 86.8346L69.4675 87.8031H72.74V87.5972C72.7492 87.4849 72.7446 87.3773 72.74 87.3586C72.74 87.3399 72.7264 86.727 72.7127 85.9925C72.6853 84.0978 72.6396 83.7937 72.3293 83.396C72.2334 83.2744 71.9139 82.9235 71.6218 82.6147C71.138 82.1094 71.0924 82.0486 71.1106 81.9504C71.1243 81.8896 71.1517 81.6135 71.1791 81.3375L71.2247 80.8369L72.7902 79.2088C73.6529 78.3153 74.5292 77.403 74.7391 77.1878C74.9582 76.9632 75.159 76.7199 75.2047 76.617C75.3051 76.4065 75.3142 76.0837 75.2321 75.8404C75.1408 75.5784 74.8578 75.1667 74.5748 74.8953C74.3238 74.6521 73.7213 74.1702 73.6255 74.1281C73.5981 74.1187 73.2604 74.4415 72.8633 74.8626C72.4708 75.279 71.5442 76.2521 70.8094 77.0287C69.9833 77.8989 69.4356 78.5024 69.3808 78.61C69.3032 78.7597 69.2895 78.8579 69.2758 79.2462L69.2622 79.7094L69.4356 80.0743C69.6547 80.5422 69.6957 80.6919 69.6957 81.1083C69.6957 82.1094 69.0294 82.8954 68.0663 83.0358C67.4867 83.12 66.939 82.9328 66.4826 82.4931C66.0855 82.1094 65.9166 81.6837 65.9166 81.0615C65.9166 80.603 66.0353 80.2661 66.3502 79.8404L66.5237 79.6018V79.2509C66.5237 78.8486 66.4826 78.6989 66.3183 78.4743C66.1996 78.3106 65.1316 77.169 63.5296 75.4895C63.0458 74.9842 62.5574 74.4649 62.4478 74.3433C62.3337 74.2216 62.2333 74.1187 62.2196 74.1187C62.2059 74.1187 62.0508 74.2216 61.8728 74.3433H61.8819ZM61.5533 74.9983C61.0832 75.1152 60.7956 75.5643 60.9508 75.9433C61.0101 76.093 61.3798 76.5094 61.5168 76.5889C61.5715 76.6217 61.6217 76.5983 61.7541 76.486C61.8454 76.4065 61.923 76.3222 61.923 76.2942C61.923 76.2661 61.8454 76.1772 61.7495 76.0977C61.6537 76.0182 61.5807 75.9293 61.5852 75.9059C61.5898 75.8825 61.7039 75.7562 61.8363 75.6298L62.0736 75.3959L62.2242 75.5503C62.3474 75.6766 62.3885 75.6953 62.4433 75.6626C62.5711 75.5831 62.5346 75.4942 62.279 75.2181C61.9914 74.914 61.9504 74.9 61.5487 75.003L61.5533 74.9983ZM73.8035 74.9795C73.7624 74.9983 73.6209 75.1246 73.4886 75.2603L73.2512 75.5082L73.3471 75.6018L73.4429 75.6953L73.5935 75.541L73.7442 75.3866L73.9998 75.6486L74.2553 75.9106L74.091 76.0696C73.9997 76.1585 73.9313 76.2427 73.9313 76.2614C73.9313 76.2802 74.0043 76.3644 74.091 76.4532L74.2508 76.6076L74.3512 76.5328C74.406 76.4907 74.5292 76.3737 74.6296 76.2708C74.9947 75.8825 75.0176 75.5363 74.6935 75.2135C74.4927 75.0123 74.0043 74.8813 73.7989 74.9702L73.8035 74.9795ZM67.0075 75.0825C66.9481 75.2462 67.0896 76.8603 67.2037 77.2673C67.3543 77.8193 67.7834 78.1001 68.1668 77.8989C68.5638 77.6837 68.7418 77.0801 68.7784 75.7749L68.8012 75.0217H67.9157C67.1398 75.0217 67.0303 75.031 67.0075 75.0825ZM67.4684 76.4673C67.4365 76.5188 67.4776 76.9164 67.5369 77.1597C67.5825 77.3515 67.7058 77.4404 67.9248 77.4404C68.2033 77.4404 68.3311 77.2018 68.3311 76.7012V76.4205H67.9157C67.6556 76.4205 67.4867 76.4345 67.473 76.4626L67.4684 76.4673ZM67.5734 79.789C67.222 79.8545 66.8294 80.1679 66.6697 80.5141C66.6332 80.5936 66.5875 80.7667 66.5602 80.9071C66.5054 81.2346 66.5876 81.5901 66.7929 81.8942C66.9116 82.072 66.9892 82.1375 67.222 82.2591C67.5004 82.4088 67.5141 82.4089 67.8518 82.3948C68.2443 82.3761 68.4178 82.3013 68.6916 82.0439C69.1709 81.5901 69.2165 80.8135 68.7966 80.2521C68.541 79.9059 68.0116 79.7094 67.5688 79.789H67.5734ZM63.4474 86.5446V87.0919H65.4739L65.3872 86.9797C65.337 86.9188 65.1544 86.6802 64.9764 86.451L64.6523 86.0346L64.6432 86.306L64.6341 86.5773H63.9495V85.9925H63.452V86.5399L63.4474 86.5446ZM70.175 86.0487C70.1659 86.0767 70.1613 86.3294 70.1658 86.6054L70.175 87.1107L71.1426 87.12C71.9459 87.1294 72.1056 87.12 72.0919 87.0779C72.06 86.9937 71.4027 86.1142 71.3708 86.1142C71.3571 86.1142 71.3434 86.2171 71.3434 86.3481V86.582H70.6588V86.3107C70.6588 86.0066 70.6451 85.9925 70.3667 85.9925C70.2617 85.9925 70.1887 86.0112 70.1795 86.044L70.175 86.0487Z" fill="white"/>
</svg>
