<svg width="96" height="110" viewBox="0 0 96 110" fill="none" xmlns="http://www.w3.org/2000/svg">
<path fill-rule="evenodd" clip-rule="evenodd" d="M50.0313 1.25496C46.8178 2.886 44.2833 4.89419 43.7668 6.21176C43.4799 6.94157 43.3986 8.08771 43.3986 11.3155V15.4788L38.3153 18.5744C32.3281 22.2234 25.8245 26.137 23.9929 27.1949L22.6922 27.9443L21.774 26.9696C20.4542 25.5688 18.2927 24.0357 16.1647 22.9973C12.8746 21.3859 10.6605 21.7728 6.32316 24.6969C2.77486 27.0921 1.8041 28.8162 1.63672 33.0285C1.49326 36.6726 1.82322 38.4506 2.94223 40.0131C3.86995 41.3111 6.66747 43.5397 8.87201 44.7446L10.2971 45.5234L10.1536 48.0459C9.85233 53.1545 9.30717 76.332 9.30239 83.9876V85.7411L7.60954 86.6326C5.4863 87.7542 2.67443 89.9828 1.79453 91.2465C1.21112 92.0792 1.08678 92.569 0.852463 94.8711C0.551192 97.8148 0.818989 101.302 1.44066 102.532C2.43533 104.501 6.84919 107.699 9.86668 108.635C11.3013 109.08 11.66 109.11 12.7742 108.87C15.4521 108.292 19.0339 106.102 21.052 103.805C22.4435 102.218 22.7161 100.964 22.6635 96.4335C22.6348 93.8229 22.5344 92.8139 22.2427 92.182C21.688 90.982 19.6651 89.0081 17.3315 87.3918L15.2991 85.9811L15.4856 72.105C15.586 64.4739 15.7343 55.2754 15.8108 51.6606L15.9543 45.0875L16.6907 44.5977C17.0972 44.3283 18.0153 43.7405 18.7374 43.285C20.3681 42.2564 22.4196 40.2727 22.9743 39.1902C23.2374 38.671 23.4334 37.6473 23.4956 36.4032L23.6008 34.4342L24.6816 33.7387C25.2745 33.3567 27.8138 31.8089 30.3196 30.3052C41.2754 23.7222 46.1196 20.8275 46.6026 20.5728C47.0473 20.3377 47.3964 20.465 49.1706 21.5083C53.0727 23.8055 54.6747 23.8986 58.29 22.0569L60.4515 20.9548L67.0029 25.0104L73.5544 29.0709L73.6165 32.0489C73.6835 35.4236 73.9656 36.2612 75.5581 37.8041C77.5618 39.7486 81.3109 41.9184 83.4533 42.3788C85.2322 42.7609 86.8677 42.3837 89.6508 40.9535C92.0275 39.729 94.7438 37.3241 95.2793 35.9575C95.6619 34.9828 95.8293 28.6399 95.5184 26.9158C95.2172 25.27 94.3564 24.0553 92.3718 22.4928C90.4351 20.9646 87.3602 19.4267 85.8587 19.2307C83.4581 18.9222 80.6366 19.9654 77.3466 22.3655C76.5527 22.9434 75.8019 23.4186 75.6776 23.4186C75.4529 23.4186 70.2356 20.1712 66.563 17.7515C64.8366 16.6103 64.631 16.3997 64.7506 15.8952C65.4488 13.0494 65.4679 9.09671 64.7888 6.78974C64.2245 4.86481 61.8192 2.84682 57.7592 0.887604C56.4632 0.260656 55.7698 0.0843294 54.3782 0.025553C52.6615 -0.0528155 52.5754 -0.028326 50.0313 1.26475V1.25496ZM52.298 7.57342C50.7678 8.18077 49.8735 9.43957 49.754 11.1735C49.5962 13.4119 50.4569 14.798 52.6089 15.7727C54.7178 16.7278 57.1327 15.7727 58.2087 13.5588C59.1794 11.5702 58.926 9.88039 57.4483 8.45017C56.0998 7.14729 54.1965 6.81912 52.298 7.57342ZM82.6977 26.8864C81.3157 27.6015 80.7036 28.3509 80.3258 29.7811C79.9002 31.3926 80.3784 33.0138 81.6265 34.2236C83.9697 36.4963 88.5175 35.2179 89.0818 32.1224C89.3161 30.8391 89.0674 29.2815 88.4936 28.4586C87.0159 26.3329 84.8831 25.7549 82.6977 26.8864ZM48.7832 28.6203C48.262 28.7133 44.2402 31.1428 34.6331 37.1673C32.5768 38.4555 29.5784 40.3217 27.9764 41.3111C26.3696 42.3005 24.0599 43.7699 22.8357 44.5732C21.6162 45.3764 20.1099 46.3364 19.4882 46.7038C18.8665 47.0712 18.4075 47.4238 18.4649 47.4826C18.5222 47.5414 19.1583 47.9626 19.8851 48.4181C24.2846 51.1904 23.7682 50.9553 24.4424 50.4753C24.7772 50.2402 26.1544 49.3634 27.503 48.5259C31.1182 46.2924 46.3396 36.8588 47.7838 35.9575L49.0271 35.1836L52.4559 37.3486C54.34 38.5388 58.6678 41.2621 62.0726 43.3976C65.4774 45.5332 70.4508 48.663 73.1288 50.3577L77.9969 53.4337L78.0352 61.3293L78.0734 69.225L78.8912 69.1515C79.3407 69.1123 80.5506 69.0584 81.5787 69.029L83.4485 68.9849L83.6302 59.7864C83.7306 54.7268 83.7689 50.4655 83.7115 50.3234C83.6015 50.0296 78.2552 46.5961 61.8383 36.271C49.0415 28.2235 49.4957 28.4929 48.7737 28.6154L48.7832 28.6203ZM11.0431 29.7223C9.14937 30.6334 8.35554 31.9166 8.35554 34.0571C8.35554 38.6269 14.6679 39.9886 16.705 35.8596C17.3745 34.4979 17.365 33.4105 16.6716 31.8824C16.0882 30.604 15.3087 29.8938 13.984 29.4284C12.8507 29.0317 12.3581 29.0856 11.0431 29.7223ZM48.5345 47.2671C48.0659 47.4434 38.0905 53.5953 36.0677 54.9521C33.5523 56.6419 33.5953 56.4362 33.5906 65.8257C33.5858 74.8675 33.5953 74.9312 35.6182 76.2095C36.235 76.6014 38.8413 78.2471 41.4093 79.8635C43.9772 81.4847 46.5596 83.1158 47.1477 83.4929C47.7359 83.8701 48.6828 84.2374 49.2519 84.3158C50.3565 84.4676 50.8778 84.1738 61.7857 77.3018C65.8122 74.7597 65.5874 75.4406 65.5826 65.9825C65.5826 61.7653 65.4822 58.0868 65.3531 57.6117C65.224 57.1415 64.8319 56.4803 64.478 56.1374C64.1241 55.7946 60.791 53.6198 57.0658 51.3031C50.3517 47.125 49.7062 46.8214 48.5345 47.2671ZM45.7131 56.2599C43.7286 57.4844 41.5575 58.8607 40.888 59.3113L39.6638 60.1342V65.7033L39.6542 71.2723L42.0501 72.8642C45.4119 75.0977 49.271 77.4782 49.5292 77.4782C49.7349 77.4782 57.5822 72.6046 58.7443 71.7572C59.256 71.385 59.2607 71.287 59.2703 65.7131L59.2799 60.046L56.6545 58.3905C50.7152 54.6533 49.7014 54.0313 49.5149 54.0313C49.4049 54.0313 47.6977 55.0305 45.7179 56.255L45.7131 56.2599ZM80.7801 73.5548C79.7806 73.8585 77.2748 75.2299 75.6441 76.3663C73.6118 77.7867 72.1437 79.8194 72.1341 81.2447C72.1341 81.6268 71.8567 81.9207 71.1729 82.2782C69.4179 83.1942 52.8193 93.5192 50.3852 95.1992L49.0845 96.1005L45.7131 93.9404C36.8806 88.2734 25.8866 81.4553 25.7814 81.568C25.7336 81.6219 25.4323 82.9786 25.1167 84.5901C24.7007 86.7011 24.6146 87.5779 24.8011 87.7297C24.9446 87.8473 26.0588 88.5624 27.2782 89.3265C28.4976 90.0906 30.97 91.6482 32.768 92.7943C47.7359 102.341 48.1376 102.581 49.1227 102.59C49.381 102.59 51.7481 101.268 54.3782 99.6466C61.0684 95.5176 68.4615 90.8841 70.2308 89.7183C71.0486 89.1747 71.8137 88.7877 71.9285 88.8612C72.0432 88.9346 72.3349 89.3902 72.5788 89.8751C73.4539 91.609 76.1319 93.8278 79.0777 95.258C80.4884 95.9437 80.8709 96.0221 82.7886 96.0221C84.9118 96.0221 84.9453 96.0123 87.4606 94.7192C89.4261 93.7053 90.3442 93.0637 91.5493 91.8343C93.5578 89.7918 93.6869 89.3118 93.5722 84.306C93.4956 80.9607 93.4191 80.3484 92.9839 79.4961C92.1519 77.8847 89.8613 76.043 86.509 74.2944C84.8592 73.4373 82.2769 73.1042 80.7849 73.5499L80.7801 73.5548ZM80.6605 81.137C78.1834 82.5721 77.7817 85.9615 79.8619 87.8816C82.6834 90.4922 86.9107 88.6359 86.9107 84.7762C86.9107 83.5125 86.4899 82.4105 85.7582 81.7541C84.3475 80.4855 82.2243 80.2259 80.6605 81.1321V81.137ZM9.80929 93.1714C8.00645 94.0923 7.54259 94.9004 7.54259 97.1193C7.54259 98.7209 7.61432 99.0295 8.1786 99.7838C10.2397 102.551 14.2758 102.115 15.8586 98.9609C16.9728 96.7372 15.9877 94.1315 13.6158 93.0049C12.3294 92.3927 11.2344 92.4416 9.80929 93.1714Z" fill="white"/>
</svg>
