<?xml version="1.0" encoding="UTF-8"?>
<svg id="b" xmlns="http://www.w3.org/2000/svg" version="1.1" viewBox="0 0 100 103.26">
  <!-- Generator: Adobe Illustrator 29.7.1, SVG Export Plug-In . SVG Version: 2.1.1 Build 8)  -->
  <defs>
    <style>
      .st0 {
        fill: #010101;
        stroke: #000;
        stroke-miterlimit: 10;
        stroke-width: 1.04px;
      }
    </style>
  </defs>
  <g id="c">
    <g>
      <path class="st0" d="M58.59,67.06h-17.15l-8.57-14.85,8.57-14.85h17.15l8.57,14.85-8.57,14.85ZM42.88,64.57h14.27l7.13-12.36-7.13-12.36h-14.27l-7.13,12.36,7.13,12.36Z"/>
      <path class="st0" d="M58.59,39.85h-17.15l-8.57-14.85,8.57-14.85h17.15l8.57,14.85-8.57,14.85h0ZM42.88,37.36h14.27l7.13-12.36-7.13-12.36h-14.27l-7.13,12.36,7.13,12.36Z"/>
      <path class="st0" d="M58.59,94.27h-17.15l-8.57-14.85,8.57-14.85h17.15l8.57,14.85-8.57,14.85ZM42.88,91.77h14.27l7.13-12.36-7.13-12.36h-14.27l-7.13,12.36,7.13,12.36Z"/>
      <path class="st0" d="M34.99,80.66h-17.15l-8.57-14.85,8.57-14.85h17.15l8.57,14.85-8.57,14.85h0ZM19.28,78.17h14.27l7.13-12.36-7.13-12.36h-14.27l-7.13,12.36,7.13,12.36Z"/>
      <path class="st0" d="M34.99,53.46h-17.15l-8.57-14.85,8.57-14.85h17.15l8.57,14.85-8.57,14.85h0ZM19.28,50.96h14.27l7.13-12.36-7.13-12.36h-14.27l-7.13,12.36,7.13,12.36Z"/>
      <path class="st0" d="M82.16,80.66h-17.15l-8.57-14.85,8.57-14.85h17.15l8.57,14.85-8.57,14.85ZM66.45,78.17h14.27l7.13-12.36-7.13-12.36h-14.27l-7.13,12.36,7.13,12.36Z"/>
      <path class="st0" d="M82.16,53.46h-17.15l-8.57-14.85,8.57-14.85h17.15l8.57,14.85-8.57,14.85ZM66.45,50.96h14.27l7.13-12.36-7.13-12.36h-14.27l-7.13,12.36,7.13,12.36Z"/>
    </g>
  </g>
</svg>