<svg width="98" height="112" viewBox="0 0 98 112" fill="none" xmlns="http://www.w3.org/2000/svg">
<path fill-rule="evenodd" clip-rule="evenodd" d="M19.3078 1.21875C16.281 1.83496 13.7483 4.18673 12.6636 7.39217C12.1639 8.87334 12.1298 9.44999 12.2037 15.7591C12.2775 22.0286 12.3229 22.5996 12.8113 23.4306C13.93 25.3245 11.0168 25.1719 48.9281 25.2736C82.9382 25.3641 82.9893 25.3641 83.7162 24.8383C84.1194 24.55 84.7383 23.7359 85.0961 23.0349C85.7321 21.7799 85.7435 21.6668 85.7435 15.4538C85.7435 9.97574 85.681 8.95814 85.2608 7.73137C84.2386 4.7238 82.2567 2.49073 79.8092 1.58055C78.5428 1.11132 77.2821 1.08871 49.6721 0.998258C27.6839 0.930418 20.4889 0.981294 19.3078 1.22439V1.21875ZM22.1585 10.2188C22.062 10.3149 21.9881 11.1856 21.9881 12.1523V13.9104H75.5331V10.0492H48.9338C34.3054 10.0492 22.255 10.1227 22.1642 10.2188H22.1585ZM83.2278 29.4119C83.137 29.6832 76.578 29.7454 47.9855 29.7454C14.2934 29.7454 12.851 29.768 12.7829 30.209C12.7431 30.469 12.0276 31.5658 11.1815 32.6569C6.59871 38.5872 3.56626 44.4101 1.6582 50.951C0.732567 54.1112 0 59.3236 0 62.6704C0.00567875 70.4833 3.69687 78.6636 10.8464 86.7366C12.2718 88.3421 12.9476 89.3088 12.9135 89.6933C12.8908 90.0042 12.8794 90.3943 12.8965 90.5526C12.9419 91.0161 13.8902 91.1405 14.4013 90.7504C14.7932 90.4452 20.222 90.4169 49.7856 90.5582C82.5293 90.7165 84.727 90.6996 85.0734 90.2869C85.3914 89.9081 85.3857 89.795 85.0677 89.4728C84.7384 89.1505 84.8917 88.8961 86.2148 87.4885C89.5937 83.9156 93.1656 78.658 95.0055 74.548C97.8904 68.1089 98.2935 60.3186 96.181 51.9008C94.4377 44.9642 91.2916 38.8699 85.681 31.5601C83.8752 29.214 83.4209 28.8126 83.2278 29.4062V29.4119ZM38.5076 35.9188C37.0312 36.9817 34.6007 38.7851 33.1071 39.9327C31.6136 41.0803 29.575 42.6294 28.5812 43.3756C25.4181 45.75 25.7475 44.0201 25.668 58.6509C25.5998 70.5681 25.6282 71.4387 26.0541 71.9249C26.7469 72.6994 37.4343 81.1228 39.9557 82.8754C40.7507 83.4294 40.8757 83.4464 41.6821 83.1071C42.6247 82.7171 43.3062 81.7334 43.1585 80.9702C43.1074 80.7045 42.1364 79.7547 41.0006 78.8558C38.2521 76.6793 36.7415 75.4808 32.6642 72.2188L29.2399 69.477V47.9661L30.989 46.5641C31.9487 45.7896 34.1918 44.0822 35.9692 42.7594C37.7467 41.4365 39.6093 40.0514 40.109 39.6783C40.6088 39.3052 41.1426 38.9208 41.3016 38.8247C41.4606 38.7285 42.5679 39.1752 43.7605 39.8196C47.3324 41.7418 48.8032 42.3297 49.5642 42.1375C49.939 42.0471 51.6369 41.216 53.3405 40.3058C55.0442 39.39 56.4922 38.6437 56.5604 38.6437C56.7307 38.6437 63.6304 43.8505 66.3278 46.01L68.5369 47.7795L68.5482 58.7583L68.5596 69.7314L66.1688 71.6479C64.1245 73.2817 60.7059 75.9839 56.214 79.5229C55.612 79.9978 55.0442 80.6706 54.9533 81.0154C54.6353 82.2874 56.0663 83.4576 57.5031 83.0958C57.8211 83.011 59.8881 81.5468 62.0972 79.8339C64.3005 78.1209 67.2876 75.8087 68.7243 74.6893C72.8811 71.4669 72.4439 73.3326 72.4439 58.8261C72.4439 50.5892 72.353 46.1853 72.1713 45.7952C72.018 45.4673 71.0128 44.5628 69.9395 43.7883C68.8606 43.0081 67.6169 42.0697 67.174 41.7079C65.953 40.7016 61.0977 37.0382 58.8603 35.444L56.8784 34.025L55.419 34.7656C54.6126 35.1726 52.9089 36.0941 51.6255 36.8177C50.3478 37.5357 49.1155 38.1236 48.8941 38.1236C48.6726 38.1236 47.7981 37.711 46.9519 37.2022C46.1058 36.6934 44.4703 35.7662 43.3175 35.1387L41.2164 33.9967L38.5303 35.9245L38.5076 35.9188ZM43.5049 45.8913C42.9314 46.4623 43.1869 47.4177 44.317 48.8819C45.396 50.2839 46.0377 51.3072 46.0377 51.6125C46.0377 51.9856 44.8849 51.6973 44.1466 51.1433C42.6986 50.0635 39.7683 48.7123 37.4116 48.0396C35.4468 47.4799 35.0209 47.429 34.436 47.706C33.5955 48.1074 33.4024 49.1702 34.0668 49.7469C34.3224 49.9674 35.6966 50.5101 37.1163 50.951C39.4503 51.669 42.9655 53.5403 42.92 54.0378C42.9143 54.1339 42.0228 54.784 40.9495 55.485C37.7467 57.5767 33.2037 62.97 33.4138 64.4342C33.5217 65.1692 34.5836 65.7232 35.2253 65.384C35.4809 65.2483 36.1396 64.5303 36.6904 63.7897C37.8716 62.1955 41.824 58.0347 41.9944 58.2099C42.0569 58.2777 41.8978 59.1427 41.6366 60.132C41.3356 61.2684 41.1539 62.8852 41.1483 64.4964C41.1199 69.7031 42.8292 73.5361 46.0206 75.4017C47.0144 75.984 47.5141 76.1027 49.0247 76.097C51.1315 76.0914 52.2502 75.6335 53.6813 74.2201C54.8113 73.0951 56.5206 69.7144 56.9352 67.764C57.3781 65.7062 57.1055 62.0429 56.3503 59.8154C55.9982 58.7922 55.7881 57.9499 55.8789 57.9499C56.1856 57.9499 60.2743 62.1955 60.9614 63.2301C61.9552 64.7225 62.8979 65.6779 63.3919 65.6779C63.9768 65.6779 64.6753 64.8582 64.6753 64.1629C64.6753 62.7778 60.2743 57.7068 56.8386 55.1345C56.0152 54.5183 55.3849 53.8851 55.436 53.7325C55.595 53.2463 60.314 51.0132 62.0858 50.5836C63.0114 50.3574 63.9144 50.0578 64.0904 49.9108C64.6469 49.4642 64.4766 48.2205 63.7951 47.7795C62.8127 47.1407 59.4849 48.0905 55.9641 50.0126C54.4252 50.8549 52.8181 51.6181 52.4035 51.7029L51.6426 51.8556L52.1821 51.1093C52.4774 50.6966 53.2554 49.6734 53.9084 48.831C55.1691 47.2198 55.1918 47.1633 54.9419 46.5075C54.658 45.7726 53.8857 45.5408 53.085 45.9535C52.0969 46.4623 50.3478 48.3901 49.6664 49.7243L49.1099 50.8153L48.383 49.5547C47.304 47.6721 45.254 45.5973 44.4703 45.5973C44.1182 45.5973 43.6866 45.733 43.5163 45.9083L43.5049 45.8913ZM10.006 48.3675C9.04059 48.4749 8.20013 49.7865 8.40456 50.8606C8.48407 51.2846 8.84182 51.9234 9.1939 52.2796C9.81856 52.9014 9.94918 52.924 13.3905 52.924C15.344 52.924 17.2691 52.8336 17.6666 52.7205C19.0465 52.3418 19.5179 49.8486 18.4048 48.8423C18.0584 48.5314 17.1669 48.424 14.3445 48.3675C12.357 48.3222 10.3978 48.3279 10.0003 48.3675H10.006ZM81.3481 48.3392C80.3827 48.571 79.6672 49.4699 79.6672 50.4592C79.6672 52.4492 80.8484 53.0428 84.8406 53.0428C88.8327 53.0428 90.0139 52.4548 90.0139 50.397C90.0139 49.696 89.8322 49.2324 89.3779 48.7802C88.7646 48.1696 88.6283 48.147 85.3062 48.1753C83.4152 48.1922 81.6377 48.2601 81.3481 48.3335V48.3392ZM47.3381 55.1515C46.5204 55.7055 44.6123 58.6622 44.8962 58.9392C45.0666 59.1088 52.7727 59.0466 52.943 58.8713C53.2099 58.6056 51.6255 55.7846 50.9327 55.2871C49.8311 54.4957 48.3943 54.4391 47.3324 55.1515H47.3381ZM9.90943 55.6433C8.42728 56.0729 7.81965 57.6841 8.68282 58.9109C9.44945 59.9964 10.3751 60.2564 13.5665 60.2564C18.0812 60.2564 19.4157 59.5158 18.9897 57.2375C18.7001 55.6998 17.7859 55.3606 13.9754 55.3889C12.198 55.4002 10.3694 55.5189 9.91511 55.649L9.90943 55.6433ZM81.3311 55.6263C79.5139 56.1747 78.9858 58.1421 80.2976 59.448C80.962 60.1094 81.0358 60.1207 84.551 60.1207C88.4466 60.1207 89.2643 59.9059 89.8833 58.7074C90.3319 57.8424 90.1161 56.8248 89.3211 56.0843C88.7248 55.5302 88.4409 55.4794 85.4028 55.4341C83.5969 55.4059 81.7627 55.4907 81.3254 55.6263H81.3311ZM44.1409 61.992C44.0728 62.0994 43.9365 63.0265 43.8343 64.0498L43.6526 65.9097H54.3968L54.2662 64.1402C54.198 63.1679 54.0561 62.2407 53.9595 62.0824C53.7494 61.7489 44.3511 61.6584 44.1466 61.9863L44.1409 61.992ZM9.4097 62.8569C7.84236 63.6371 8.02409 66.3903 9.69932 67.1478C10.5625 67.5379 16.4514 67.5549 17.5644 67.1704C19.1488 66.6221 19.5974 64.3155 18.3424 63.1792C17.871 62.7552 17.3145 62.6873 13.8846 62.6365C11.4995 62.6025 9.75043 62.6873 9.41538 62.8569H9.4097ZM80.9677 63.0152C79.1561 63.9198 78.9574 65.6214 80.5304 66.786C81.1948 67.2778 81.6037 67.3231 84.9712 67.3231C88.3387 67.3231 88.7135 67.2948 89.3211 66.7238C90.1445 65.955 90.3319 64.96 89.8436 63.9311C89.3098 62.8061 88.4182 62.563 84.869 62.563C82.5293 62.563 81.6718 62.6647 80.9677 63.0152ZM45.0098 69.8671C45.0098 70.178 46.8043 72.4224 47.463 72.9425C47.605 73.0555 48.3943 73.1064 49.2121 73.0555C50.893 72.9538 51.8924 72.2358 52.7954 70.4889L53.2951 69.5222H49.1496C45.8332 69.5222 45.0041 69.59 45.0041 69.8727L45.0098 69.8671ZM80.661 70.1554C79.8035 70.6359 79.2981 72.0153 79.6445 72.9255C80.1442 74.2371 80.7405 74.4067 84.9087 74.4067C88.634 74.4067 88.7589 74.3897 89.3779 73.7735C90.1786 72.982 90.2467 71.3991 89.5199 70.5059C89.0485 69.9236 88.8725 69.8953 85.187 69.8331C82.1772 69.7823 81.1948 69.8501 80.6553 70.1497L80.661 70.1554ZM8.89861 70.6755C7.97866 71.5913 8.09792 73.2251 9.13713 73.994C9.76747 74.4632 10.3013 74.548 13.1179 74.6215C15.6563 74.6893 16.6104 74.6215 17.4678 74.288C18.7342 73.8074 19.2907 72.8407 19.0182 71.6083C18.7115 70.2176 18.0641 70.0254 13.5779 70.0254C9.61981 70.0254 9.53463 70.0367 8.89861 70.6698V70.6755ZM14.0152 95.5388C12.6807 96.8673 12.3513 97.7323 12.215 100.299C11.9424 105.534 13.8732 109.095 18.0471 111.057L19.7848 111.877L47.906 111.945C78.9858 112.018 78.4179 112.047 81.1153 110.418C83.4266 109.022 85.045 106.455 85.6186 103.25C86.1751 100.163 85.3289 96.6016 83.7843 95.5049C83.0631 94.9961 82.5577 94.9848 48.9622 94.8378L14.8727 94.6851L14.0152 95.5388ZM41.0404 101.916C40.5122 102.492 40.4838 103.747 40.9779 104.42C41.33 104.895 41.7218 104.918 49.019 104.918H56.6967L57.1907 104.313C57.7927 103.578 57.8211 102.786 57.2816 102.018C56.8841 101.447 56.8443 101.447 49.1723 101.447C42.0398 101.447 41.4379 101.48 41.0404 101.916Z" fill="white"/>
</svg>
