<svg xmlns="http://www.w3.org/2000/svg" fill="none" viewBox="14.42 8.16 107.92 100.76">
<path d="M26.3031 53.5603C22.9989 53.6412 20.7034 50.6893 19.2679 48.0634C17.3444 44.5425 17.1978 40.1638 18.2132 36.3234C20.5787 27.3757 30.5593 28.6011 37.647 30.1722C42.5881 25.2356 49.3651 22.1895 56.1224 20.6162C57.779 20.231 59.6674 19.8612 61.3589 19.719C61.9366 19.6708 62.6019 19.7868 63.1577 19.719C63.7135 19.6511 64.7923 18.7168 65.2671 18.3382C70.0988 14.5022 73.9501 9.57205 80.8913 10.6509C89.8959 12.0535 96.2681 26.3187 91.3183 33.9185C91.1082 34.2402 90.4867 34.807 90.4846 35.1002C90.4802 35.4591 92.2286 38.1134 92.5634 38.6364C94.2571 41.2689 96.2178 44.1158 98.2156 46.5207C104.509 54.1052 115.481 58.4445 112.84 70.563C112.597 71.6768 112.166 72.7184 111.866 73.7885C115.402 76.294 117.547 80.8959 118.943 84.9092C120.109 88.2616 120.812 90.115 118.256 93.0035C113.441 98.4435 100.885 101.314 93.8982 102.805C74.274 106.991 51.0019 108.439 31.4608 103.229C27.4323 102.155 20.2658 100.347 19.8522 95.2727C19.653 92.8241 20.106 90.1829 21.2155 87.9924C18.3445 85.2637 16.5501 81.5436 16.7799 77.5041C17.0556 72.6593 20.3336 68.9174 22.5131 64.8363C24.3665 61.3658 25.8261 57.4816 26.301 53.5559L26.3031 53.5603ZM100.33 84.1236C105.57 80.6246 110.402 77.119 111.91 70.5893C114.641 58.7683 104.019 54.7419 97.7933 47.4791C95.4541 44.7504 92.8982 41.1135 91.0841 38.0084C90.7493 37.4372 89.5524 35.4875 89.6683 34.9229C89.7055 34.7457 90.443 33.8463 90.6158 33.5422C95.4847 24.9708 88.3663 11.1082 78.0662 11.4758C74.751 11.594 73.6438 12.7581 71.1951 14.651C68.8209 16.4869 66.5626 18.5242 64.1927 20.3382C55.0174 20.9159 45.2271 24.2005 38.4589 30.5618C38.135 30.8659 36.5179 32.6625 36.3757 32.7084C36.0562 32.8113 35.6776 32.7741 35.7367 32.3758C35.7914 32.0082 36.8921 31.0432 36.7674 30.9338C30.7234 29.6865 21.4715 28.5376 19.2438 36.0915C18.4561 38.7633 18.3248 42.2536 18.9878 44.9583C19.6049 47.4748 22.2658 51.871 24.9005 52.5799C25.6138 52.7725 26.2244 52.6434 26.9115 52.8425C27.2835 53.2692 26.7211 55.7989 26.581 56.4378C25.1784 62.8385 22.0339 66.4469 19.2613 71.9613C15.5763 79.2919 18.4561 86.0252 25.0274 90.2594C25.0274 90.5395 25.1171 90.6139 24.7714 90.5702C24.2987 90.5089 23.1542 89.6708 22.71 89.3513C22.5043 89.2047 21.9288 88.6226 21.7997 88.5679C21.5962 88.4826 21.4759 89.0625 21.4321 89.2025C20.7997 91.1523 20.2439 94.9248 21.0623 96.8176C22.5153 100.174 28.3316 101.433 31.5615 102.286C52.2252 107.755 77.0399 106.004 97.6817 101.102C103.608 99.6952 113.921 96.8723 117.934 92.1654C119.954 89.7977 118.927 87.43 117.987 84.8129C116.912 81.8194 114.774 77.1978 112.323 75.1408C112.107 74.9592 111.787 74.6506 111.533 74.7141C111.183 74.8016 110.986 75.4691 110.772 75.8039C108.879 78.7689 106.509 80.8478 103.634 82.8369C102.931 83.3227 101.804 84.1739 101.067 84.5C100.833 84.6028 100.651 84.6969 100.378 84.6553L100.323 84.1258L100.33 84.1236Z" fill="#18b4e4" stroke="#18b4e4" stroke-width="4.68148" stroke-miterlimit="2" stroke-linejoin="round"/>
<path d="M57.5842 37.5197C61.6609 37.1586 65.2321 40.4278 67.812 43.1982C71.8122 47.4915 76.5804 53.1263 79.7096 58.0564C86.4559 68.6804 84.5325 78.0833 73.7772 84.5933C66.8623 88.7794 52.9407 90.0333 46.0893 85.2235C38.9315 80.1993 38.6164 66.0085 40.4195 58.319C42.2686 50.4303 48.4263 38.3293 57.5842 37.5197ZM42.6296 54.0234C39.9556 60.7523 39.5333 69.3368 41.4546 76.3217C43.2533 82.858 46.5379 85.9303 53.2492 87.1579C58.6892 88.1514 67.9171 86.9326 72.7969 84.2476C83.3924 78.4225 85.7929 68.63 78.9459 58.4984C75.6022 53.5508 71.5343 48.4368 67.4926 44.0428C63.2933 39.4759 59.3151 36.419 53.1289 39.9399C47.702 43.0297 44.8398 48.4543 42.6275 54.0234H42.6296Z" fill="#18b4e4" stroke="#18b4e4" stroke-width="1.77905" stroke-miterlimit="2" stroke-linejoin="round"/>
<path d="M71.2197 35.0363C72.7806 34.7189 73.9212 36.5512 72.9864 37.8603C71.7933 39.5329 69.1269 37.602 70.3134 35.7171C70.4885 35.4391 70.8979 35.102 71.2197 35.0363Z" fill="#18b4e4" stroke="#18b4e4" stroke-width="1.77905" stroke-miterlimit="2" stroke-linejoin="round"/>
<path d="M40.2382 43.3195C42.1362 43.0568 42.4011 46.3843 40.4199 46.4784C38.6116 46.566 38.4978 43.5603 40.2382 43.3195Z" fill="#18b4e4" stroke="#18b4e4" stroke-width="1.77905" stroke-miterlimit="2" stroke-linejoin="round"/>
<path d="M57.0541 52.5449C65.4591 51.7352 62.9645 59.2409 60.122 63.7553C57.5399 67.8604 53.0561 66.2477 49.9401 63.7203C48.2595 62.357 45.6095 59.4226 47.1938 57.173C48.6074 55.1664 54.6317 52.7768 57.0519 52.5449H57.0541ZM52.5288 54.6281C51.1436 55.1795 48.01 56.4531 47.3732 57.8798C46.7299 59.3175 48.5199 61.5101 49.5133 62.4577C51.5769 64.4271 54.5288 66.1646 57.3954 65.2039C57.5924 65.1383 57.7215 65.2192 58.0256 65.0398C59.3167 64.2761 61.5181 59.8164 61.8726 58.3131C62.5247 55.5493 62.2577 53.4727 59.0388 53.2495C56.4829 53.0722 54.8242 53.7156 52.5309 54.6281H52.5288Z" fill="#18b4e4" stroke="#18b4e4" stroke-width="1.77905" stroke-miterlimit="2" stroke-linejoin="round"/>
<path d="M74.6308 59.9986C74.6702 60.2634 74.6133 60.4341 74.5083 60.6682C73.8365 62.1978 70.425 65.1213 69.0157 66.1739C63.5954 70.2265 52.2953 74.8481 45.759 71.6817C45.3717 71.4935 45.0894 71.0274 45.6015 70.988C45.7765 70.9749 47.1507 71.4979 47.5534 71.5788C56.186 73.3272 67.2104 67.6509 72.9918 61.4779C73.215 61.2393 74.2741 59.6419 74.6286 59.9964L74.6308 59.9986Z" fill="#18b4e4" stroke="#18b4e4" stroke-width="1.77905" stroke-miterlimit="2" stroke-linejoin="round"/>
</svg>